<?xml version="1.0" standalone="no"?>
<!DOCTYPE svg PUBLIC "-//W3C//DTD SVG 20010904//EN"
 "http://www.w3.org/TR/2001/REC-SVG-20010904/DTD/svg10.dtd">
<svg version="1.0" xmlns="http://www.w3.org/2000/svg"
 width="672.000000pt" height="672.000000pt" viewBox="0 0 672.000000 672.000000"
 preserveAspectRatio="xMidYMid meet">
<metadata>
Created by potrace 1.11, written by Peter Selinger 2001-2013
</metadata>
<g transform="translate(0.000000,672.000000) scale(0.100000,-0.100000)"
fill="#000000" stroke="none">
<path d="M3310 5869 c-105 -153 -273 -443 -285 -489 -1 -3 -16 -36 -34 -75
-75 -159 -78 -166 -148 -360 -34 -93 -62 -180 -114 -351 -5 -17 -11 -40 -13
-50 -3 -10 -16 -66 -29 -124 -14 -58 -28 -125 -32 -150 -4 -24 -8 -47 -10 -50
-2 -4 -7 -29 -10 -56 -4 -27 -8 -56 -10 -64 -3 -8 -7 -37 -10 -65 -3 -27 -8
-62 -10 -76 -5 -25 -12 -117 -20 -234 -5 -71 -5 -360 0 -425 5 -76 15 -170 19
-200 4 -24 16 -104 21 -145 4 -25 11 -58 23 -112 5 -24 8 -43 6 -43 -3 0 0 -8
5 -19 6 -10 13 -31 15 -48 9 -46 62 -220 95 -308 45 -123 136 -320 161 -350 7
-8 10 -15 7 -15 -9 0 105 -180 172 -274 31 -43 61 -85 66 -94 6 -8 17 -23 25
-31 8 -9 31 -36 50 -59 19 -24 49 -59 66 -78 l32 -34 47 52 c25 29 60 74 77
101 17 26 35 47 40 47 4 0 8 7 8 15 0 8 5 15 10 15 6 0 10 5 10 11 0 6 11 25
25 43 14 18 25 36 25 39 0 3 13 25 29 49 52 78 157 291 221 448 12 30 28 69
35 85 45 105 152 482 170 599 4 21 9 48 11 60 2 11 7 37 10 56 3 19 7 42 9 50
3 8 7 42 11 75 3 33 8 74 10 90 18 134 24 475 11 630 -4 44 -9 112 -12 150 -3
39 -8 77 -11 84 -2 8 -7 35 -10 60 -3 26 -7 53 -9 61 -3 8 -7 33 -10 55 -4 22
-8 48 -11 57 -3 9 -7 25 -9 35 -24 114 -78 311 -94 341 -5 9 -9 19 -8 22 1 11
-36 116 -44 125 -5 5 -9 15 -9 22 0 42 -180 418 -267 555 -12 21 -23 40 -23
43 0 3 -4 11 -10 18 -5 7 -47 68 -92 137 -45 68 -88 131 -94 140 -7 8 -21 25
-31 38 l-18 23 -35 -52z"/>
<path d="M5759 5885 c-1 -76 0 -225 2 -232 1 -5 1 -12 0 -17 -1 -5 -2 -30 -1
-55 1 -60 1 -68 0 -194 l-1 -108 -67 0 c-37 1 -76 1 -87 0 -29 0 -368 -1 -382
0 -7 0 -29 1 -49 2 -20 0 -40 -3 -45 -8 -8 -8 -14 -211 -8 -248 0 -5 0 -22 -1
-37 -1 -23 3 -28 22 -28 13 0 61 1 107 1 47 0 88 2 93 5 4 3 8 2 8 -3 0 -7
110 -8 230 -3 14 1 60 1 102 0 l77 -1 -2 -50 c-1 -27 2 -49 6 -49 5 0 5 -4 2
-10 -3 -5 -5 -33 -5 -62 0 -29 1 -60 1 -68 0 -33 0 -106 -1 -125 -1 -11 -1
-24 -1 -30 0 -24 0 -142 1 -160 0 -11 0 -35 0 -54 1 -31 2 -33 31 -29 16 3 32
2 34 -1 2 -3 37 -4 79 -1 41 3 85 2 98 -1 13 -3 34 -3 48 1 20 5 26 14 31 48
3 23 1 42 -3 42 -5 0 -7 4 -3 9 7 12 10 210 3 217 -3 2 -2 22 2 42 4 21 4 46
0 57 -3 10 -4 37 0 59 3 23 3 52 0 65 -3 13 -4 41 -2 62 l4 38 92 1 c50 0 98
1 106 1 8 0 58 0 110 0 52 -1 131 -1 175 0 44 0 85 0 90 -1 6 -1 22 -2 38 -1
l27 1 0 160 0 160 -62 0 c-35 1 -76 0 -93 -1 -16 0 -36 -1 -42 0 -7 0 -58 0
-113 0 -55 1 -137 1 -182 1 -46 1 -98 1 -117 0 -29 -1 -33 2 -28 20 3 11 1 23
-4 26 -5 3 -7 10 -3 15 3 6 5 40 4 77 -1 37 -1 72 -1 77 1 61 2 323 2 368 l-1
57 -160 0 -160 0 -1 -35z"/>
<path d="M5 3917 c4 -27 12 -71 31 -163 2 -11 13 -56 24 -100 12 -43 22 -86
25 -94 10 -39 47 -157 55 -175 7 -16 31 -86 35 -105 1 -3 7 -18 14 -35 7 -16
19 -46 26 -65 7 -19 19 -48 26 -65 7 -16 13 -32 14 -35 0 -3 11 -27 23 -54 13
-28 25 -60 28 -73 3 -12 12 -27 20 -34 8 -6 14 -17 14 -23 1 -20 156 -316 201
-383 16 -23 29 -44 29 -48 0 -3 18 -33 40 -66 22 -33 40 -65 40 -70 0 -5 5 -9
10 -9 6 0 10 -7 10 -15 0 -8 4 -15 8 -15 4 0 16 -14 26 -31 19 -32 180 -249
212 -286 10 -11 35 -41 54 -64 51 -64 314 -327 395 -396 161 -138 398 -301
535 -370 19 -9 37 -20 40 -23 4 -5 229 -106 315 -141 30 -12 175 -60 215 -71
19 -5 51 -13 70 -19 32 -8 150 -34 210 -46 68 -13 232 -33 321 -39 l81 -5 -6
68 c-9 103 -16 152 -31 223 -8 36 -17 80 -20 99 -3 19 -8 37 -10 41 -2 3 -6
17 -9 31 -11 52 -15 68 -51 179 -21 63 -42 121 -47 128 -6 6 -8 12 -5 12 5 0
-21 67 -65 170 -6 14 -12 27 -12 30 -1 3 -25 54 -54 114 -28 60 -52 112 -52
117 0 5 -4 9 -10 9 -5 0 -10 4 -10 10 0 33 -200 348 -332 521 -93 123 -111
144 -218 262 -125 137 -385 377 -408 377 -6 0 -12 5 -14 10 -3 11 -238 182
-278 202 -14 7 -27 15 -30 18 -15 16 -109 70 -235 135 -55 29 -109 57 -120 62
-11 6 -31 16 -45 21 -14 6 -52 23 -85 38 -134 58 -480 177 -480 164 0 -1 -13
4 -30 10 -16 7 -39 13 -50 15 -11 2 -29 6 -40 9 -11 3 -63 15 -115 26 -52 11
-102 22 -110 24 -14 3 -60 10 -147 22 -31 4 -32 3 -28 -29z"/>
<path d="M6604 3938 c-16 -4 -47 -10 -69 -13 -49 -7 -80 -13 -80 -15 0 -1 -9
-3 -20 -5 -95 -14 -352 -82 -475 -127 -30 -11 -59 -21 -65 -22 -5 -1 -14 -4
-20 -7 -5 -4 -28 -12 -50 -19 -22 -7 -68 -26 -103 -41 -34 -16 -65 -29 -69
-29 -25 0 -462 -238 -518 -282 -5 -4 -63 -46 -127 -92 -180 -130 -261 -199
-428 -367 -170 -170 -253 -268 -391 -461 -123 -170 -200 -298 -289 -473 -23
-44 -45 -87 -50 -95 -5 -8 -16 -31 -24 -50 -8 -19 -25 -60 -39 -90 -13 -30
-36 -89 -52 -130 -15 -41 -31 -84 -36 -95 -36 -89 -113 -377 -124 -465 -3 -25
-7 -52 -10 -60 -9 -34 -19 -147 -16 -188 1 -16 133 -10 271 12 19 3 52 8 72
10 20 2 45 7 55 10 10 2 34 7 53 10 68 10 339 84 355 96 6 5 15 9 20 9 16 1
129 43 140 53 5 4 15 8 23 8 51 0 502 258 621 356 9 7 41 32 72 56 198 153
427 386 609 620 27 35 61 76 75 93 14 16 25 35 25 42 0 7 3 13 8 13 4 0 18 18
32 40 14 22 28 40 32 40 5 0 8 5 8 11 0 5 17 36 38 67 103 151 352 616 352
655 0 7 4 17 8 22 5 6 21 42 37 80 15 39 31 79 36 90 28 63 121 344 134 405 1
8 8 33 13 55 6 22 13 52 16 68 3 15 7 35 10 45 7 24 16 69 23 125 l6 48 -30
-3 c-16 -1 -43 -6 -59 -10z"/>
</g>
</svg>
