<svg width="147" height="129" viewBox="0 0 147 129" fill="none" xmlns="http://www.w3.org/2000/svg">
<path d="M142.938 47.4427C142.097 55.5923 139.995 63.5801 136.826 71.1152C133.657 78.6179 129.42 85.6679 124.246 91.9741C119.007 98.345 112.83 103.907 105.942 108.435C99.0535 112.962 91.5184 116.487 83.6276 118.848C75.5427 121.274 67.1021 122.47 58.6939 122.309C49.8975 122.147 41.0689 120.497 32.9517 117.102C25.5136 114.03 18.7547 109.437 13.257 103.584C7.9533 97.9246 3.8462 91.1333 1.71179 83.6629C-0.487288 75.9984 -0.584306 67.7195 1.51776 60.0228C3.58748 52.52 7.79161 45.8581 13.645 40.7484C19.3691 35.7358 26.2898 32.3078 33.4044 29.753C40.7455 27.1012 48.3453 25.3225 55.945 23.4792C61.3134 22.1856 66.6817 20.795 71.9207 19.0163C74.4755 17.6581 76.9657 16.1058 79.3911 14.4888C85.1152 10.7375 90.7099 6.66268 96.9191 3.75213C97.0808 3.59044 97.2101 3.42874 97.3718 3.26704C97.5982 3.00833 97.8893 3.07301 98.0833 3.2347C99.6356 2.55558 101.253 1.94113 102.902 1.45604C106.977 0.227137 111.31 -0.354974 115.547 0.227136C119.233 0.712227 122.823 2.07049 125.992 4.01085C132.589 8.05328 137.473 14.3595 140.254 21.5712C143.326 29.753 143.844 38.7757 142.938 47.4427Z" fill="#C2EDF9"/>
<path d="M48.0862 23.9319C47.5687 26.0664 46.4369 28.0391 44.8522 29.5913C44.1084 28.4271 43.3646 27.2953 42.5561 26.1634C42.5238 26.0987 42.4591 26.034 42.4268 25.9693C40.7775 26.1634 39.2575 27.2306 38.0286 28.3625C36.8967 29.3973 35.8942 30.5615 34.9887 31.7904C33.7598 33.5044 32.7896 35.3801 31.4314 36.9971C30.3318 38.323 28.9736 39.4872 27.3566 40.037C26.9038 39.2608 26.063 38.7434 25.1575 38.6787C24.7371 38.6464 24.2843 38.7434 23.8963 38.9374C23.3142 39.2285 22.7967 39.7136 22.538 40.328C22.344 40.7808 22.2793 41.2982 22.2793 41.7833C22.3116 43.1092 22.8291 44.4675 23.7669 45.373C23.9609 45.567 24.1873 45.7611 24.446 45.9228C25.1575 46.3755 25.9983 46.6342 26.8715 46.6342C29.2323 49.8682 29.9114 54.234 28.6178 58.0177C27.4859 61.381 24.8018 64.1622 21.5355 65.5205L21.5678 65.5851C20.921 65.8439 20.3389 66.1672 19.7892 66.5877C17.008 68.625 15.6821 72.15 15.3263 75.578C14.8412 80.0732 15.8114 84.5684 17.202 88.9019C15.8761 90.0014 14.0974 90.4865 12.3511 90.6482C10.8635 90.7775 9.34353 90.6805 7.92059 90.2925C6.30362 89.9044 4.78367 89.1606 3.52243 88.0934C1.12931 86.056 -0.164268 82.628 0.741236 79.6204C1.38802 77.389 3.13435 75.5457 3.58711 73.2819C4.42793 69.2071 1.03229 65.2294 1.67908 61.1223C2.13183 58.2764 4.42793 56.1097 6.69169 54.3634C8.95545 52.5847 11.4779 50.8707 12.7068 48.2835C13.9681 45.5994 13.6447 42.5918 13.483 39.5519C13.4183 38.2583 13.3536 36.9324 13.483 35.6712C13.5477 34.895 13.7093 34.1189 13.9034 33.3427C15.3263 28.2331 19.7245 23.932 24.9311 22.8971C26.6128 22.5737 28.3591 22.509 30.1378 22.606C31.4314 22.6707 32.7573 22.8001 34.0509 22.8971C37.8346 23.2205 41.5536 23.4469 44.8522 21.7005C45.6607 21.2801 46.5662 20.7303 47.3747 21.1184C48.3125 21.6035 48.3125 22.8971 48.0862 23.9319Z" fill="#102237"/>
<path d="M58.7903 123.44H26.8066C23.605 113.286 18.2367 88.0934 16.458 77.5831L31.6899 68.0106C34.1153 70.6948 37.1552 72.8292 40.5185 74.1874C40.8743 74.3168 41.23 74.4461 41.5857 74.5432C41.6181 74.5755 41.6181 74.6078 41.6504 74.6402V74.5755C41.5857 72.1177 41.5534 69.6599 41.5857 67.1698C45.0137 72.053 49.2179 76.3542 52.5812 81.2698C53.0986 82.0136 53.5837 82.7574 54.0688 83.5335C55.5887 86.056 56.8823 88.9665 56.2678 91.8771C55.9121 93.5587 54.9743 95.014 53.8747 96.3723C54.6832 104.36 56.3649 112.219 58.0465 120.077C58.3052 121.209 58.5316 122.341 58.7903 123.44Z" fill="#8BEBEF"/>
<path d="M49.1862 48.0895C48.5071 50.709 46.9548 53.2961 44.4323 54.234C43.6238 54.525 42.783 54.6544 41.9422 54.6867C41.8775 55.948 41.8128 57.2416 41.7482 58.5028C41.6511 60.9606 41.5865 63.4507 41.5541 65.9085C41.5541 66.3289 41.5541 66.7817 41.5541 67.2021C41.5541 69.6599 41.5541 72.15 41.6188 74.6078C41.5865 74.6078 41.5865 74.6078 41.5541 74.5755C41.1984 74.4785 40.8427 74.3491 40.4869 74.2198C37.1236 72.8615 34.0837 70.7271 31.6583 68.0429L31.5612 68.1399C30.3 66.6523 28.5537 65.5851 26.6457 65.1647C24.964 64.809 23.1853 65.003 21.6007 65.6498L21.5684 65.5851C24.8346 64.2269 27.5188 61.4457 28.6507 58.0824C29.3622 56.045 29.4592 53.8136 29.0388 51.6792C28.683 49.8682 27.9716 48.1542 26.872 46.6989C26.0312 46.7312 25.1904 46.4402 24.4466 45.9874C24.2202 45.8257 23.9938 45.664 23.7674 45.4377C22.7973 44.4998 22.2798 43.1739 22.2798 41.848C22.2798 41.3629 22.3445 40.8455 22.5385 40.3927C22.959 39.3902 24.0585 38.6787 25.158 38.7434C26.0635 38.7757 26.9044 39.3255 27.3571 40.1017C28.9741 39.5519 30.3323 38.3877 31.4319 37.0617C32.7578 35.4448 33.7603 33.5691 34.9892 31.8551C35.8947 30.5939 36.8973 29.462 38.0291 28.4271C39.2904 27.2629 40.778 26.228 42.4273 26.034C42.4596 26.0987 42.5243 26.1634 42.5567 26.228C43.3328 27.3599 44.1089 28.4918 44.8527 29.656C46.1787 31.7904 47.3752 33.9895 48.2484 36.3503C49.639 40.037 50.1888 44.2088 49.1862 48.0895Z" fill="#FFC17D"/>
<path d="M45.6291 123.44H32.4993C28.5539 113.092 24.6085 102.743 20.6631 92.3622C21.3422 92.3299 21.989 92.2652 22.6681 92.1682C23.2502 92.1035 23.8323 92.0388 24.4145 91.9418C28.6509 91.392 32.9197 90.5512 36.8651 88.9666C39.517 100.544 42.4275 112.025 45.6291 123.44Z" fill="#FFC17D"/>
<path d="M54.1337 80.72C53.584 80.914 53.0666 81.1081 52.5491 81.3021C49.1858 76.4188 44.9817 72.0854 41.5537 67.2021C41.5537 66.7817 41.5537 66.329 41.5537 65.9085H41.6507C47.4071 69.0455 51.1909 74.8342 54.1337 80.72Z" fill="#01BCCD"/>
<path d="M31.6583 68.0106L31.5612 68.1076C30.3 66.62 28.5537 65.5528 26.6457 65.1324C24.964 64.7766 23.1853 64.9707 21.6007 65.6175L21.5684 65.5528C24.8346 64.1945 27.5188 61.4133 28.6507 58.05C29.9443 54.2663 29.2328 49.8682 26.9044 46.6666C26.0635 46.6989 25.2227 46.4078 24.4789 45.9551C24.2525 45.7934 24.0262 45.6317 23.7998 45.4053C22.8296 44.4675 22.3122 43.1416 22.3122 41.8156C22.3122 41.3306 22.3768 40.8131 22.5709 40.3604C22.9913 39.3578 24.0908 38.6464 25.1904 38.7111C26.0959 38.7434 26.9367 39.2932 27.3895 40.0693C29.0064 39.5195 30.3647 38.3553 31.4642 37.0294C32.7901 35.4124 33.7927 33.5368 35.0216 31.8228C35.9271 30.5615 36.9296 29.4296 38.0615 28.3948C39.3227 27.2306 40.8103 26.1957 42.4596 26.0017C42.492 26.0663 42.5567 26.131 42.589 26.1957C39.9372 27.2629 38.2555 29.9147 37.059 32.5342C35.8624 35.1537 34.8599 37.9673 32.8225 40.0046C31.9493 40.8778 30.9468 41.5569 29.8149 42.042C29.2328 47.7661 30.3 53.6195 32.3697 59.0202C34.5688 64.6796 37.8351 69.8216 41.5541 74.6402C41.1984 74.5432 40.8427 74.4138 40.4869 74.2844C37.1236 72.8615 34.0837 70.7271 31.6583 68.0106Z" fill="#FCAE51"/>
<path d="M41.7485 54.6868C41.8132 54.6868 41.8779 54.6868 41.9425 54.6868C41.8779 55.948 41.8132 57.2416 41.7485 58.5028C41.4575 58.3735 41.1664 58.2118 40.9077 58.0501C38.0295 56.4007 35.1189 54.4927 33.502 51.6469C35.7657 53.6196 38.7409 54.7191 41.7485 54.6868Z" fill="#F7991E"/>
<path d="M35.5716 40.9748C37.1562 40.9748 38.4498 42.2684 38.4498 43.853C38.4498 45.4377 37.1562 46.7313 35.5716 46.7313C33.9869 46.7313 32.6934 45.4377 32.6934 43.853C32.6934 42.2684 33.9869 40.9748 35.5716 40.9748Z" fill="#F7991E"/>
<path d="M36.8973 88.9989C32.9519 90.5835 28.7154 91.4243 24.4466 91.9741C23.8645 92.0388 23.2824 92.1358 22.7003 92.2005C22.0535 92.2652 21.3744 92.3622 20.6952 92.3945C20.6629 92.2975 20.6306 92.2328 20.5982 92.1358C20.5982 92.1358 20.6306 92.2328 20.6629 92.3945C20.2101 92.4269 19.7897 92.4269 19.337 92.3945C19.0136 92.3622 18.6902 92.3298 18.3668 92.2975C17.9787 91.198 17.5583 90.0984 17.2026 88.9665C15.812 84.6331 14.8741 80.1379 15.3269 75.6427C15.6826 72.2147 17.0085 68.6897 19.7897 66.6523C20.3395 66.2643 20.954 65.9085 21.5684 65.6498C23.153 65.003 24.9317 64.809 26.6134 65.1647C28.5214 65.5528 30.2677 66.62 31.5289 68.1399C31.82 68.4957 32.0787 68.8514 32.3051 69.2395C32.7902 70.0803 33.1459 70.9535 33.5017 71.859C35.5714 77.195 37.6411 82.5957 38.7083 88.2227C38.1262 88.4815 37.5117 88.7402 36.8973 88.9989Z" fill="#01BCCD"/>
<path d="M35.3775 123.44H32.4993C28.5539 113.092 24.6085 102.743 20.6631 92.3622C21.3422 92.3298 21.989 92.2652 22.6681 92.1681C23.2502 92.1035 23.8323 92.0388 24.4468 91.9418C26.5812 98.8624 29.5564 105.46 31.7879 112.348C32.9197 115.808 33.8576 119.333 35.1188 122.729C35.2158 122.988 35.2805 123.214 35.3775 123.44Z" fill="#FCAE51"/>
<path d="M34.0508 22.9294C32.7572 23.8349 31.7223 25.0962 31.0755 26.5514C30.3641 28.1361 30.1377 29.8501 29.4909 31.4347C28.5854 33.6338 26.8391 35.4448 24.834 36.7384C22.829 38.0319 20.5329 38.8081 18.1721 39.2932C16.6522 39.6166 15.0028 39.8106 13.4829 39.6166C13.4182 38.323 13.3535 36.9971 13.4829 35.7358C13.5476 34.9597 13.7093 34.1835 13.9033 33.4074C14.0003 33.4074 14.1297 33.4397 14.2267 33.4397C19.2393 33.7955 24.3489 31.273 27.0978 27.1012C27.7769 26.0987 28.2943 24.9668 29.0058 23.9966C29.3292 23.5439 29.7173 23.0911 30.1377 22.703C31.4313 22.6707 32.7249 22.8001 34.0508 22.9294Z" fill="white" fill-opacity="0.2"/>
<path d="M20.6954 92.3945C24.6408 102.743 28.5862 113.092 32.5317 123.473H28.8126C26.1284 115.323 21.2775 94.9493 20.6631 92.3945H20.6954Z" fill="#01BCCD"/>
<path d="M21.6003 65.5852L21.6327 65.6498C20.9859 65.9085 20.4038 66.2319 19.854 66.6524C17.0728 68.6897 15.7469 72.2147 15.3912 75.6427C14.9061 80.1379 15.8763 84.6331 17.2669 88.9666C15.9409 90.0661 14.1623 90.5512 12.4159 90.7129C10.9283 90.8422 9.40838 90.7452 7.98544 90.3571C6.23912 89.0959 5.23659 86.7998 5.72168 84.6978C6.49783 81.2698 10.3786 79.2647 11.2841 75.8367C12.3189 72.053 9.27902 68.0753 10.1198 64.2269C10.7343 61.4457 13.2568 59.5053 15.7469 58.0824C18.237 56.6918 20.9859 55.4952 22.7969 53.2962C24.4139 51.2911 25.093 48.5099 24.5432 45.9875C25.2547 46.4402 26.0955 46.6989 26.9687 46.6989C29.3295 49.9329 30.0086 54.2987 28.715 58.0824C27.5185 61.4134 24.8666 64.2269 21.6003 65.5852Z" fill="white" fill-opacity="0.2"/>
<path d="M46.3073 45.7611C44.6903 46.9576 42.6206 47.5074 40.6156 47.2487C40.2275 47.184 40.1305 47.7661 40.5185 47.8308C42.6853 48.1218 44.9167 47.5721 46.663 46.2462C46.9541 46.0198 46.6307 45.5347 46.3073 45.7611Z" fill="#221F60"/>
<path d="M40.0019 36.1886C39.3875 37.6762 37.6735 38.517 36.1212 37.9673C35.7655 37.8379 35.5068 38.3877 35.8625 38.517C36.8003 38.8404 37.8675 38.8081 38.773 38.3553C39.5815 37.9349 40.196 37.2881 40.5517 36.4473C40.6811 36.0916 40.1313 35.8329 40.0019 36.1886Z" fill="#221F60"/>
<path d="M38.4498 32.6636C37.0592 32.89 35.7656 33.5691 34.8278 34.6686C34.4397 35.0891 35.1188 35.6712 35.5069 35.2507C35.895 34.798 36.3801 34.4423 36.8975 34.1189C37.3826 33.8601 37.9971 33.6338 38.5145 33.5691C38.7409 33.5368 38.9349 33.3427 38.9349 33.084C38.9026 32.8253 38.6762 32.6313 38.4498 32.6636Z" fill="#221F60"/>
<path d="M42.2334 35.3801L45.4673 42.6888C45.4673 42.6888 49.2187 42.2361 49.6715 41.2659C50.1566 40.2634 42.2334 35.3801 42.2334 35.3801Z" fill="#F7991E"/>
<path d="M44.2382 34.8627C45.7581 35.3801 47.3104 34.7333 47.7632 33.3427C47.8602 33.0193 48.41 33.181 48.3129 33.5044C48.0542 34.3452 47.4398 35.0567 46.599 35.3801C45.8552 35.6712 44.982 35.6712 44.1412 35.4124C43.7854 35.2507 43.8824 34.7333 44.2382 34.8627Z" fill="#221F60"/>
<path d="M42.3301 31.5964C43.2679 30.7879 44.4968 30.3351 45.8551 30.3675C46.4049 30.3675 46.4695 31.2083 45.9198 31.176C45.3377 31.176 44.8202 31.2406 44.3028 31.4347C43.8177 31.5964 43.3326 31.8874 42.9769 32.2108C42.8152 32.3402 42.5565 32.3725 42.3948 32.1785C42.2007 32.0168 42.1684 31.7257 42.3301 31.5964Z" fill="#221F60"/>
<path d="M103.711 18.7576C103.646 19.8572 103.776 21.0214 104.261 21.9916C103.743 21.5712 103.226 21.1507 102.708 20.698C102.288 20.3423 101.868 20.0189 101.415 19.6631C101.48 18.887 101.415 18.0785 101.253 17.3347C101.059 16.2352 100.639 15.1033 99.8626 14.2948C99.0541 13.4863 97.7605 13.1306 96.758 13.6157C96.0142 13.9714 95.5291 14.7475 95.3674 15.556C95.1733 16.3645 95.2704 17.2053 95.4321 18.0138C94.8176 17.1083 94.2032 16.2028 93.3623 15.556C92.4568 14.8446 91.2603 14.4565 90.1931 14.7799C88.9318 15.168 88.1557 16.3969 87.1532 17.2377C86.183 18.0785 84.8894 18.5959 83.5958 18.6606C81.7848 18.7576 79.8768 18.0462 78.1951 18.7253C76.1578 19.5338 75.3493 21.9592 73.7646 23.4468C73.5383 23.6732 73.2796 23.8673 72.9885 24.0613C71.6949 24.9345 70.0779 25.2902 68.4933 25.1608C66.2619 24.9991 63.9981 23.7379 63.1896 21.6682V21.6358C62.8663 20.795 62.8016 19.8572 63.222 19.0487C63.7071 18.0785 64.7743 17.5611 65.6474 16.8819C66.9087 15.9441 67.8465 14.5858 68.2993 13.0982C68.752 11.643 68.7844 10.0583 69.3988 8.63539C70.0456 7.18012 71.3392 6.04824 72.8591 5.59548C75.4463 4.81934 78.1951 6.0159 80.9117 6.11292C82.852 6.1776 84.8247 5.66016 86.474 4.65764C87.5736 3.97851 88.5761 3.07301 89.7727 2.52324C91.5837 1.71475 93.7827 1.90879 95.4321 3.00833C97.0814 4.10787 98.1162 6.04824 98.0839 8.05328C99.6038 7.0831 101.771 7.66521 102.967 8.99112C104.164 10.3494 104.519 12.2574 104.358 14.0684C104.261 15.6854 103.808 17.2053 103.711 18.7576Z" fill="#404E5F"/>
<path d="M60.4082 89.0312L68.4607 109.373C69.1075 111.054 71.0155 111.863 72.6972 111.216C74.3788 110.569 75.1873 108.661 74.5405 106.98L66.488 86.6381L60.4082 89.0312Z" fill="white"/>
<path d="M65.8387 89.015L61.1484 90.8731L67.3896 106.628L72.0799 104.77L65.8387 89.015Z" fill="#04D5F4"/>
<path d="M66.3151 84.2015L58.6182 87.2506L59.4638 89.3853L67.1608 86.3362L66.3151 84.2015Z" fill="#013A51"/>
<path d="M127.641 110.828H108.205C107.947 105.492 105.359 78.5856 105.036 75.3517L102.837 44.0794C103.387 45.0819 103.904 46.0845 104.389 47.1193C105.359 49.1244 106.265 51.1941 107.494 53.0698L108.399 44.1441L108.432 44.0794C110.34 44.5969 111.666 46.2785 112.733 47.9278C113.347 48.8333 113.929 49.8358 114.188 50.8707C114.447 50.418 114.705 49.9652 114.932 49.5124L116.419 58.8262C117.875 64.1622 126.542 95.6932 127.641 110.828Z" fill="#85EDE6"/>
<path d="M86.7637 97.9246C85.6642 99.3152 84.4676 100.576 83.174 101.741C82.6889 102.193 82.1715 102.614 81.6217 102.97C81.0073 103.358 80.3605 103.649 79.6814 103.972C78.7112 104.425 77.741 104.845 76.7708 105.266C74.6041 106.203 72.405 107.141 70.0442 107.303C69.8178 107.303 69.5915 107.335 69.3974 107.206C69.2681 107.109 69.171 106.947 69.1064 106.786C68.8153 105.977 69.1064 105.072 69.6238 104.392C70.1412 103.713 70.8527 103.228 71.5642 102.775C72.308 102.29 73.0841 101.773 73.8279 101.288C70.8204 102.032 67.7805 102.743 64.7082 102.743C64.0938 102.743 63.3823 102.646 63.0912 102.129C62.8649 101.773 62.9295 101.32 63.1236 100.932C62.3798 100.835 61.7006 100.382 61.5066 99.6709C61.3449 98.9918 61.6683 98.3126 62.1211 97.7952C62.9942 96.6957 64.2878 96.0489 65.5814 95.4991C67.1983 94.7877 68.9123 94.2379 70.594 93.6881C67.5541 93.5911 64.5465 93.4941 61.5066 93.3971C61.3449 93.3971 61.1509 93.3647 61.0539 93.2354C60.9568 93.0737 61.0215 92.8796 61.1185 92.7179C61.4096 92.2652 61.8623 91.9418 62.3474 91.6831C66.8426 89.0959 72.502 89.0959 77.4176 90.7129C79.7137 90.3895 81.9775 90.0014 84.2412 89.5487L86.7637 97.9246Z" fill="#FFC17D"/>
<path d="M116.582 32.4696L112.895 37.7732L108.497 44.0794L108.465 44.1441L107.559 53.0698C106.33 51.1941 105.425 49.1567 104.454 47.1193C103.969 46.0845 103.452 45.0819 102.902 44.0794C102.158 42.7212 101.415 41.3952 100.606 40.0693C100.186 39.3902 99.7652 38.7434 99.3448 38.0966C99.1831 38.2907 99.0214 38.4524 98.8597 38.6464C98.0512 39.4872 97.1457 40.231 96.0462 40.6838C93.7177 41.654 91.0012 41.0718 88.6728 40.0693C86.8941 39.2932 85.2125 38.2583 83.6925 37.0941C82.9164 36.4796 82.1402 35.8329 81.4288 35.1537C80.685 34.4746 80.0058 33.7308 79.3267 32.987C76.9659 30.3028 74.9932 27.3276 73.1499 24.2877C73.1175 24.223 73.0852 24.1583 73.0205 24.0936C73.2792 23.8996 73.5379 23.7056 73.7967 23.4792C75.3813 21.9916 76.1898 19.5661 78.2272 18.7576C79.9088 18.0785 81.8168 18.79 83.6278 18.693C84.9214 18.6283 86.1827 18.1108 87.1852 17.27C88.1877 16.4292 88.9639 15.2003 90.2251 14.8122C91.2923 14.4888 92.4888 14.8769 93.3944 15.5884C94.2352 16.2675 94.882 17.173 95.4641 18.0462C95.3024 17.2377 95.2054 16.3969 95.3994 15.5884C95.5934 14.7799 96.0785 14.0037 96.79 13.648C97.7925 13.1629 99.0861 13.5186 99.8946 14.3271C100.703 15.1356 101.091 16.2352 101.285 17.367C101.415 18.1432 101.479 18.9193 101.447 19.6955C101.867 20.0512 102.288 20.3746 102.74 20.7303C103.258 21.1508 103.775 21.5712 104.293 22.0239C108.4 25.4519 112.539 28.9122 116.582 32.4696Z" fill="#FFC17D"/>
<path d="M73.441 64.2269C72.9882 67.2021 71.921 70.048 70.6274 72.7645C70.4334 73.1526 70.2717 73.5083 70.0453 73.8964C70.013 73.864 69.9806 73.8317 69.9483 73.8317C68.202 72.6351 66.4556 71.4062 64.7417 70.1773C61.0226 67.4932 57.4006 64.712 54.1343 61.5104C53.9403 61.3163 53.7462 61.09 53.7139 60.8312C53.7139 60.6049 53.8433 60.4108 53.9403 60.2491C54.1343 59.9581 54.3284 59.667 54.5547 59.4083C54.2637 58.6968 54.005 57.953 53.7139 57.2416C53.6492 57.0475 53.5522 56.8535 53.5845 56.6271C53.6169 56.4007 53.7786 56.239 53.9079 56.0773C54.2637 55.6893 54.6194 55.3335 55.0075 55.0101C55.6543 53.8136 56.3334 52.617 57.3359 51.7115C57.5623 51.4851 57.8534 51.2911 58.1767 51.3558C58.3708 51.5822 58.5648 51.7762 58.7589 52.0026C58.7589 52.0349 58.7912 52.0673 58.7912 52.1319C58.9529 52.6817 58.9206 53.2638 58.7589 53.8136C58.8559 53.9753 58.9206 54.137 58.9529 54.2987C59.7614 54.525 60.5699 54.6867 61.3784 54.7838C62.0898 55.5276 62.8013 56.3037 63.5128 57.0475C63.7391 57.2739 63.9978 57.0475 64.0302 56.8211C64.0302 56.7241 64.0302 56.6271 63.9332 56.5301C62.5749 55.0748 61.2167 53.6195 59.8261 52.1966C59.6644 51.8732 59.535 51.5498 59.535 51.1941C59.535 50.9677 59.632 50.709 59.8584 50.6443C59.9554 50.612 60.0848 50.6443 60.2141 50.6767C60.5699 50.7737 60.8933 50.903 61.249 51.0001C63.8038 51.9056 66.4233 52.8757 68.4284 54.6867C69.6572 55.7863 70.5951 57.1769 71.3066 58.6645C71.4036 58.8262 71.4683 58.9879 71.5329 59.1496C72.018 60.1844 72.4061 61.2517 72.7618 62.3189C72.9882 62.901 73.2146 63.5477 73.441 64.2269Z" fill="#FFC17D"/>
<path d="M53.5515 45.4377C55.6536 47.6691 57.7233 49.8682 59.8253 52.0996C59.9224 52.2936 60.0517 52.4553 60.1487 52.617C60.6662 53.3608 61.2483 54.0723 61.8627 54.7514C61.701 54.7514 61.5393 54.7191 61.3776 54.6867C60.5045 53.7812 59.6313 52.8434 58.7905 51.9379C58.6935 51.6468 58.4994 51.3558 58.2084 51.2911C56.4944 49.4801 54.7804 47.6691 53.0664 45.8257C53.1958 45.8257 53.3251 45.7611 53.4221 45.6964C53.4868 45.6317 53.5192 45.567 53.5515 45.4377Z" fill="black"/>
<path d="M59.8252 52.0996C61.1835 53.5549 62.5417 55.0101 63.9323 56.4331C63.997 56.5301 64.0293 56.6271 64.0293 56.7241C63.2532 56.1097 62.5417 55.4629 61.8949 54.7514C61.2805 54.0723 60.6984 53.3608 60.1809 52.617C60.0516 52.4553 59.9222 52.2936 59.8252 52.0996Z" fill="black"/>
<path d="M52.9697 44.8232C53.1637 45.0496 53.3578 45.2436 53.5841 45.47C53.5518 45.567 53.4871 45.6641 53.4224 45.7287C53.3254 45.8258 53.1961 45.8581 53.0667 45.8581C52.905 45.6964 52.7433 45.5024 52.5816 45.3407C52.2582 45.0173 52.6786 44.4998 52.9697 44.8232Z" fill="white"/>
<path d="M63.5123 56.9505C62.8009 56.2067 62.0894 55.4306 61.3779 54.6868C61.5396 54.7191 61.7013 54.7191 61.863 54.7514C62.5421 55.4629 63.2536 56.1097 63.9974 56.7241C63.9974 56.9829 63.7387 57.1769 63.5123 56.9505Z" fill="black"/>
<path d="M65.4525 57.759V57.7913C62.8007 58.4058 60.4075 59.764 58.0791 61.1546C58.6936 60.5402 59.2433 59.8287 59.5667 58.9879C59.9224 58.1147 59.9871 57.0799 59.5991 56.2067C59.4697 55.948 59.308 55.6893 59.0493 55.5599C59.0169 55.5599 58.9846 55.5276 58.9523 55.5276C59.0169 55.1395 59.0169 54.7514 58.9523 54.3634C58.9523 54.2987 58.9199 54.2663 58.9199 54.2017C59.7284 54.428 60.5369 54.5897 61.3454 54.6868C62.0568 55.4306 62.7683 56.2067 63.4798 56.9505C63.7062 57.1769 63.9649 56.9505 63.9972 56.7241C64.4823 57.0799 64.9674 57.4356 65.4525 57.759Z" fill="#EF9D4B"/>
<path d="M51.9022 45.276C51.4171 44.7262 51.3524 44.0471 51.7082 43.7237C52.0639 43.4326 52.743 43.6267 53.1958 44.1764C53.5515 44.5968 53.6809 45.1143 53.5839 45.47C53.3898 45.2436 53.1958 45.0496 52.9694 44.8232C52.6784 44.4998 52.2579 45.0496 52.549 45.3407C52.7107 45.5024 52.8724 45.6964 53.0341 45.8581C52.6784 45.8904 52.2256 45.664 51.9022 45.276Z" fill="white"/>
<path d="M58.7911 51.9379C58.5971 51.7115 58.403 51.5175 58.209 51.2911C58.4677 51.3558 58.6617 51.6468 58.7911 51.9379Z" fill="black"/>
<path d="M73.1176 24.2553C73.0853 24.1907 73.0206 24.126 72.9883 24.0613C73.247 23.8673 73.5057 23.6732 73.7644 23.4469C75.3491 21.9592 76.1575 19.5338 78.1949 18.7253C79.8766 18.0462 81.7846 18.7576 83.5956 18.6606C84.8892 18.5959 86.1504 18.0785 87.1529 17.2377C88.1555 16.3969 88.9316 15.168 90.1929 14.7799C91.2601 14.4565 92.4566 14.8446 93.3621 15.556C94.2029 16.2352 94.8497 17.1407 95.4318 18.0138C95.2701 17.2053 95.1731 16.3645 95.3672 15.556C95.5612 14.7475 96.014 13.9714 96.7578 13.6157C97.7603 13.1306 99.0539 13.4863 99.8623 14.2948C100.671 15.1033 101.059 16.2028 101.253 17.3347C101.382 18.1108 101.447 18.887 101.382 19.6631C101.803 20.0189 102.223 20.3423 102.676 20.698C103.193 21.1184 103.711 21.5388 104.228 21.9916C108.4 25.4196 112.507 28.9122 116.549 32.4372L112.863 37.7409L112.798 37.7085C109.791 34.1512 106.815 30.6262 103.808 27.0689C103.808 27.1335 103.775 27.1659 103.775 27.2306C101.673 23.9319 98.6011 21.2801 95.0761 19.6308C94.2353 19.2427 93.3298 18.887 92.4243 19.0163C91.163 19.178 90.2252 20.2129 89.0933 20.8274C88.1231 21.3771 86.9913 21.6035 85.8917 21.5388C84.016 21.3771 82.1727 20.3099 80.394 20.8597C79.4885 21.1508 78.7124 21.7975 78.0332 22.4767C77.3541 23.1558 76.675 23.8673 75.8341 24.32C74.9933 24.7728 73.8938 24.8374 73.1176 24.2553Z" fill="#F7A654"/>
<path d="M146.01 128.873H128.418C128.612 122.826 128.288 116.681 127.642 110.828C126.316 98.636 122.791 84.3097 121.4 78.9413C117.487 84.5684 112.474 89.2899 106.718 92.7826C105.036 93.8175 103.258 94.723 101.447 95.5314C98.9565 96.631 96.337 97.5365 93.6204 98.1833C91.5831 98.6684 89.4163 99.0564 87.1526 99.2828L86.7645 97.9569L84.242 89.5487L84.0156 88.7402C84.0156 88.7402 87.7347 86.9615 92.4239 84.1803C93.1353 83.7599 93.8468 83.3395 94.5906 82.8867C95.9489 82.0459 97.3395 81.1404 98.7624 80.2026C100.994 78.6826 103.161 77.0656 105.101 75.384C106.492 74.1551 107.785 72.8939 108.82 71.6326C111.86 67.9783 114.512 63.1597 116.549 58.8585L115.061 49.5448C118.36 42.9799 118.069 35.2508 117.81 32.2755H117.972C117.972 32.2755 128.935 32.7606 135.856 40.5868C137.699 42.6565 138.217 45.4053 137.699 48.6716C137.57 49.3184 137.44 49.9652 137.311 50.612C137.473 49.9329 137.602 49.2861 137.699 48.6716C147.66 97.1808 146.01 128.873 146.01 128.873Z" fill="white"/>
<path d="M137.634 48.6069C137.537 49.2214 137.408 49.9005 137.246 50.5473C137.375 49.9329 137.505 49.2861 137.634 48.6069Z" fill="white"/>
<path d="M121.399 78.9737C129.678 67.0081 136.437 56.3361 137.601 48.6393C137.666 48.898 137.698 49.1567 137.763 49.4154C135.564 61.5104 130.002 72.8292 122.37 82.531C121.787 80.2349 121.399 78.9737 121.399 78.9737Z" fill="#C7CCEA"/>
<path d="M137.634 48.6069C137.537 49.2214 137.408 49.9005 137.246 50.5473C137.375 49.9329 137.505 49.2861 137.634 48.6069Z" fill="white"/>
<path d="M127.642 110.828C128.257 116.681 128.612 122.826 128.418 128.873H108.465C108.659 122.632 108.497 116.358 108.206 110.828H127.642Z" fill="#221F60"/>
<path d="M121.4 78.9737C121.4 78.9737 121.788 80.2672 122.37 82.4987C118.651 87.2526 114.415 91.6184 109.822 95.4991C108.982 96.2106 108.108 96.9221 107.203 97.6012C106.912 94.5936 106.686 92.7826 106.686 92.7826C112.507 89.3223 117.519 84.6007 121.4 78.9737Z" fill="#45C9BC"/>
<path d="M116.582 32.4696L117.585 31.0143C117.585 31.0143 117.649 31.467 117.714 32.2432C117.973 35.2184 118.264 42.9475 114.965 49.5124C114.739 49.9652 114.48 50.4179 114.221 50.8707C113.93 49.8358 113.348 48.8333 112.766 47.9278C111.699 46.2785 110.373 44.5968 108.465 44.0794L112.863 37.7732L116.582 32.4696Z" fill="#45C9BC"/>
<path d="M106.718 92.7826C106.718 92.7826 106.945 94.5936 107.236 97.6012C105.263 99.1211 103.193 100.512 100.994 101.611L101.447 95.5314C103.258 94.723 105.037 93.8175 106.718 92.7826Z" fill="#C7CCEA"/>
<path d="M108.464 128.873H98.9885L101.414 95.4344C100.8 93.8498 97.792 78.3915 97.3392 77.3567L94.5903 82.8867C89.0603 86.3147 84.0153 88.7402 84.0153 88.7402L65.9053 77.0333C66.4227 77.292 67.0695 77.0656 67.5546 76.7746C68.6541 76.0954 69.3979 75.0282 70.0447 73.8964C70.2388 73.5406 70.4328 73.1526 70.6268 72.7645C71.9204 70.048 72.9876 67.1698 73.4404 64.2269C73.505 63.7741 73.5697 63.3214 73.6021 62.8686C76.6096 65.2294 79.6172 67.5578 82.5924 69.9186C83.0128 66.911 84.177 59.0202 84.6945 56.239C85.4059 52.4553 86.3761 48.5422 88.8986 45.6317C91.1947 42.9799 94.6227 41.4599 98.083 40.8131L98.2447 40.8455C97.9213 42.8505 97.8566 46.0198 99.4736 49.5448C99.4736 49.5448 99.894 46.0845 102.869 44.1117L106.718 92.7826C107.041 96.0165 107.947 105.492 108.205 110.828C108.496 116.358 108.658 122.632 108.464 128.873Z" fill="white"/>
<path d="M103.808 27.2629C104.713 33.4721 101.673 38.4847 100.542 40.0693C100.121 39.3902 99.7007 38.7434 99.2803 38.0966C100.865 36.2533 101.932 34.0218 102.676 31.7257C103.161 30.2705 103.517 28.7505 103.808 27.2629Z" fill="#D88235"/>
<path d="M72.9873 24.0613C71.6938 24.9345 70.0768 25.2902 68.4921 25.1608C66.2607 24.9991 63.997 23.7379 63.1885 21.6682V21.6358C64.8701 22.7354 67.1662 22.703 68.9449 21.7975C70.8206 20.795 72.1465 18.9517 72.8256 16.9143C73.3431 15.2973 73.6018 13.3569 75.0247 12.3868C76.48 11.3842 78.4527 11.9017 80.0697 12.5485C81.1045 12.9689 82.2364 13.3893 83.3359 13.2276C84.8882 12.9689 85.9554 11.5783 86.8286 10.2847C87.7018 8.95878 88.6073 7.53585 90.0949 7.01842C91.4208 6.56566 92.9731 7.01842 94.008 7.95626C95.0428 8.8941 95.6573 10.2524 95.8836 11.643C96.9832 10.8345 98.2444 9.99364 99.5703 10.2524C100.832 10.5111 101.705 11.74 101.996 13.0335C102.287 14.2948 102.093 15.6207 102.028 16.9143C101.963 18.2079 102.028 19.5985 102.74 20.6657L102.675 20.7627C102.255 20.4069 101.834 20.0835 101.381 19.7278C101.446 18.9517 101.381 18.1432 101.22 17.3994C101.026 16.2998 100.605 15.168 99.8291 14.3595C99.0206 13.551 97.727 13.1952 96.7245 13.6803C95.9807 14.0361 95.4956 14.8122 95.3339 15.6207C95.1398 16.4292 95.2369 17.27 95.3986 18.0785C94.7841 17.173 94.1697 16.2675 93.3288 15.6207C92.4233 14.9416 91.2268 14.5212 90.1596 14.8446C88.8983 15.2326 88.1222 16.4615 87.1197 17.3024C86.1495 18.1432 84.8559 18.6606 83.5623 18.7253C81.7513 18.8223 79.8433 18.1108 78.1616 18.79C76.1243 19.5985 75.3158 22.0239 73.7311 23.5115C73.5048 23.7056 73.2784 23.8996 72.9873 24.0613Z" fill="#102237"/>
<path d="M100.573 40.0693C101.382 41.3952 102.158 42.7212 102.87 44.0794C99.9267 46.0521 99.474 49.5124 99.474 49.5124C97.857 45.9874 97.9217 42.8182 98.2451 40.8131C98.4714 39.4872 98.7625 38.7111 98.7948 38.6141C98.9565 38.42 99.1182 38.2583 99.2799 38.0643C99.7327 38.7434 100.153 39.3902 100.573 40.0693Z" fill="#45C9BC"/>
<path d="M97.3399 77.3567L94.591 82.8867C93.8472 83.3395 93.1357 83.7599 92.4243 84.1803L91.8422 56.239C91.8098 56.2067 93.9442 69.4335 97.3399 77.3567Z" fill="#C7CCEA"/>
<path d="M83.2719 65.1971L88.8019 74.7372C86.7322 73.1202 84.6625 71.5032 82.5928 69.8863C82.7545 68.334 83.0455 66.8464 83.2719 65.1971Z" fill="#C7CCEA"/>
<path d="M85.6643 34.2806C85.4703 34.895 85.0822 35.4448 84.6941 35.9622C84.3707 36.3503 84.0474 36.7707 83.6593 37.0941C83.3359 37.3851 82.9801 37.6115 82.5921 37.7409C82.398 37.8056 82.1717 37.8702 81.9453 37.8379C81.5572 37.7732 81.2985 37.3851 81.2338 36.9971C81.1691 36.609 81.2338 36.2209 81.2985 35.8329C81.3308 35.6065 81.3632 35.3801 81.4279 35.1537C81.7512 32.987 81.7836 30.7556 81.4925 28.5888C83.2389 30.1411 84.6941 32.1138 85.6643 34.2806Z" fill="#D88235"/>
<path d="M73.4087 64.2269C72.9559 67.2021 71.8887 70.0803 70.5951 72.7968C70.4011 73.1849 70.2394 73.5406 70.013 73.9287C69.9807 73.8964 69.9484 73.864 69.916 73.864C70.4981 68.7867 70.9509 63.7094 71.3066 58.6322C71.4036 58.7939 71.4683 58.9556 71.533 59.1172C72.0181 60.1521 72.4062 61.2193 72.7619 62.2865C72.9883 62.901 73.2146 63.5478 73.4087 64.2269Z" fill="#EF9D4B"/>
<path d="M69.9163 73.8317C69.9486 73.864 69.981 73.8964 70.0133 73.8964C69.3989 75.0282 68.6227 76.0954 67.5232 76.7746C67.0381 77.0656 66.3913 77.292 65.8739 77.0333C65.5828 76.9039 65.3888 76.6129 65.2271 76.3542C64.6126 75.2546 64.5156 73.961 64.5156 72.6998C64.5156 71.859 64.5803 71.0181 64.6773 70.1773C66.4237 71.4062 68.17 72.6028 69.9163 73.8317Z" fill="#C7CCEA"/>
<path d="M126.994 111.766C122.273 111.798 117.583 111.798 112.862 111.831C111.536 111.831 110.242 111.831 108.916 111.831C108.722 111.831 108.755 112.122 108.949 112.122L123.049 112.057C124.375 112.057 125.668 112.057 126.994 112.057C127.221 112.057 127.188 111.766 126.994 111.766Z" fill="#10103A"/>
<path d="M107.592 24.6757C105.49 26.034 103.42 27.4246 101.318 28.7828L95.141 22.9617L95.044 16.2351C95.044 16.0411 94.7529 16.0734 94.7529 16.2675C94.7853 18.4666 94.8176 20.6657 94.85 22.8647L81.6231 31.0143L79.3594 34.7656C79.7798 35.6065 80.4589 36.609 81.5261 37.6439C84.469 40.425 93.1036 43.465 97.6312 39.6812L101.318 29.1062C103.452 27.7156 105.587 26.2927 107.721 24.9021C107.915 24.8051 107.753 24.5787 107.592 24.6757Z" fill="#80E5D8"/>
<path d="M92.423 28.2007C89.0921 29.3003 85.5024 30.5615 83.368 33.5368C82.8505 34.2806 82.4301 35.089 82.1714 35.9622C82.1067 36.1562 82.3978 36.1886 82.4625 36.0269C83.4003 32.6959 86.5696 30.7556 89.5772 29.559C90.5473 29.1709 91.5175 28.8475 92.52 28.5241C92.7141 28.3948 92.6171 28.1361 92.423 28.2007Z" fill="#45C9BC"/>
<path d="M92.4244 31.4994C89.8372 31.9521 87.5088 33.4397 85.9565 35.5741C85.5361 36.1562 85.148 36.803 84.857 37.4822C84.7923 37.6439 85.051 37.7732 85.1157 37.6115C86.1506 35.2831 88.0586 33.4074 90.387 32.4372C91.0338 32.1462 91.7453 31.9521 92.4567 31.8228C92.6508 31.7904 92.6184 31.467 92.4244 31.4994Z" fill="#45C9BC"/>
<path d="M87.2486 26.6485C86.6665 27.0365 85.761 26.7131 85.2113 25.937C84.6615 25.1285 84.6938 24.1907 85.2759 23.7702C85.858 23.3822 86.7635 23.7056 87.3133 24.4817C87.8631 25.2579 87.8307 26.228 87.2486 26.6485Z" fill="#221F60"/>
<path d="M80.1022 31.4024C79.52 31.7904 78.6145 31.467 78.0648 30.6909C77.515 29.8824 77.5473 28.9446 78.1295 28.5241C78.7116 28.1037 79.6171 28.4595 80.1668 29.2356C80.7166 30.0441 80.6843 31.0143 80.1022 31.4024Z" fill="#221F60"/>
<path d="M86.797 21.9269C86.7647 21.7005 86.5706 21.5065 86.3119 21.5065C85.3741 21.5712 84.4686 21.8622 83.6278 22.315C83.4337 22.412 83.4014 22.7677 83.5307 22.9294C83.6924 23.1235 83.9188 23.1558 84.1452 23.0264C84.1775 22.9941 84.2099 22.9941 84.1452 23.0264C84.1775 23.0264 84.2099 22.9941 84.2099 22.9941C84.2422 22.9618 84.2745 22.9618 84.3392 22.9294C84.4362 22.8971 84.5333 22.8324 84.6303 22.8001C84.8243 22.7354 85.0184 22.6384 85.2124 22.5737C85.3094 22.5413 85.4064 22.509 85.5034 22.509C85.5358 22.509 85.5358 22.509 85.5681 22.509C85.6328 22.509 85.6651 22.4767 85.7298 22.4767C85.9239 22.4443 86.1502 22.412 86.3443 22.3797C86.603 22.3797 86.8294 22.1533 86.797 21.9269Z" fill="#221F60"/>
<path d="M77.7741 26.9395C77.5801 26.7778 77.3214 26.8102 77.1597 27.0042C76.6746 27.4893 76.2542 28.0714 75.9955 28.7182C75.8985 28.9446 75.9955 29.2033 76.2218 29.3003C76.4482 29.3973 76.7069 29.3003 76.804 29.0739C76.8686 28.9122 76.9333 28.7829 77.0303 28.6535C77.0627 28.5888 77.095 28.5241 77.1597 28.4595C77.1597 28.4595 77.1597 28.4271 77.192 28.4271C77.2244 28.3948 77.2244 28.3625 77.2567 28.3301C77.4507 28.0714 77.6448 27.8127 77.8712 27.5863C78.0005 27.3923 77.9682 27.0689 77.7741 26.9395Z" fill="#221F60"/>
<path d="M75.0579 97.2131L63.5774 100.059C63.0277 100.188 63.3511 101.029 63.9008 100.9C67.7169 99.9619 71.5653 98.9918 75.3813 98.0539C75.9311 97.9246 75.6077 97.0837 75.0579 97.2131Z" fill="#EF9D4B"/>
<path d="M76.3832 100.318C76.2862 100.091 76.0598 99.962 75.8011 100.059C75.1543 100.285 74.4752 100.512 73.8284 100.706C73.602 100.77 73.4727 101.062 73.5697 101.288C73.6667 101.514 73.8931 101.644 74.1518 101.547C74.7986 101.32 75.4777 101.094 76.1245 100.9C76.3186 100.803 76.4803 100.512 76.3832 100.318Z" fill="#EF9D4B"/>
<path d="M58.499 55.2042C58.305 55.0425 58.0463 55.1072 57.8846 55.2689C56.785 56.3037 55.6855 57.3386 54.586 58.3411C54.4243 58.5028 54.4566 58.8262 54.6506 58.9556C54.8447 59.1172 55.1034 59.0526 55.2651 58.8909C56.3646 57.856 57.4642 56.8535 58.5637 55.8186C58.7254 55.6893 58.6607 55.3659 58.499 55.2042Z" fill="#EF9D4B"/>
<path d="M58.8229 53.2962C58.7259 53.0698 58.4672 52.9404 58.2408 53.0374C57.2706 53.3932 56.3328 53.7489 55.3626 54.1046C55.1362 54.2017 55.0069 54.4604 55.1039 54.6868C55.2009 54.9131 55.4596 55.0425 55.686 54.9455C56.6562 54.5897 57.594 54.234 58.5642 53.8783C58.7582 53.7813 58.8876 53.4902 58.8229 53.2962Z" fill="#EF9D4B"/>
</svg>
