<svg width="160" height="107" viewBox="0 0 160 107" fill="none" xmlns="http://www.w3.org/2000/svg">
<path d="M127.805 36.7061C123.288 34.2004 101.725 62.6206 98.7582 76.0394C94.8347 93.8103 105.418 92.4256 109.111 90.2496C112.836 88.0406 151.477 49.7623 127.805 36.7061Z" fill="#01BCCD"/>
<path d="M143.301 36.1786C143.301 36.1786 145.906 37.1017 150.62 45.4762C155.368 53.8835 156.852 106.768 156.852 106.768H111.979C111.979 106.768 112.342 47.2236 125.135 38.1238C137.96 29.0241 143.301 36.1786 143.301 36.1786Z" fill="#8BEBEF"/>
<path d="M124.64 27.5404C125.035 29.9143 127.014 31.8265 128.926 32.0573L129.256 36.2116L129.552 39.9372L138.322 36.3434L137.663 28.9911L140.103 16.8911C140.103 16.8911 129.981 8.31883 124.64 15.1107C124.64 15.1107 124.277 25.1666 124.64 27.5404Z" fill="#FF966F"/>
<path d="M128.926 32.0573L129.255 36.2116C129.321 36.2116 129.387 36.1786 129.453 36.1786C134.333 34.7938 135.751 27.969 135.751 27.969C132.882 31.8595 128.926 32.0573 128.926 32.0573Z" fill="#D1664E"/>
<path d="M130.245 23.0565C130.591 23.0565 130.871 22.6727 130.871 22.1993C130.871 21.7258 130.591 21.342 130.245 21.342C129.899 21.342 129.618 21.7258 129.618 22.1993C129.618 22.6727 129.899 23.0565 130.245 23.0565Z" fill="#013A51"/>
<path d="M125.003 22.2322C125.003 22.6938 125.267 23.0894 125.629 23.0894C125.959 23.0894 126.256 22.6938 126.256 22.2322C126.256 21.7706 125.992 21.375 125.629 21.375C125.3 21.375 125.003 21.7706 125.003 22.2322Z" fill="#013A51"/>
<path d="M127.508 26.4854C127.574 26.4854 127.64 26.4524 127.64 26.3865C127.673 26.3205 127.607 26.2216 127.541 26.1886C127.146 26.0568 126.124 25.5952 126.223 25.0347C126.321 24.2434 127.146 23.0894 127.179 23.0894C127.245 23.0235 127.212 22.9246 127.146 22.8916C127.08 22.8257 126.981 22.8587 126.948 22.9246C126.915 22.9905 126.058 24.1445 125.959 25.0017C125.827 25.9578 127.442 26.4854 127.508 26.5183C127.475 26.4854 127.508 26.4854 127.508 26.4854Z" fill="#C66442"/>
<path d="M128.629 9.24199C128.629 9.24199 122.958 5.81309 119.067 10.297C115.177 14.781 119.925 19.3638 122.859 19.6605C125.793 19.9573 127.475 18.3747 127.475 18.3747C127.475 18.3747 129.189 20.0562 130.937 19.5616C132.684 19.0671 132.849 18.6714 132.849 18.6714C132.849 18.6714 132.816 20.7156 134.53 21.2431C134.53 21.2431 133.904 23.584 134.926 24.1774C134.926 24.1774 135.816 20.9793 137.465 21.4409C139.113 21.9025 138.322 24.672 137.696 25.727C137.069 26.7821 135.816 26.7161 135.816 26.7161L137.564 29.2219C137.564 29.2219 147.817 17.9131 141.784 14.4183C141.784 14.3853 142.015 7.52754 128.629 9.24199Z" fill="#013A51"/>
<path d="M144.092 16.8581C146.277 16.8581 148.049 14.8358 148.049 12.3412C148.049 9.84657 146.277 7.82428 144.092 7.82428C141.907 7.82428 140.136 9.84657 140.136 12.3412C140.136 14.8358 141.907 16.8581 144.092 16.8581Z" fill="#013A51"/>
<path d="M119.464 88.667C119.464 88.667 120.387 89.8539 120.387 91.7992C120.387 93.7444 119.464 94.8324 118.969 94.8324C118.507 94.8324 118.046 92.1948 117.782 91.7003C117.551 91.2387 117.551 91.2387 117.551 91.2387C117.551 91.2387 117.749 93.7774 117.222 94.239C116.694 94.7005 115.705 94.4038 115.243 94.0741C115.243 94.0741 114.782 94.7995 113.892 94.7005C113.001 94.6016 112.606 93.8103 112.606 93.8103C112.606 93.8103 112.243 94.6016 110.825 94.3379C109.408 94.0741 108.32 93.085 108.32 91.9311C108.32 91.9311 102.913 90.1507 102.385 89.788C101.857 89.4253 101.33 86.3591 104.825 84.8095C108.32 83.2599 112.935 86.9526 112.935 86.9526C112.935 86.9526 118.079 86.7547 119.464 88.667Z" fill="#D1664E"/>
<path d="M129.948 81.5455L119.331 81.8422C119.331 81.8422 113.924 79.6662 111.023 80.919C108.121 82.1719 107.825 83.7215 107.495 85.2051C107.165 86.6888 106.869 88.634 108.056 89.4253C109.242 90.2166 109.704 87.0185 109.704 87.0185C109.704 87.0185 111.88 88.7329 114.221 89.1286C116.562 89.5242 117.881 88.7329 117.881 88.7329L130.508 90.843L129.948 81.5455Z" fill="#FF966F"/>
<path d="M127.442 35.717C126.684 36.7391 125.53 38.7502 128.003 40.7944C130.475 42.8385 140.367 37.6292 141.389 35.7499C142.411 33.8707 139.344 31.6617 137.927 31.7935C137.927 31.7935 132.882 37.7941 129.289 36.1456L129.124 33.8377C129.058 33.9036 127.805 35.2224 127.442 35.717Z" fill="#01BCCD"/>
<path d="M139.674 78.677C139.674 78.677 137.498 49.4985 143.73 43.399C149.961 37.2995 155.896 53.6857 157.148 61.8293C158.401 69.9729 160.577 91.4694 157.61 93.8103C154.643 96.1512 128.267 95.6896 128.267 95.6896C128.267 95.6896 125.135 90.0847 126.849 80.0948L139.674 78.677Z" fill="#01BCCD"/>
<path d="M127.376 27.4085L129.717 27.5404C129.717 27.5404 129.288 29.3208 128.332 29.1889C127.376 29.057 127.376 27.4085 127.376 27.4085Z" fill="white"/>
<path d="M140.663 80.2926C140.663 80.2926 147.224 88.8319 148.246 88.3043C149.301 87.7768 141.586 79.5673 141.586 79.5673" stroke="#0D98A5" stroke-miterlimit="10"/>
<path d="M129.915 80.3915C129.915 80.3915 128.596 90.4474 131.102 94.0411" stroke="#0D98A5" stroke-miterlimit="10"/>
<path d="M111.32 78.743C111.32 78.743 105.583 75.9405 102.056 78.743C98.5278 81.5455 101.495 76.3362 104.462 76.1054C107.43 75.8746 109.375 76.7978 109.375 76.7978" stroke="#0D98A5" stroke-miterlimit="10"/>
<path d="M110.067 7H98.8575C96.7144 7 95 8.71445 95 10.8575V16.1987C95 18.3417 96.7144 20.0562 98.8575 20.0562H105.979L108.979 23.3532C109.375 23.8148 110.133 23.518 110.133 22.9246V20.0562C112.243 20.0232 113.958 18.3087 113.958 16.1987V10.8575C113.925 8.71445 112.21 7 110.067 7Z" fill="#01BCCD"/>
<path d="M99.0229 14.5502C99.6784 14.5502 100.21 14.0188 100.21 13.3633C100.21 12.7077 99.6784 12.1763 99.0229 12.1763C98.3673 12.1763 97.8359 12.7077 97.8359 13.3633C97.8359 14.0188 98.3673 14.5502 99.0229 14.5502Z" fill="white"/>
<path d="M105.649 13.3633C105.649 14.0227 105.122 14.5502 104.462 14.5502C103.803 14.5502 103.275 14.0227 103.275 13.3633C103.275 12.7039 103.803 12.1763 104.462 12.1763C105.122 12.2093 105.649 12.7368 105.649 13.3633Z" fill="white"/>
<path d="M109.606 14.5502C110.261 14.5502 110.793 14.0188 110.793 13.3633C110.793 12.7077 110.261 12.1763 109.606 12.1763C108.95 12.1763 108.419 12.7077 108.419 13.3633C108.419 14.0188 108.95 14.5502 109.606 14.5502Z" fill="white"/>
<path d="M74.3001 12.1001C74.3001 12.1001 77.6631 13.6167 76.8059 19.881C75.9816 26.1453 71.8604 26.6069 71.8604 26.6069L74.3001 12.1001Z" fill="#102237"/>
<path d="M53.7931 105.735H40.2754V88.5248L53.892 91.624L53.7931 105.735Z" fill="#102237"/>
<path d="M56.1672 88.5248H42.6494V105.735H56.1672V88.5248Z" fill="#013A51"/>
<path d="M89.0051 93.2066H5.62366C2.62338 93.2066 0.183594 90.7668 0.183594 87.7665V36.1353C0.183594 33.135 2.62338 30.6952 5.62366 30.6952H89.0051V93.2066Z" fill="#102237"/>
<path d="M90.3242 93.2066H11.0641C8.06381 93.2066 5.62402 90.7668 5.62402 87.7665V36.1353C5.62402 33.135 8.06381 30.6952 11.0641 30.6952H90.3242C92.5992 30.6952 94.4455 32.5415 94.4455 34.8165V89.0523C94.4455 91.3602 92.5992 93.2066 90.3242 93.2066Z" fill="#013A51"/>
<path d="M87.4883 89.7777H16.2399C13.5364 89.7777 11.3604 87.6016 11.3604 84.8981V38.4762C11.3604 35.7726 13.5364 33.5966 16.2399 33.5966H87.4883C89.5325 33.5966 91.181 35.2451 91.181 37.2892V86.052C91.181 88.1292 89.5325 89.7777 87.4883 89.7777Z" fill="#E6F8FA"/>
<path d="M83.796 85.5905H20.6252C18.2843 85.5905 16.3721 83.6782 16.3721 81.3373V41.7072C16.3721 39.3664 18.2843 37.4541 20.6252 37.4541H83.8289C85.6093 37.4541 87.06 38.9048 87.06 40.6852V82.3594C87.027 84.1727 85.6093 85.5905 83.796 85.5905Z" fill="#8BEBEF"/>
<path d="M42.7812 93.2725L56.1012 96.8333L56.1671 93.0747L42.7812 93.2725Z" fill="#102237"/>
<path d="M28.5377 57.1372C32.7622 57.1372 36.1868 53.7126 36.1868 49.4882C36.1868 45.2637 32.7622 41.8391 28.5377 41.8391C24.3133 41.8391 20.8887 45.2637 20.8887 49.4882C20.8887 53.7126 24.3133 57.1372 28.5377 57.1372Z" fill="#FD8289"/>
<path d="M33.5165 47.5759H30.4832V44.5427H26.6587V47.5759H23.6914V51.4004H26.6587V54.4007H30.4832V51.4004H33.5165V47.5759Z" fill="white"/>
<path d="M36.9784 59.4781H20.6582V60.8299H36.9784V59.4781Z" fill="#E6F8FA"/>
<path d="M36.9784 63.3027H20.6582V64.6544H36.9784V63.3027Z" fill="#E6F8FA"/>
<path d="M36.9784 67.1602H20.6582V68.5119H36.9784V67.1602Z" fill="#E6F8FA"/>
<path d="M103.71 41.2786C103.71 41.2786 103.479 42.6304 104.732 43.7844C105.985 44.9713 108.029 44.5427 108.029 44.5427L107.205 38.5421C107.205 38.5751 104.304 38.3113 103.71 41.2786Z" fill="#8C999B"/>
<path d="M51.7167 32.9372C51.7167 32.9372 49.112 33.8604 44.3973 42.2348C39.6496 50.6422 36.9131 89.8436 36.9131 89.8436H81.7854C81.7854 89.8436 82.6756 43.9492 69.8502 34.8495C57.0578 25.7497 51.7167 32.9372 51.7167 32.9372Z" fill="white"/>
<path d="M71.8613 43.7844C71.8613 43.7844 77.4333 59.643 90.3246 62.7092C103.216 65.7754 105.985 45.6966 105.985 45.6966" stroke="#033844" stroke-width="3" stroke-miterlimit="10"/>
<path d="M91.71 50.8729L96.128 47.9056C96.128 47.9056 99.3261 42.3337 101.008 41.2786C102.689 40.2236 106.184 39.6631 107.107 40.3555C108.03 41.0478 103.975 42.5645 103.975 42.5645C103.975 42.5645 107.173 42.8612 106.711 44.4767C106.711 44.4767 107.997 45.3999 107.338 46.9825C107.338 46.9825 108.162 48.1364 107.503 49.2574C106.81 50.4114 104.436 52.3896 102.392 52.4555L96.128 59.0166L91.71 50.8729Z" fill="#FF966F"/>
<path d="M46.2111 41.5424C43.1779 43.9822 42.0898 48.1034 43.4746 51.7301C46.4419 59.577 52.2776 72.6002 59.4321 76.9523C69.9166 83.3485 89.0393 75.9302 96.9851 60.4672L91.1823 48.1694C91.1823 48.1694 75.5215 59.4781 71.1365 59.4781C68.6308 59.4781 63.6193 51.2356 59.8278 44.2459C57.1242 39.2674 50.5961 37.9816 46.2111 41.5424Z" fill="#DDDCDB"/>
<path d="M74.4665 26.2113C74.0708 28.5851 72.0926 30.4974 70.1803 30.7282L69.8506 34.8824L69.5539 38.608L60.7839 35.0143L58.1133 13.0232C58.1133 13.0232 69.0923 6.9897 74.4335 13.7815C74.4665 13.7815 74.8291 23.8704 74.4665 26.2113Z" fill="#FF966F"/>
<path d="M61.3105 29.4753C61.3105 29.4753 61.7062 37.2233 66.5528 40.3225C71.3994 43.4217 72.8171 40.6192 72.3885 38.0805C71.7621 34.1241 70.3444 30.6952 70.3444 30.6952" stroke="#033844" stroke-width="3" stroke-miterlimit="10"/>
<path d="M70.1803 30.7282L69.8506 34.8824C69.7846 34.8824 69.7187 34.8494 69.6528 34.8494C64.7732 33.4647 63.3555 26.6399 63.3555 26.6399C66.2239 30.5633 70.1803 30.7282 70.1803 30.7282Z" fill="#D1664E"/>
<path d="M74.4658 13.7815C74.4658 13.7815 73.18 12.5287 71.8282 13.3859C70.4435 14.2431 71.9931 17.705 68.6631 18.3314C65.3661 18.9579 64.0803 18.1666 63.0582 20.5075C62.0361 22.8483 65.6628 27.5301 62.1021 34.289C58.5413 41.0478 50.4966 44.5756 46.1775 42.2677C41.8584 39.9928 40.9352 34.4868 43.7377 31.5854C46.5402 28.684 48.8151 27.3652 47.6941 23.4088C46.5731 19.4524 49.6393 14.8696 52.9693 13.6826C56.3323 12.5287 56.695 5.07744 64.2781 5.63793C71.8612 6.23139 74.6966 10.1548 74.4658 13.7815Z" fill="#102237"/>
<path d="M68.4982 23.7055C69.9367 23.7055 71.1028 22.3623 71.1028 20.7053C71.1028 19.0483 69.9367 17.705 68.4982 17.705C67.0597 17.705 65.8936 19.0483 65.8936 20.7053C65.8936 22.3623 67.0597 23.7055 68.4982 23.7055Z" stroke="#102237" stroke-miterlimit="10"/>
<path d="M74.6966 23.6066C76.0441 23.6066 77.1364 22.2634 77.1364 20.6064C77.1364 18.9493 76.0441 17.6061 74.6966 17.6061C73.3492 17.6061 72.2568 18.9493 72.2568 20.6064C72.2568 22.2634 73.3492 23.6066 74.6966 23.6066Z" stroke="#102237" stroke-miterlimit="10"/>
<path d="M68.8608 21.7274C69.2068 21.7274 69.4872 21.3436 69.4872 20.8701C69.4872 20.3967 69.2068 20.0129 68.8608 20.0129C68.5148 20.0129 68.2344 20.3967 68.2344 20.8701C68.2344 21.3436 68.5148 21.7274 68.8608 21.7274Z" fill="#102237"/>
<path d="M74.1034 20.936C74.1034 21.3976 73.8397 21.7933 73.477 21.7933C73.1473 21.7933 72.8506 21.3976 72.8506 20.936C72.8506 20.4745 73.1143 20.0788 73.477 20.0788C73.8067 20.0788 74.1034 20.4415 74.1034 20.936Z" fill="#102237"/>
<path d="M71.5977 25.1562C71.5317 25.1562 71.4658 25.1233 71.4658 25.0573C71.4328 24.9914 71.4988 24.8925 71.5647 24.8595C71.9603 24.7276 72.9824 24.266 72.8835 23.7056C72.7846 22.9143 71.9604 21.7603 71.9274 21.7603C71.8614 21.6944 71.8944 21.5955 71.9604 21.5625C72.0263 21.4966 72.1252 21.5295 72.1582 21.5955C72.1911 21.6614 73.0484 22.8154 73.1473 23.6726C73.2792 24.6287 71.6636 25.1562 71.5977 25.1892C71.6306 25.1562 71.5977 25.1562 71.5977 25.1562Z" fill="#C66442"/>
<path d="M71.4327 25.9805L69.0918 25.7497C69.0918 25.7497 69.2567 27.596 70.1798 27.596C71.1359 27.662 71.4327 25.9805 71.4327 25.9805Z" fill="white"/>
<path d="M70.3447 42.0699L71.202 44.3778L72.6526 43.7844L71.6306 41.6743L70.3447 42.0699Z" fill="#8C999B"/>
<path d="M107.205 38.5751L110.106 36.7947L110.865 45.0372L108.029 44.5756L107.205 38.5751Z" fill="#AAB1B2"/>
<path d="M96.9844 47.9056L99.6879 51.4664" stroke="#C66442" stroke-miterlimit="10" stroke-linecap="round"/>
<path d="M106.513 44.2789L104.304 44.3448" stroke="#C66442" stroke-miterlimit="10" stroke-linecap="round"/>
<path d="M106.941 46.9495L104.732 47.0484" stroke="#C66442" stroke-miterlimit="10" stroke-linecap="round"/>
<path d="M70.477 61.5223C70.477 61.5223 68.6307 69.4681 67.6416 69.3692C66.6195 69.2703 69.2572 61.3245 69.2572 61.3245" stroke="#979B9B" stroke-miterlimit="10"/>
<path d="M86.5664 51.9609L94.2814 63.3686" stroke="#979B9B" stroke-miterlimit="10"/>
<path d="M65.1024 23.8045C65.2663 23.8045 65.3991 23.6716 65.3991 23.5077C65.3991 23.3439 65.2663 23.211 65.1024 23.211C64.9385 23.211 64.8057 23.3439 64.8057 23.5077C64.8057 23.6716 64.9385 23.8045 65.1024 23.8045Z" fill="#D1664E"/>
<path d="M66.9821 24.2001C66.9821 24.332 66.8832 24.4309 66.7513 24.4309C66.6194 24.4309 66.5205 24.332 66.5205 24.2001C66.5205 24.0682 66.6194 23.9693 66.7513 23.9693C66.8832 23.9693 66.9821 24.0682 66.9821 24.2001Z" fill="#D1664E"/>
<path d="M65.9264 24.6287C65.9264 24.7606 65.8275 24.8595 65.6956 24.8595C65.5638 24.8595 65.4648 24.7606 65.4648 24.6287C65.4648 24.4968 65.5638 24.3979 65.6956 24.3979C65.8605 24.3979 65.9264 24.4968 65.9264 24.6287Z" fill="#D1664E"/>
<path d="M73.3447 24.7936C73.3447 24.9254 73.4436 25.0244 73.5755 25.0244C73.7074 25.0244 73.8063 24.9254 73.8063 24.7936C73.8063 24.6617 73.7074 24.5628 73.5755 24.5628C73.4436 24.5628 73.3447 24.6617 73.3447 24.7936Z" fill="#D1664E"/>
<path d="M74.0049 24.2001C74.0049 24.332 74.1038 24.4309 74.2357 24.4309C74.3675 24.4309 74.4665 24.332 74.4665 24.2001C74.4665 24.0682 74.3675 23.9693 74.2357 23.9693C74.1038 23.9693 74.0049 24.0682 74.0049 24.2001Z" fill="#D1664E"/>
<path d="M43.539 0H32.3292C30.1861 0 28.4717 1.71445 28.4717 3.8575V9.19866C28.4717 11.3417 30.1861 13.0562 32.3292 13.0562H39.4507L42.451 16.3532C42.8466 16.8148 43.605 16.518 43.605 15.9246V13.0562C45.715 13.0232 47.4295 11.3087 47.4295 9.19866V3.8575C47.3965 1.71445 45.6821 0 43.539 0Z" fill="#8BEBEF"/>
<path d="M33.7469 6.39621C33.7469 7.05562 33.2194 7.58314 32.56 7.58314C31.9006 7.58314 31.373 7.05562 31.373 6.39621C31.373 5.73681 31.9006 5.20929 32.56 5.20929C33.2194 5.20929 33.7469 5.73681 33.7469 6.39621Z" fill="white"/>
<path d="M39.2205 6.39621C39.2205 7.05562 38.693 7.58314 38.0336 7.58314C37.3742 7.58314 36.8467 7.05562 36.8467 6.39621C36.8467 5.73681 37.3742 5.20929 38.0336 5.20929C38.693 5.20929 39.2205 5.73681 39.2205 6.39621Z" fill="white"/>
<path d="M44.3309 6.39621C44.3309 7.05562 43.8034 7.58314 43.144 7.58314C42.4846 7.58314 41.957 7.05562 41.957 6.39621C41.957 5.73681 42.4846 5.20929 43.144 5.20929C43.8034 5.20929 44.3309 5.73681 44.3309 6.39621Z" fill="white"/>
</svg>
