<svg width="18" height="18" viewBox="0 0 18 18" fill="none" xmlns="http://www.w3.org/2000/svg">
<path d="M5.42461 5.42462L5.42462 5.42462C5.64676 5.20247 5.64676 4.8425 5.42462 4.62035L4.09893 3.29466C3.87678 3.07252 3.51681 3.07252 3.29466 3.29466C3.07252 3.51681 3.07252 3.87678 3.29466 4.09893L4.62035 5.42462C4.8425 5.64677 5.20244 5.64676 5.42461 5.42462ZM4.09892 14.7053L4.09893 14.7053L5.42462 13.3796C5.64676 13.1575 5.64676 12.7975 5.42462 12.5754C5.20248 12.3532 4.84253 12.3532 4.62035 12.5754L3.29466 13.9011C3.07252 14.1232 3.07252 14.4832 3.29466 14.7053C3.51681 14.9275 3.87675 14.9275 4.09892 14.7053ZM14.7053 14.7053L14.7053 14.7053C14.9275 14.4832 14.9275 14.1232 14.7053 13.9011L13.3796 12.5754C13.1575 12.3532 12.7975 12.3532 12.5754 12.5754C12.3532 12.7975 12.3532 13.1575 12.5754 13.3796L13.9011 14.7053C14.1232 14.9275 14.4832 14.9275 14.7053 14.7053ZM9 3.94375C9.31432 3.94375 9.56875 3.68932 9.56875 3.375V1.46875C9.56875 1.15443 9.31432 0.9 9 0.9C8.68568 0.9 8.43125 1.15443 8.43125 1.46875V3.375C8.43125 3.68932 8.68568 3.94375 9 3.94375ZM3.94375 9C3.94375 8.68568 3.68932 8.43125 3.375 8.43125H1.46875C1.15443 8.43125 0.9 8.68568 0.9 9C0.9 9.31432 1.15443 9.56875 1.46875 9.56875H3.375C3.68932 9.56875 3.94375 9.31432 3.94375 9ZM13.3796 5.42462L14.7053 4.09893C14.9275 3.87678 14.9275 3.51681 14.7053 3.29466C14.4832 3.07252 14.1232 3.07252 13.9011 3.29466L12.5754 4.62035C12.3532 4.8425 12.3532 5.20247 12.5754 5.42462C12.7975 5.64676 13.1575 5.6468 13.3796 5.42462ZM9 4.68125C6.61843 4.68125 4.68125 6.61843 4.68125 9C4.68125 11.3816 6.61843 13.3188 9 13.3188C11.3816 13.3188 13.3188 11.3816 13.3188 9C13.3188 6.61843 11.3816 4.68125 9 4.68125ZM9 12.1812C7.24614 12.1812 5.81875 10.7539 5.81875 9C5.81875 7.24614 7.24614 5.81875 9 5.81875C10.7539 5.81875 12.1812 7.24614 12.1812 9C12.1812 10.7539 10.7539 12.1812 9 12.1812ZM16.5312 8.43125H14.625C14.3107 8.43125 14.0562 8.68568 14.0562 9C14.0562 9.31432 14.3107 9.56875 14.625 9.56875H16.5312C16.8456 9.56875 17.1 9.31432 17.1 9C17.1 8.68568 16.8456 8.43125 16.5312 8.43125ZM9 14.0562C8.68568 14.0562 8.43125 14.3107 8.43125 14.625V16.5312C8.43125 16.8456 8.68568 17.1 9 17.1C9.31432 17.1 9.56875 16.8456 9.56875 16.5312V14.625C9.56875 14.3107 9.31432 14.0562 9 14.0562Z" fill="#01BCCD" stroke="#01BCCD" stroke-width="0.2"/>
</svg>
