<svg width="22" height="25" viewBox="0 0 22 25" fill="none" xmlns="http://www.w3.org/2000/svg">
<path fill-rule="evenodd" clip-rule="evenodd" d="M12 5.10931C12 7.92658 14.2431 10.2184 17.0001 10.2184C19.7571 10.2184 22 7.92658 22 5.10931C22 2.29205 19.7571 0 17.0001 0C14.2431 0 12 2.29205 12 5.10931ZM13.5 5.10931C13.5 3.13703 15.07 1.53278 17.0001 1.53278C18.93 1.53278 20.5 3.13703 20.5 5.10931C20.5 7.08142 18.93 8.68567 17.0001 8.68567C15.07 8.68567 13.5 7.08142 13.5 5.10931ZM18.2499 21.4589H13.6746C13.3261 23.206 11.8104 24.5244 10 24.5244C8.18975 24.5244 6.6739 23.206 6.32536 21.4589H1.74993C0.784971 21.4589 0 20.6567 0 19.6707C0 19.1474 0.223022 18.6519 0.611937 18.3115C0.637022 18.2891 0.663938 18.2687 0.691953 18.2502C2.15991 16.9412 2.99999 15.058 2.99999 13.0694V10.2184C2.99999 6.27424 6.14097 3.06555 9.99991 3.06555C10.1599 3.06555 10.333 3.06854 10.493 3.09624C10.9019 3.16565 11.178 3.56119 11.1099 3.97807C11.042 4.39494 10.6479 4.6771 10.2469 4.60749C10.182 4.59672 10.1119 4.59739 10.0455 4.59803L9.99991 4.59833C6.96806 4.59833 4.49999 7.11921 4.49999 10.2184V13.0694C4.49999 15.5383 3.44091 17.8743 1.59704 19.4774L1.58931 19.4838C1.57738 19.4937 1.5662 19.5029 1.55291 19.5122C1.526 19.547 1.5 19.6001 1.5 19.6707C1.5 19.8095 1.61407 19.9261 1.74993 19.9261H6.99662L7 19.9261L7.00338 19.9261H12.9966L13 19.9261L13.0034 19.9261H18.2499C18.3859 19.9261 18.5 19.8095 18.5 19.6707C18.5 19.599 18.474 19.547 18.446 19.5122C18.4347 19.5038 18.4246 19.4953 18.4139 19.4864L18.4138 19.4864L18.403 19.4774C16.558 17.8732 15.5 15.5383 15.5 13.0694V11.9557C15.5 11.5327 15.836 11.1893 16.25 11.1893C16.664 11.1893 17 11.5327 17 11.9557V13.0694C17 15.0591 17.841 16.9432 19.311 18.2534C19.3379 18.2717 19.3639 18.2912 19.3879 18.3127C19.777 18.6519 20 19.1474 20 19.6707C20 20.6567 19.215 21.4589 18.2499 21.4589ZM10 22.9916C9.02266 22.9916 8.18819 22.3512 7.87853 21.4589H12.1215C11.8118 22.3512 10.9773 22.9916 10 22.9916Z" fill="#677787"/>
</svg>
