<svg width="429" height="400" viewBox="0 0 429 400" fill="none" xmlns="http://www.w3.org/2000/svg">
<path d="M406.54 142.255C408.54 142.755 410.54 143.255 412.54 142.855C414.54 142.555 416.54 141.255 417.04 139.354C417.54 137.654 416.94 135.954 416.24 134.354C411.14 123.053 399.14 115.153 386.64 114.952C374.04 114.752 371.44 122.553 380.64 130.054C388.04 136.154 397.34 139.854 406.54 142.255Z" fill="#DEF9F6"/>
<path d="M15.54 137.054C26.74 125.953 42.44 120.053 52.44 108.052C64.24 93.9508 66.14 74.2493 71.84 56.7479C77.24 40.1466 86.74 24.6454 100.44 13.9446C114.14 3.24373 132.34 -2.35671 149.44 0.943547C180.64 6.94401 200.34 38.8465 229.84 50.7474C254.64 60.7482 290.64 53.7477 311.14 73.4492C328.34 89.8505 323.74 116.453 327.84 137.554C331.04 153.955 339.64 168.657 345.24 184.458C350.84 200.159 353.04 218.76 343.84 232.762C336.04 244.662 321.74 250.663 312.54 261.464C298.74 277.865 298.04 303.467 281.64 317.268C273.14 324.369 261.64 326.969 250.64 326.469C239.64 325.969 228.94 322.769 218.44 319.268C186.34 308.467 154.74 294.666 121.14 291.566C103.34 289.966 85.34 291.366 67.84 287.966C50.34 284.666 32.54 275.265 25.54 258.864C18.74 243.162 23.04 224.361 16.04 208.86C10.84 197.459 0.339976 188.858 0.0399762 175.757C-0.560024 161.756 5.63998 146.855 15.54 137.054Z" fill="#E6F8FA"/>
<path d="M132.04 273.365C133.44 269.765 134.94 266.264 136.54 262.764C140.24 254.663 146.44 248.063 149.64 239.662C154.94 225.461 151.04 209.76 150.74 194.659C150.44 180.358 153.54 165.756 161.24 153.755C168.94 141.755 181.44 132.454 195.54 130.354C221.34 126.553 245.14 145.855 271.24 147.055C286.14 147.055 300.14 141.955 314.74 140.054C330.04 138.054 345.44 139.754 360.84 140.554C368.14 140.954 375.44 141.355 382.54 142.955C398.24 146.655 412.34 157.156 420.44 171.157C428.54 185.158 430.64 202.459 426.14 218.061C421.74 233.162 411.34 246.363 409.24 261.964C406.54 281.565 416.84 302.967 407.54 320.368C403.24 328.369 395.34 333.87 386.84 336.87C378.34 339.87 369.14 340.47 360.14 340.57C346.94 340.67 333.74 339.47 320.74 337.17C295.14 332.469 270.24 323.169 244.24 321.269C216.14 319.168 188.04 325.869 159.84 324.769C154.64 324.569 149.44 324.069 144.64 321.969C133.64 317.068 127.84 304.367 127.94 292.466C128.04 285.666 129.74 279.465 132.04 273.365Z" fill="#DEF9F6"/>
<path d="M333.24 253.563C334.04 253.363 334.84 253.163 335.64 252.863" stroke="#92D4D6" stroke-miterlimit="10"/>
<path d="M340.44 251.463C351.64 247.963 362.44 243.563 371.94 236.762C383.44 228.562 392.74 216.561 395.44 202.66C399.74 179.858 385.64 156.956 387.74 133.854C388.84 121.353 394.74 109.652 395.84 97.0513C397.34 80.45 390.24 63.6487 378.44 52.0478C361.54 35.3465 340.74 31.3462 318.44 40.0469C302.94 46.1474 289.64 56.6482 275.84 66.0489C262.14 75.4496 247.14 84.2503 230.54 85.9505C213.34 87.7506 196.44 81.9502 179.54 78.6499C162.64 75.3496 143.34 75.2496 130.14 86.3505C113.74 100.152 113.74 126.854 125.24 144.855C130.64 153.256 138.34 163.056 133.84 171.957C131.04 177.458 124.64 179.758 118.84 181.858C102.94 187.558 87.4399 194.759 74.1399 205.16C60.8399 215.561 49.9399 229.462 45.0399 245.563C42.2399 254.864 40.8399 269.465 45.1399 278.565C50.0399 288.766 64.1399 296.667 74.3399 300.067C81.7399 302.467 89.6399 303.367 97.4399 303.267C102.44 303.167 107.94 302.467 111.24 298.767C114.64 295.067 113.74 287.666 108.84 286.666C106.44 286.166 103.84 287.366 102.04 289.066C94.2399 296.167 96.9399 310.068 105.04 316.768C113.14 323.469 124.54 324.469 135.04 323.669C143.74 323.069 152.44 321.369 160.74 318.669C170.64 315.468 180.04 310.868 190.24 308.868C199.14 307.068 208.44 307.368 217.14 309.568" stroke="#92D4D6" stroke-miterlimit="10" stroke-dasharray="4.99 4.99"/>
<path d="M219.54 310.168C220.34 310.368 221.14 310.668 221.94 310.968" stroke="#92D4D6" stroke-miterlimit="10"/>
<path opacity="0.1" d="M408.192 370.904C408.55 354.834 358.976 340.693 297.464 339.32C235.951 337.946 185.795 349.859 185.436 365.928C185.077 381.998 234.652 396.139 296.164 397.512C357.676 398.886 407.833 386.973 408.192 370.904Z" fill="#231F20"/>
<path d="M341.34 380.373L218.24 351.471C210.84 350.07 204.84 342.87 204.84 335.369L198.14 71.1488C198.14 63.7482 210.84 57.1477 218.34 58.5478L346.24 83.5497C353.64 84.9498 359.64 92.1504 359.64 99.651V365.672C359.64 373.072 348.74 381.773 341.34 380.373Z" fill="#112B42"/>
<path d="M336.54 382.472L208.64 357.471C201.24 356.07 195.24 348.87 195.24 341.369V75.3485C195.24 67.9479 201.24 63.0476 208.64 64.5477L336.54 89.5496C343.94 90.9497 349.94 98.1503 349.94 105.651V371.672C350.04 379.072 343.94 383.873 336.54 382.472Z" fill="white"/>
<path d="M292.04 93.7495L253.14 86.1495C252.04 85.9495 251.14 84.8495 251.14 83.7495C251.14 82.6495 252.04 81.8495 253.14 82.1495L292.04 89.7495C293.14 89.9495 294.04 91.0495 294.04 92.1495C294.14 93.2495 293.24 94.0495 292.04 93.7495Z" fill="#92D4D6"/>
<path d="M340.64 349.971L204.54 322.669V87.1504L340.64 111.052V349.971Z" fill="#92ECF4"/>
<path d="M221.34 205.659C219.44 208.36 217.94 211.26 216.44 214.16C209.74 227.761 204.54 242.562 204.74 257.663C204.74 260.364 205.14 263.364 207.04 265.264C212.64 270.664 225.34 259.764 229.04 255.763C234.44 249.863 238.24 242.562 241.04 235.162C245.64 222.961 247.24 209.56 245.04 196.659C244.34 192.758 241.24 191.958 237.74 193.058C233.54 194.459 228.34 197.659 225.24 200.759C223.84 202.359 222.54 203.959 221.34 205.659Z" fill="#EBF3F7"/>
<path d="M232.24 138.154C230.94 149.055 232.94 159.756 234.44 170.456C235.84 180.657 237.34 191.058 241.24 200.559C241.54 201.259 241.74 201.859 242.04 202.559C243.74 206.259 246.14 210.659 249.84 212.66C253.54 214.76 258.24 214.36 262.34 214.26C268.44 214.06 274.14 211.76 280.04 210.759C285.34 209.859 290.64 209.259 296.04 208.959C299.94 208.759 305.04 208.359 307.64 204.959C307.84 204.659 305.84 200.459 305.64 199.859C305.04 198.058 304.44 196.158 303.94 194.258C302.94 190.558 302.24 186.658 301.74 182.857C300.24 172.657 300.24 162.456 300.24 152.155C300.24 142.754 300.14 132.753 294.94 124.453C292.04 119.752 287.74 116.052 282.94 113.552C274.24 109.152 264.04 108.252 254.54 109.952C246.54 111.352 240.54 116.452 236.84 123.653C234.34 128.153 232.84 133.153 232.24 138.154Z" fill="#343A4A"/>
<path opacity="0.5" d="M291.44 198.559C291.84 199.659 292.34 200.759 292.04 201.959C291.64 203.859 289.54 204.76 287.64 205.26C277.94 208.06 267.64 207.96 257.54 207.86C256.54 207.86 255.54 207.86 254.64 207.36C253.74 206.86 253.04 206.06 252.54 205.16C250.14 200.959 250.04 195.859 249.94 190.958C249.94 186.858 249.94 182.758 249.84 178.657C249.84 176.157 249.84 173.657 250.54 171.357C251.64 167.957 254.14 165.156 257.04 162.856C261.44 159.456 270.14 154.656 276.04 155.956C282.34 157.256 284.44 167.157 284.24 172.357C284.04 180.958 288.34 190.658 291.44 198.559Z" fill="#343A4A"/>
<path d="M229.74 215.26C230.54 210.359 231.94 205.159 234.14 200.759C237.04 194.658 242.14 190.058 249.04 189.558C254.94 189.058 260.74 188.858 266.64 188.658C272.04 188.458 277.64 187.858 282.94 188.558C288.54 189.258 294.04 191.358 298.44 194.858C303.04 198.558 303.84 203.859 304.24 209.459C306.54 236.861 308.24 264.164 311.34 291.466C312.54 302.267 319.14 361.671 319.24 369.672C303.64 376.372 286.24 376.772 269.24 376.272C254.64 375.872 239.64 374.872 226.04 369.572C226.04 343.97 227.44 318.368 227.44 292.766C227.44 279.565 227.34 266.264 227.54 253.063C227.74 240.462 227.74 227.661 229.74 215.26Z" fill="white"/>
<path d="M262.14 261.464L246.64 179.857H281.34L262.14 261.464Z" fill="#62B0A4"/>
<path d="M253.74 193.159C257.44 198.559 265.34 200.459 270.94 196.459C273.54 194.559 275.94 191.358 275.94 188.058C276.14 179.758 263.44 180.258 258.24 181.958C254.14 183.258 250.74 186.658 252.64 191.158C252.84 191.758 253.24 192.459 253.74 193.159Z" fill="#F99D6E"/>
<path d="M315.04 237.962C314.54 237.562 313.94 237.062 313.44 236.662C309.44 233.461 305.54 230.261 302.24 226.361C294.14 216.76 290.64 203.559 291.84 190.958C294.84 190.958 296.54 191.558 299.14 192.858C301.54 194.058 303.84 195.358 306.14 196.758C310.64 199.659 314.84 203.059 318.74 206.659C325.64 213.06 331.74 220.36 337.74 227.661C340.74 231.261 341.74 237.262 340.04 241.662C337.44 248.162 329.74 247.562 324.44 244.662C321.14 242.862 318.04 240.462 315.04 237.962Z" fill="#EBF3F7"/>
<path d="M262.44 260.263L275.14 231.361L271.44 225.061H277.44L290.94 190.358C290.94 190.358 284.74 186.758 278.74 188.158C277.54 193.258 262.44 260.263 262.44 260.263Z" fill="#EBF3F7"/>
<path d="M262.14 261.463L249.74 231.361L253.44 225.061H247.44L235.64 192.858C235.64 192.858 243.14 188.558 249.24 189.458C249.94 194.858 262.14 261.463 262.14 261.463Z" fill="#EBF3F7"/>
<path d="M262 261.021L265 335.026" stroke="#EBF3F7" stroke-miterlimit="10"/>
<path d="M270.84 272.865C270.84 273.665 270.14 274.365 269.34 274.365C268.54 274.365 267.84 273.665 267.84 272.865C267.84 272.065 268.54 271.365 269.34 271.365C270.24 271.265 270.84 271.965 270.84 272.865Z" fill="#EBF3F7"/>
<path d="M270.84 299.267C270.84 300.067 270.14 300.767 269.34 300.767C268.54 300.767 267.84 300.067 267.84 299.267C267.84 298.467 268.54 297.767 269.34 297.767C270.24 297.767 270.84 298.467 270.84 299.267Z" fill="#EBF3F7"/>
<path d="M240.04 222.16C239.74 212.759 239.64 202.859 244.64 194.558C249.74 186.357 260.74 184.457 269.74 185.057C276.24 185.557 282.44 188.558 285.84 194.358C288.44 198.758 289.64 203.859 290.34 208.959C291.14 214.26 291.34 219.66 291.14 225.06" stroke="#343A4A" stroke-width="2" stroke-miterlimit="10"/>
<path d="M181.74 205.959L230.84 209.96L242.64 275.365L240.84 276.865L179.84 207.46L181.74 205.959Z" fill="#4AA69B"/>
<path d="M275.34 166.957H253.84V189.458H275.34V166.957Z" fill="#F99D6E"/>
<path d="M179.84 207.459L229.04 211.46L240.84 276.865L197.34 273.265L179.84 207.459Z" fill="#62B0A4"/>
<path d="M193.74 236.462C193.84 236.462 193.94 236.462 194.04 236.562C194.84 236.762 195.54 236.962 196.24 237.362C197.54 238.262 197.74 239.862 196.04 240.462C194.84 240.862 193.54 241.062 192.24 241.162C193.74 241.462 195.14 241.762 196.64 242.062C197.74 242.262 199.14 242.762 199.24 243.863C199.44 244.963 198.14 245.863 197.04 246.063C195.94 246.263 194.74 246.063 193.64 246.463C195.04 246.663 196.44 246.963 197.74 247.463C198.64 247.863 199.74 248.763 199.34 249.663C199.14 250.063 198.64 250.263 198.24 250.363C197.04 250.763 195.84 250.863 194.64 250.863C196.04 251.363 197.34 252.163 198.54 253.163C198.84 253.463 199.24 253.763 199.24 254.263C199.24 254.763 198.74 255.163 198.34 255.463C196.34 256.564 193.84 256.364 191.64 255.963C190.44 255.763 189.14 255.363 188.24 254.363C187.44 253.463 187.34 251.763 188.34 250.963C186.84 250.463 185.94 248.563 186.44 247.063C185.54 246.463 184.74 245.763 184.34 244.763C184.04 244.063 184.14 243.363 184.54 242.662C184.64 242.462 185.54 241.062 185.94 241.262C184.84 240.762 183.44 239.762 183.54 238.362C183.54 237.562 184.04 236.562 184.84 236.262C185.44 236.062 186.04 235.962 186.64 235.962C188.84 236.062 191.34 236.062 193.74 236.462Z" fill="#FAC39A"/>
<path d="M309.94 297.767H290.04C290.04 297.767 289.94 320.868 300.34 320.668C310.74 320.468 309.94 297.767 309.94 297.767Z" fill="#EBF3F7"/>
<path d="M284.348 151.181C285.335 133.535 275.095 118.611 261.475 117.849C247.856 117.087 236.014 130.774 235.027 148.42C234.039 166.066 244.279 180.989 257.899 181.752C271.518 182.514 283.36 168.827 284.348 151.181Z" fill="#FAC39A"/>
<path d="M287.04 157.455C288.94 151.555 289.84 145.454 289.94 139.254C290.04 136.154 289.94 133.153 289.74 130.053C289.54 127.353 289.64 124.853 288.34 122.353C286.14 117.852 281.64 115.052 276.94 113.252C269.84 110.552 262.04 109.852 254.54 111.252C252.94 111.552 251.44 111.952 250.04 112.652C248.44 113.552 247.14 114.852 245.84 116.152C243.44 118.752 238.84 123.053 241.74 126.953C242.64 128.253 244.14 128.953 245.54 129.653C250.34 131.753 255.44 132.853 260.54 134.253C265.54 135.654 270.64 137.354 274.74 140.654C277.44 142.854 279.54 145.554 281.24 148.555C282.94 151.455 283.24 154.655 284.14 157.855C284.34 158.455 284.54 159.055 285.04 159.255C286.04 159.555 286.74 158.455 287.04 157.455Z" fill="#343A4A"/>
<path d="M362.54 191.258C361.54 192.358 360.44 193.258 359.24 194.258C358.14 195.158 356.84 196.059 355.84 197.159C354.24 198.759 353.14 200.759 351.74 202.459C351.64 202.559 351.54 202.759 351.34 202.859C351.14 202.859 350.94 202.859 350.84 202.759C349.04 202.059 347.54 200.859 346.34 199.259C346.14 199.059 346.04 198.859 345.94 198.559C345.94 198.259 346.04 197.959 346.14 197.659C347.34 194.358 346.74 190.358 347.04 186.858C347.24 184.158 347.24 181.557 346.84 178.857C346.64 177.357 346.34 175.857 347.04 174.557C347.24 174.157 347.54 173.857 347.94 173.857C348.14 173.857 348.34 173.957 348.44 173.957C350.74 174.857 351.74 178.557 352.44 180.757C353.24 176.557 354.94 172.557 356.64 168.656C357.24 167.256 358.24 165.556 359.74 165.556C360.74 166.656 360.44 168.356 360.14 169.756C359.64 172.057 359.14 174.457 358.64 176.757C359.44 173.157 360.84 169.756 362.84 166.756C363.14 166.256 363.64 165.656 364.24 165.556C364.94 165.556 365.44 166.156 365.54 166.856C365.64 167.556 365.44 168.156 365.24 168.856C364.44 171.557 363.54 174.257 362.74 176.957C363.64 174.757 364.84 172.657 366.34 170.857C366.74 170.357 367.34 169.756 367.94 169.856C368.54 169.956 368.94 170.557 368.94 171.057C369.04 171.657 368.74 172.157 368.54 172.757C367.64 175.157 366.54 177.457 365.24 179.757C365.84 177.857 367.24 176.257 368.94 175.257C369.34 175.057 369.74 174.857 370.14 174.957C370.84 175.057 371.34 175.857 371.34 176.557C371.34 177.957 370.24 179.957 369.54 181.157C368.74 182.857 367.74 184.458 366.64 185.958C365.64 187.758 364.14 189.558 362.54 191.258Z" fill="#FAC39A"/>
<path d="M290.84 152.755C292.34 153.855 293.54 155.855 293.54 157.756C293.54 159.256 292.84 160.656 291.94 161.856C289.94 164.456 287.74 166.156 284.44 166.656C282.14 166.956 278.94 166.856 278.44 163.956C278.04 161.456 280.04 157.856 281.44 155.955C283.54 153.155 287.24 150.255 290.84 152.755Z" fill="#FAC39A"/>
<path d="M357.74 196.059C354.64 193.758 351.34 191.858 347.74 190.558C345.04 189.558 342.84 188.458 340.74 190.858C336.94 195.458 335.24 202.659 333.34 208.259C330.64 216.06 327.94 224.161 326.84 232.361C326.24 236.762 326.24 242.162 329.24 244.862C338.44 253.063 346.04 236.562 348.84 230.061C351.04 224.861 352.94 219.56 354.84 214.16C356.64 209.06 358.84 203.859 359.44 198.459C359.44 198.059 359.54 197.759 359.34 197.459C359.24 197.159 358.94 196.959 358.74 196.859C358.34 196.559 358.04 196.359 357.74 196.059Z" fill="#EBF3F7"/>
<path d="M276.04 253.963C275.94 244.262 277.54 225.661 290.24 224.261C293.44 223.861 296.74 224.461 299.14 226.761C301.44 229.061 302.94 231.962 303.84 235.062C305.84 241.962 305.44 249.463 305.74 256.563" stroke="#343A4A" stroke-width="2" stroke-miterlimit="10"/>
<path d="M276.04 258.163C277.531 258.163 278.74 256.954 278.74 255.463C278.74 253.972 277.531 252.763 276.04 252.763C274.549 252.763 273.34 253.972 273.34 255.463C273.34 256.954 274.549 258.163 276.04 258.163Z" fill="#343A4A"/>
<path d="M305.84 259.163C307.331 259.163 308.54 257.954 308.54 256.463C308.54 254.972 307.331 253.763 305.84 253.763C304.349 253.763 303.14 254.972 303.14 256.463C303.14 257.954 304.349 259.163 305.84 259.163Z" fill="#343A4A"/>
<path d="M245.04 225.36C245.04 228.16 242.74 230.46 239.94 230.46C237.14 230.46 234.84 228.16 234.84 225.36C234.84 222.56 237.14 220.26 239.94 220.26C242.74 220.26 245.04 222.56 245.04 225.36Z" fill="#343A4A"/>
<path opacity="0.5" d="M242.84 225.36C242.84 226.96 241.54 228.26 239.94 228.26C238.34 228.26 237.04 226.96 237.04 225.36C237.04 223.76 238.34 222.46 239.94 222.46C241.54 222.46 242.84 223.76 242.84 225.36Z" fill="#343A4A"/>
<path d="M245.64 165.056C246.94 166.356 248.44 167.156 250.04 167.756C251.64 168.356 253.34 168.556 254.94 168.756C256.64 168.956 258.24 169.056 259.94 168.656C261.64 168.356 263.24 167.756 264.84 166.856C263.74 168.356 262.14 169.456 260.44 170.056C258.64 170.756 256.64 170.856 254.84 170.656C253.04 170.456 251.14 169.956 249.44 169.056C247.74 168.256 246.34 166.856 245.64 165.056Z" fill="#D25961"/>
<path d="M264.44 140.954C265.24 140.454 266.04 140.154 266.94 140.054C267.84 139.954 268.74 140.054 269.54 140.354C270.34 140.654 271.14 141.054 271.84 141.554C272.54 142.154 273.14 142.854 273.44 143.654C272.54 143.454 271.84 143.154 271.04 142.854L268.94 142.154C268.24 141.954 267.54 141.754 266.74 141.554C266.14 141.454 265.34 141.254 264.44 140.954Z" fill="#192D4E"/>
<path d="M249.84 140.154C248.84 140.254 248.04 140.254 247.24 140.354C246.44 140.354 245.64 140.454 244.84 140.554C244.04 140.654 243.34 140.754 242.64 141.054C241.94 141.254 241.14 141.554 240.34 142.054C240.44 141.054 241.14 140.254 241.84 139.654C242.64 139.054 243.54 138.754 244.54 138.554C245.54 138.454 246.44 138.554 247.34 138.754C248.34 139.054 249.14 139.454 249.84 140.154Z" fill="#192D4E"/>
<path d="M254.54 151.855C254.44 153.155 254.14 154.555 253.64 155.855C253.34 156.455 253.04 157.055 252.74 157.655C252.44 158.255 251.94 158.855 251.84 159.355C251.44 160.255 252.44 161.355 253.54 161.855C254.64 162.355 256.04 162.255 257.14 161.455C256.34 162.555 254.74 163.155 253.34 162.555C252.64 162.355 252.04 161.955 251.54 161.355C251.04 160.755 250.74 159.855 251.04 159.055C251.34 158.255 251.74 157.855 252.14 157.255C252.54 156.655 252.84 156.155 253.14 155.555C253.54 154.355 254.14 153.155 254.54 151.855Z" fill="#F99D6E"/>
<path d="M269.14 149.354C269.04 151.154 267.84 152.754 266.44 152.954C265.04 153.154 264.04 151.854 264.24 150.054C264.34 148.254 265.54 146.654 266.94 146.454C268.24 146.254 269.24 147.554 269.14 149.354Z" fill="#192D4E"/>
<path d="M248.84 146.654C249.44 148.354 249.04 150.354 247.84 151.054C246.64 151.754 245.24 151.054 244.64 149.354C244.04 147.654 244.44 145.654 245.64 144.954C246.84 144.154 248.24 144.954 248.84 146.654Z" fill="#192D4E"/>
<path d="M290.34 155.856C289.74 155.456 288.94 155.356 288.34 155.456C287.64 155.556 287.04 155.856 286.44 156.156C285.84 156.556 285.34 156.956 284.84 157.456C284.34 157.956 283.94 158.456 283.74 159.056L283.14 158.456C283.84 158.256 284.64 158.056 285.54 158.256C285.94 158.356 286.44 158.556 286.74 158.856C287.04 159.156 287.24 159.656 287.34 160.056C287.64 161.756 286.54 163.356 285.04 163.756C286.34 163.056 286.94 161.456 286.54 160.256C286.34 159.656 285.94 159.256 285.34 159.156C284.74 159.056 284.04 159.256 283.34 159.456L282.44 159.756L282.74 158.856C283.04 158.056 283.54 157.356 284.14 156.856C284.74 156.356 285.34 155.856 286.04 155.556C286.74 155.156 287.54 154.956 288.34 154.956C289.04 154.956 289.84 155.256 290.34 155.856Z" fill="#F99D6E"/>
<path opacity="0.3" d="M360.64 364.472L181.14 327.269V279.365L360.64 315.868V364.472Z" fill="#112B42"/>
<path d="M305.14 324.469C305.14 331.969 299.04 336.87 291.44 335.269C283.84 333.669 277.74 326.369 277.74 318.868C277.74 311.368 283.84 306.467 291.44 308.067C299.04 309.567 305.14 316.868 305.14 324.469Z" fill="#D8555F"/>
<path d="M294.14 324.168C294.14 324.168 294.64 321.468 296.24 321.168C299.34 320.668 301.24 324.068 299.84 326.868C296.34 326.568 294.14 324.168 294.14 324.168Z" fill="white"/>
<path d="M288.74 322.968C288.74 322.968 288.14 320.068 286.44 319.168C283.34 317.468 281.54 320.268 283.04 323.568C286.64 324.468 288.74 322.968 288.74 322.968Z" fill="white"/>
<path d="M285.94 321.268L283.44 319.268C285.24 316.668 287.94 315.768 291.34 316.468C294.64 317.168 297.24 318.368 299.34 322.468L296.84 323.468C295.34 320.668 293.84 319.868 291.34 319.368C288.94 318.768 287.14 319.468 285.94 321.268Z" fill="white"/>
<path d="M264.94 316.168C264.94 323.668 258.84 328.469 251.24 326.969C243.64 325.368 237.54 318.068 237.54 310.567C237.54 303.067 243.64 298.266 251.24 299.766C258.84 301.367 264.94 308.667 264.94 316.168Z" fill="#76BBA0"/>
<path d="M250.44 310.467C250.44 310.467 248.14 311.667 246.54 310.567C243.54 308.667 244.44 305.267 247.54 304.767C250.14 307.467 250.44 310.467 250.44 310.467Z" fill="white"/>
<path d="M254.14 315.067C254.14 315.067 252.64 317.067 253.34 318.867C254.84 322.067 258.34 321.767 259.34 318.867C257.04 315.767 254.14 315.067 254.14 315.067Z" fill="white"/>
<path d="M255.34 318.068L256.04 320.968C252.64 321.068 249.74 319.668 247.24 316.768C244.94 313.967 243.64 311.367 244.64 307.567L247.44 308.867C246.74 311.467 247.44 313.067 249.24 315.167C251.04 317.268 252.94 318.168 255.34 318.068Z" fill="white"/>
<path opacity="0.1" d="M252.64 341.369L279.54 346.67C280.34 346.87 280.94 347.57 280.94 348.47V357.071C280.94 358.171 279.84 359.071 278.74 358.871L251.84 353.17C251.04 352.97 250.44 352.27 250.44 351.37V343.17C250.54 341.97 251.54 341.169 252.64 341.369Z" fill="#6BB2BF"/>
<path d="M84.9399 144.454H164.04C169.54 144.454 174.04 139.954 174.04 134.454V106.851C174.04 101.351 169.54 96.8506 164.04 96.8506H84.9399C79.4399 96.8506 74.9399 101.351 74.9399 106.851V134.454C74.9399 139.954 79.4399 144.454 84.9399 144.454Z" fill="#01BCCD"/>
<path d="M89.3399 112.352H160.44C162.04 112.352 163.34 111.052 163.34 109.452C163.34 107.852 162.04 106.552 160.44 106.552H89.3399C87.7399 106.552 86.4399 107.852 86.4399 109.452C86.4399 111.052 87.7399 112.352 89.3399 112.352Z" fill="#FFFDF9"/>
<path d="M89.3399 123.552H160.44C162.04 123.552 163.34 122.252 163.34 120.652C163.34 119.052 162.04 117.752 160.44 117.752H89.3399C87.7399 117.752 86.4399 119.052 86.4399 120.652C86.4399 122.252 87.7399 123.552 89.3399 123.552Z" fill="#FFFDF9"/>
<path d="M111.34 134.754H160.44C162.04 134.754 163.34 133.454 163.34 131.854C163.34 130.254 162.04 128.954 160.44 128.954H111.34C109.74 128.954 108.44 130.254 108.44 131.854C108.44 133.454 109.74 134.754 111.34 134.754Z" fill="#FFFDF9"/>
<path d="M163.24 142.455V156.556L143.64 143.655L163.24 142.455Z" fill="#01BCCD"/>
<path d="M101.04 213.259H21.9399C16.4399 213.259 11.9399 208.759 11.9399 203.259V175.657C11.9399 170.156 16.4399 165.656 21.9399 165.656H101.04C106.54 165.656 111.04 170.156 111.04 175.657V203.259C111.04 208.759 106.54 213.259 101.04 213.259Z" fill="#92ECF4"/>
<path d="M96.6399 181.057H25.5399C23.9399 181.057 22.6399 179.757 22.6399 178.157C22.6399 176.557 23.9399 175.257 25.5399 175.257H96.6399C98.2399 175.257 99.5399 176.557 99.5399 178.157C99.5399 179.857 98.2399 181.057 96.6399 181.057Z" fill="#FFFDF9"/>
<path d="M96.6399 192.258H25.5399C23.9399 192.258 22.6399 190.958 22.6399 189.358C22.6399 187.758 23.9399 186.458 25.5399 186.458H96.6399C98.2399 186.458 99.5399 187.758 99.5399 189.358C99.5399 191.058 98.2399 192.258 96.6399 192.258Z" fill="#FFFDF9"/>
<path d="M74.6399 203.459H25.5399C23.9399 203.459 22.6399 202.159 22.6399 200.559C22.6399 198.959 23.9399 197.659 25.5399 197.659H74.6399C76.2399 197.659 77.5399 198.959 77.5399 200.559C77.5399 202.259 76.2399 203.459 74.6399 203.459Z" fill="#FFFDF9"/>
<path d="M22.74 211.26V225.261L42.34 212.46L22.74 211.26Z" fill="#92ECF4"/>
<path d="M84.9399 270.065H164.04C169.54 270.065 174.04 265.564 174.04 260.064V245.363C174.04 239.862 169.54 235.362 164.04 235.362H84.9399C79.4399 235.362 74.9399 239.862 74.9399 245.363V260.064C74.9399 265.564 79.4399 270.065 84.9399 270.065Z" fill="#01BCCD"/>
<path d="M89.3399 249.162H160.44C162.04 249.162 163.34 247.862 163.34 246.262C163.34 244.662 162.04 243.362 160.44 243.362H89.3399C87.7399 243.362 86.4399 244.662 86.4399 246.262C86.4399 247.862 87.7399 249.162 89.3399 249.162Z" fill="#FFFDF9"/>
<path d="M111.34 260.363H160.44C162.04 260.363 163.34 259.063 163.34 257.463C163.34 255.863 162.04 254.563 160.44 254.563H111.34C109.74 254.563 108.44 255.863 108.44 257.463C108.44 259.063 109.74 260.363 111.34 260.363Z" fill="#FFFDF9"/>
<path d="M163.24 268.064V282.166L143.64 269.265L163.24 268.064Z" fill="#01BCCD"/>
<path d="M248.84 48.2462C252.04 48.0462 265.24 50.1462 264.84 44.1462C264.74 42.2462 263.24 40.8462 261.64 39.8462C259.64 38.7462 257.44 38.1462 255.24 37.8462C251.74 37.3462 242.64 35.9462 239.64 38.4462C236.74 40.8462 236.74 45.1462 240.34 47.1462C242.84 48.6462 245.94 48.4462 248.84 48.2462Z" fill="#DEF9F6"/>
<path d="M52.94 72.2496C54.04 72.5496 54.84 73.6497 55.34 74.7498C59.44 83.3504 49.34 107.652 38.14 98.3516C30.84 92.2511 47.94 70.7495 52.94 72.2496Z" fill="#DEF9F6"/>
<path d="M54.04 50.6473C59.64 49.0471 64.44 54.1475 63.44 59.748C62.84 63.3482 59.34 66.2485 55.74 65.8484C48.94 65.1484 47.44 52.4474 54.04 50.6473Z" fill="#DEF9F6"/>
<path d="M288.84 41.1468C290.24 46.8472 284.94 51.4476 279.44 50.2475C275.94 49.5474 273.04 45.9472 273.54 42.3469C274.54 35.5464 287.24 34.3463 288.84 41.1468Z" fill="#DEF9F6"/>
</svg>
