<svg height="42" viewBox="0 0 135 42" width="135" xmlns="http://www.w3.org/2000/svg"><g fill="none"><path d="m133.8 36.9c0 2.2-1.7 4-3.8 4h-125.5c-2.1 0-3.8-1.8-3.8-4v-32c0-2.2 1.7-4 3.8-4h125.5c2.1 0 3.8 1.8 3.8 4z" fill="#000" stroke="#a6a6a6"/><g fill="#fff"><path d="m29.9 20.8c0-3.2 2.6-4.8 2.8-4.9-1.5-2.2-3.9-2.5-4.7-2.5-2-.2-3.9 1.2-4.9 1.2s-2.6-1.2-4.2-1.1c-2.1 0-4.1 1.3-5.2 3.2-2.3 3.9-.6 9.7 1.6 12.9 1.1 1.6 2.4 3.3 4 3.2s2.2-1 4.2-1c1.9 0 2.5 1 4.2 1s2.8-1.6 3.9-3.1c1.3-1.8 1.8-3.5 1.8-3.6-.1-.2-3.5-1.5-3.5-5.3"/><path d="m26.7 11.3c.9-1.1 1.5-2.6 1.3-4.1-1.3.1-2.8.9-3.8 1.9-.8.9-1.5 2.5-1.3 3.9 1.4.2 2.9-.6 3.8-1.7"/><path d="m49.5 27-1.1-3.5c-.1-.4-.3-1.2-.7-2.5-.1.6-.3 1.4-.6 2.5l-1.1 3.5zm3.9 5.5h-2.3l-1.2-3.9h-4.3l-1.2 3.9h-2.2l4.3-13.3h2.6z"/><path d="m62.2 27.7c0-.9-.2-1.7-.6-2.3-.5-.6-1.1-.9-1.9-.9-.5 0-1 .2-1.4.5-.4.4-.7.8-.8 1.4-.1.3-.1.5-.1.6v1.6c0 .7.2 1.3.6 1.8s1 .7 1.7.7c.8 0 1.4-.3 1.9-.9.4-.7.6-1.5.6-2.5m2.2-.1c0 1.6-.4 2.9-1.3 3.9-.8.8-1.8 1.3-2.9 1.3-1.3 0-2.2-.5-2.7-1.4v5.1h-2.1v-10.4c0-1 0-2.1-.1-3.2h1.9l.1 1.5c.7-1.1 1.8-1.7 3.2-1.7 1.1 0 2.1.4 2.8 1.3s1.1 2.1 1.1 3.6"/><path d="m73.3 27.7c0-.9-.2-1.7-.6-2.3-.5-.6-1.1-.9-1.9-.9-.5 0-1 .2-1.4.5-.4.4-.7.8-.8 1.4-.1.3-.1.5-.1.6v1.6c0 .7.2 1.3.6 1.8s1 .7 1.7.7c.8 0 1.4-.3 1.9-.9.4-.7.6-1.5.6-2.5m2.1-.1c0 1.6-.4 2.9-1.3 3.9-.8.8-1.8 1.3-2.9 1.3-1.3 0-2.2-.5-2.7-1.4v5.1h-2.1v-10.4c0-1 0-2.1-.1-3.2h1.9l.1 1.5c.7-1.1 1.8-1.7 3.2-1.7 1.1 0 2.1.4 2.8 1.3.8.9 1.1 2.1 1.1 3.6"/><path d="m87.8 28.8c0 1.1-.4 2.1-1.2 2.8-.9.8-2.1 1.2-3.6 1.2-1.4 0-2.6-.3-3.4-.8l.5-1.8c.9.6 2 .9 3.1.9.8 0 1.4-.2 1.9-.5.4-.4.7-.8.7-1.5 0-.5-.2-1-.6-1.4s-1-.7-1.8-1c-2.3-.9-3.5-2.1-3.5-3.8 0-1.1.4-2 1.2-2.7s1.9-1 3.3-1c1.2 0 2.2.2 3 .6l-.5 1.7c-.8-.4-1.6-.6-2.5-.6-.8 0-1.3.2-1.8.6-.4.3-.5.7-.5 1.2s.2 1 .6 1.3 1 .7 1.9 1c1.1.5 2 1 2.5 1.6.4.5.7 1.3.7 2.2"/><path d="m94.8 24.5h-2.3v4.7c0 1.2.4 1.8 1.2 1.8.4 0 .7 0 .9-.1l.1 1.6c-.4.2-1 .2-1.7.2-.8 0-1.5-.3-2-.8s-.7-1.4-.7-2.6v-4.8h-1.3v-1.6h1.4v-1.8l2.1-.6v2.4h2.3z"/><path d="m103.2 27.7c0-.9-.2-1.6-.6-2.3-.4-.8-1.1-1.1-1.9-1.1-.9 0-1.5.4-2 1.1-.4.6-.6 1.4-.6 2.3s.2 1.6.6 2.3c.5.8 1.1 1.1 1.9 1.1s1.5-.4 1.9-1.2c.5-.6.7-1.3.7-2.2m2.2-.1c0 1.5-.4 2.7-1.3 3.6-.9 1-2.1 1.5-3.5 1.5s-2.5-.5-3.4-1.4c-.8-.9-1.3-2.1-1.3-3.5 0-1.5.4-2.7 1.3-3.7.9-.9 2-1.4 3.5-1.4 1.4 0 2.5.5 3.4 1.4s1.3 2.1 1.3 3.5"/><path d="m112.4 24.8c-.2 0-.4-.1-.7-.1-.8 0-1.3.3-1.7.9-.4.5-.5 1.1-.5 1.9v5h-2.1v-6.6c0-1.1 0-2.1-.1-3h1.9l.1 1.8h.1c.2-.6.6-1.1 1.1-1.5.5-.3 1-.5 1.5-.5h.5v2.1z"/><path d="m119.9 26.7c0-.6-.1-1.2-.4-1.6-.4-.6-.9-.9-1.7-.9-.7 0-1.3.3-1.7.9-.4.5-.6 1-.6 1.7zm2 .6c0 .4 0 .7-.1 1h-6.4c0 .9.3 1.7.9 2.2.5.4 1.2.7 2.1.7s1.8-.2 2.6-.5l.3 1.5c-.9.4-2 .6-3.2.6-1.5 0-2.7-.4-3.5-1.3s-1.3-2-1.3-3.5c0-1.4.4-2.7 1.2-3.6.8-1 1.9-1.5 3.4-1.5 1.4 0 2.4.5 3.1 1.5.6.6.9 1.7.9 2.9z"/><path d="m47.7 11c0-.8-.2-1.3-.6-1.8-.4-.4-1-.6-1.8-.6-.3 0-.6 0-.8.1v4.9h.7c.8 0 1.4-.2 1.9-.7.4-.4.6-1 .6-1.9m1.1 0c0 1.2-.4 2.1-1.1 2.7-.7.5-1.6.8-2.8.8-.6 0-1.1 0-1.5-.1v-6.4c.6-.1 1.2-.1 1.8-.1 1.1 0 2 .2 2.6.7.7.6 1 1.4 1 2.4"/><path d="m53.6 12.1c0-.4-.1-.8-.3-1.1-.2-.4-.5-.6-.9-.6s-.7.2-1 .6c-.2.3-.3.7-.3 1.1s.1.8.3 1.1c.2.4.5.6 1 .6.4 0 .7-.2.9-.6.2-.3.3-.7.3-1.1m1.1-.1c0 .7-.2 1.3-.6 1.8s-1 .7-1.7.7-1.2-.2-1.7-.7c-.4-.5-.6-1-.6-1.7s.2-1.3.6-1.8 1-.7 1.7-.7 1.2.2 1.7.7c.4.5.6 1 .6 1.7"/><path d="m62.5 9.7-1.5 4.7h-1l-.6-2c-.2-.5-.3-1-.4-1.5-.1.5-.2 1-.4 1.5l-.6 2h-1l-1.4-4.7h1.1l.5 2.2c.1.5.2 1 .3 1.5.1-.4.2-.9.4-1.5l.7-2.2h.9l.6 2.2c.2.5.3 1.1.4 1.6.1-.5.2-1 .3-1.6l.6-2.2z"/><path d="m67.9 14.4h-1v-2.7c0-.8-.3-1.2-1-1.2-.3 0-.6.1-.8.3s-.3.5-.3.8v2.8h-1v-3.4c0-.4 0-.9 0-1.3h.9v.7c.1-.2.3-.4.5-.6.3-.2.6-.3.9-.3.4 0 .8.1 1.1.4.4.3.5.9.5 1.6v2.9z"/><path d="m69.8 14.4h1v-6.8h-1z"/><path d="m75.9 12.1c0-.4-.1-.8-.3-1.1-.2-.4-.5-.6-.9-.6s-.7.2-1 .6c-.2.3-.3.7-.3 1.1s.1.8.3 1.1c.2.4.5.6 1 .6.4 0 .7-.2.9-.6.2-.3.3-.7.3-1.1m1.1-.1c0 .7-.2 1.3-.6 1.8s-1 .7-1.7.7-1.2-.2-1.7-.7c-.4-.5-.6-1-.6-1.7s.2-1.3.6-1.8 1-.7 1.7-.7 1.2.2 1.7.7c.4.5.6 1 .6 1.7"/><path d="m81 12.8v-.7c-1.2 0-1.7.3-1.7.9 0 .2.1.4.2.6.1.1.3.2.5.2s.4-.1.6-.2.3-.3.4-.6c0-.1 0-.1 0-.2m1.1 1.6h-.9l-.1-.5c-.3.4-.8.6-1.4.6-.4 0-.8-.1-1.1-.4-.2-.3-.4-.6-.4-1 0-.6.2-1 .7-1.3s1.2-.5 2-.4v-.1c0-.6-.3-.9-1-.9-.5 0-.9.1-1.2.3l-.2-.7c.4-.3 1-.4 1.6-.4 1.2 0 1.8.6 1.8 1.9v1.7c.1.6.1 1 .2 1.2"/><path d="m86.9 12.4v-.8c0-.1 0-.2 0-.3-.1-.3-.2-.5-.4-.6-.2-.2-.4-.3-.7-.3-.4 0-.7.2-.9.5s-.3.7-.3 1.2.1.8.3 1.1.5.5.9.5c.3 0 .6-.1.8-.4.2-.2.3-.5.3-.9m1.1 2h-.9v-.8c-.3.6-.8.9-1.5.9-.6 0-1-.2-1.4-.7s-.6-1-.6-1.7c0-.8.2-1.4.6-1.9.4-.4.9-.7 1.5-.7s1.1.2 1.3.6v-2.5h1v5.6z"/><path d="m95.9 12.1c0-.4-.1-.8-.3-1.1-.2-.4-.5-.6-.9-.6s-.7.2-1 .6c-.2.3-.3.7-.3 1.1s.1.8.3 1.1c.2.4.5.6 1 .6.4 0 .7-.2.9-.6.2-.3.3-.7.3-1.1m1.1-.1c0 .7-.2 1.3-.6 1.8s-1 .7-1.7.7-1.2-.2-1.7-.7c-.4-.5-.6-1-.6-1.7s.2-1.3.6-1.8 1-.7 1.7-.7 1.2.2 1.7.7c.4.5.6 1 .6 1.7"/><path d="m102.6 14.4h-1v-2.7c0-.8-.3-1.2-1-1.2-.3 0-.6.1-.8.3s-.3.5-.3.8v2.8h-1v-3.4c0-.4 0-.9 0-1.3h.9v.7c.1-.2.3-.4.5-.6.3-.2.6-.3 1-.3s.8.1 1.1.4c.4.3.5.9.5 1.6v2.9z"/><path d="m109.7 10.5h-1.2v2.3c0 .6.2.9.6.9h.5v.8c-.2.1-.5.1-.8.1-.4 0-.7-.1-1-.4-.2-.3-.4-.7-.4-1.3v-2.4h-.7v-.8h.7v-.8l1-.3v1.2h1.2z"/><path d="m115.2 14.4h-1v-2.7c0-.8-.3-1.3-.9-1.3-.5 0-.8.2-1 .7v.4 2.8h-1v-6.7h1v2.8c.3-.5.8-.8 1.4-.8.4 0 .8.1 1.1.4.4.4.5.9.5 1.6v2.8z"/><path d="m120 11.6c0-.3-.1-.6-.2-.8-.2-.3-.5-.4-.8-.4s-.6.1-.8.4c-.2.2-.3.5-.3.8zm1 .3v.5h-3.1c0 .5.2.8.5 1.1.3.2.6.3 1 .3.5 0 .9-.1 1.3-.2l.2.7c-.4.2-1 .3-1.6.3-.7 0-1.3-.2-1.7-.6s-.6-1-.6-1.7.2-1.3.6-1.8 1-.8 1.6-.8c.7 0 1.2.3 1.5.8.1.3.3.8.3 1.4z"/></g></g></svg>