<svg width="16" height="16" viewBox="0 0 16 16" fill="none" xmlns="http://www.w3.org/2000/svg">
<path fill-rule="evenodd" clip-rule="evenodd" d="M4.59925 3.28965L9.59923 0.246171C10.712 -0.43123 12.136 0.369419 12.136 1.67185V14.3282C12.136 15.631 10.7117 16.4311 9.5992 15.7538L4.59925 12.7104H1.45429C1.14704 12.7104 0.897949 12.4613 0.897949 12.154V3.84599C0.897949 3.53875 1.14704 3.28965 1.45429 3.28965H4.59925ZM4.19891 4.40234H2.01063V11.5977H4.19891V4.40234ZM10.1777 14.8034C10.5491 15.0295 11.0234 14.762 11.0234 14.3282V1.67189C11.0234 1.23713 10.5484 0.971009 10.1777 1.19666L5.31159 4.15866V11.8414L10.1777 14.8034ZM13.7188 7.34433C13.5015 7.12706 13.5015 6.77482 13.7188 6.55755C13.936 6.34028 14.2883 6.34028 14.5056 6.55755C15.3009 7.3529 15.3009 8.64706 14.5056 9.4424C14.2883 9.65971 13.936 9.65967 13.7188 9.4424C13.5015 9.22513 13.5015 8.8729 13.7188 8.65563C14.0812 8.29323 14.0811 7.70673 13.7188 7.34433Z" fill="#009DAB"/>
</svg>
