<svg width="20" height="25" viewBox="0 0 20 25" fill="none" xmlns="http://www.w3.org/2000/svg">
<path fill-rule="evenodd" clip-rule="evenodd" d="M3.77672 6.37483H18.3942C18.76 6.37483 19.0517 6.67792 19.0566 7.04667V23.8526C19.0566 24.2213 18.765 24.5244 18.3992 24.5244H3.77672C1.69557 24.5244 0 22.7918 0 20.6652V3.85925C0 1.73262 1.69557 0 3.77672 0H18.3992C18.76 0 19.0566 0.298031 19.0566 0.671833C19.0566 1.04058 18.765 1.34367 18.3992 1.34367H3.77672C2.4173 1.34367 1.31493 2.47517 1.31493 3.85925C1.31493 5.24838 2.42224 6.37483 3.77672 6.37483ZM3.77672 23.1808H17.7368V7.72355H3.77672C2.83749 7.72355 1.97734 7.36995 1.31493 6.78905V20.6652C1.31493 22.0543 2.42224 23.1808 3.77672 23.1808ZM3.32678 3.91986C3.32678 3.55111 3.61844 3.24803 3.98425 3.24803H16.3328C16.6936 3.24803 16.9902 3.55111 16.9902 3.91986C16.9902 4.28861 16.6986 4.59169 16.3328 4.59169H3.98425C3.62338 4.59169 3.32678 4.28861 3.32678 3.91986Z" fill="#677787"/>
</svg>
