<svg width="23" height="24" viewBox="0 0 23 24" fill="none" xmlns="http://www.w3.org/2000/svg">
<mask id="path-1-outside-1" maskUnits="userSpaceOnUse" x="0" y="-0.25" width="23" height="24" fill="black">
<rect fill="white" y="-0.25" width="23" height="24"/>
<path fill-rule="evenodd" clip-rule="evenodd" d="M18.1379 12.8086V4.53662C18.1376 3.21477 17.0661 2.1435 15.7444 2.14306H13.7816V1.22871C13.7816 0.964224 13.5674 0.75 13.3029 0.75C13.0386 0.75 12.8242 0.964224 12.8242 1.22871V2.14306H6.31372V1.22871C6.31372 0.964224 6.09949 0.75 5.835 0.75C5.57066 0.75 5.35629 0.964224 5.35629 1.22871V2.14306H3.39357C2.07187 2.1435 1.0006 3.21477 1 4.53662V17.505C1.0006 18.8267 2.07187 19.8979 3.39357 19.8985H12.2547C13.1758 22.2577 15.6459 23.6271 18.1348 23.1586C20.6237 22.6902 22.4269 20.5164 22.4274 17.9837C22.432 15.413 20.5794 13.2684 18.1379 12.8086ZM3.3985 3.10048H5.36123V4.01482C5.36123 4.27916 5.57545 4.49354 5.83994 4.49354C6.10428 4.49354 6.31865 4.27916 6.31865 4.01482V3.10048H12.8292V4.01482C12.8292 4.27916 13.0434 4.49354 13.3079 4.49354C13.5722 4.49354 13.7866 4.27916 13.7866 4.01482V3.10048H15.7493C16.5414 3.10273 17.1831 3.74435 17.1854 4.53662V5.69511H1.96236V4.53662C1.96296 3.7436 2.60563 3.10108 3.3985 3.10048ZM3.3985 18.9411C2.60623 18.9389 1.96461 18.2971 1.96236 17.505V6.64775H17.1805V12.7178H17.1661C15.6027 12.7202 14.1209 13.416 13.1207 14.6179C12.1204 15.8196 11.7051 17.4032 11.9865 18.9411H3.3985ZM17.1661 22.2921C14.7868 22.2921 12.8577 20.3632 12.8577 17.9837C12.8577 15.6042 14.7868 13.6753 17.1661 13.6753C19.5456 13.6753 21.4746 15.6042 21.4746 17.9837C21.471 20.3617 19.5442 22.2885 17.1661 22.2921ZM12.8053 11.7172H5.38521C5.12072 11.7172 4.90649 11.5028 4.90649 11.2385C4.90649 10.9741 5.12072 10.7598 5.38521 10.7598H12.8053C13.0696 10.7598 13.284 10.9741 13.284 11.2385C13.284 11.5028 13.0696 11.7172 12.8053 11.7172ZM5.38521 13.8716H9.8275C10.0918 13.8716 10.3062 14.0859 10.3062 14.3503C10.3062 14.6146 10.0918 14.829 9.8275 14.829H5.38521C5.12072 14.829 4.90649 14.6146 4.90649 14.3503C4.90649 14.0859 5.12072 13.8716 5.38521 13.8716ZM16.5392 18.9792L19.3826 16.2649C19.5742 16.0831 19.876 16.0875 20.0624 16.2745C20.1502 16.3657 20.1979 16.4882 20.1954 16.615C20.1925 16.7417 20.1396 16.8618 20.048 16.9493L16.8693 19.9891C16.7815 20.0762 16.6628 20.1244 16.5392 20.1233C16.4116 20.125 16.2889 20.0748 16.1991 19.9845L14.3946 18.1797C14.208 17.9933 14.208 17.6912 14.3946 17.5048C14.5809 17.3184 14.8831 17.3184 15.0694 17.5048L16.5392 18.9792Z"/>
</mask>
<path fill-rule="evenodd" clip-rule="evenodd" d="M18.1379 12.8086V4.53662C18.1376 3.21477 17.0661 2.1435 15.7444 2.14306H13.7816V1.22871C13.7816 0.964224 13.5674 0.75 13.3029 0.75C13.0386 0.75 12.8242 0.964224 12.8242 1.22871V2.14306H6.31372V1.22871C6.31372 0.964224 6.09949 0.75 5.835 0.75C5.57066 0.75 5.35629 0.964224 5.35629 1.22871V2.14306H3.39357C2.07187 2.1435 1.0006 3.21477 1 4.53662V17.505C1.0006 18.8267 2.07187 19.8979 3.39357 19.8985H12.2547C13.1758 22.2577 15.6459 23.6271 18.1348 23.1586C20.6237 22.6902 22.4269 20.5164 22.4274 17.9837C22.432 15.413 20.5794 13.2684 18.1379 12.8086ZM3.3985 3.10048H5.36123V4.01482C5.36123 4.27916 5.57545 4.49354 5.83994 4.49354C6.10428 4.49354 6.31865 4.27916 6.31865 4.01482V3.10048H12.8292V4.01482C12.8292 4.27916 13.0434 4.49354 13.3079 4.49354C13.5722 4.49354 13.7866 4.27916 13.7866 4.01482V3.10048H15.7493C16.5414 3.10273 17.1831 3.74435 17.1854 4.53662V5.69511H1.96236V4.53662C1.96296 3.7436 2.60563 3.10108 3.3985 3.10048ZM3.3985 18.9411C2.60623 18.9389 1.96461 18.2971 1.96236 17.505V6.64775H17.1805V12.7178H17.1661C15.6027 12.7202 14.1209 13.416 13.1207 14.6179C12.1204 15.8196 11.7051 17.4032 11.9865 18.9411H3.3985ZM17.1661 22.2921C14.7868 22.2921 12.8577 20.3632 12.8577 17.9837C12.8577 15.6042 14.7868 13.6753 17.1661 13.6753C19.5456 13.6753 21.4746 15.6042 21.4746 17.9837C21.471 20.3617 19.5442 22.2885 17.1661 22.2921ZM12.8053 11.7172H5.38521C5.12072 11.7172 4.90649 11.5028 4.90649 11.2385C4.90649 10.9741 5.12072 10.7598 5.38521 10.7598H12.8053C13.0696 10.7598 13.284 10.9741 13.284 11.2385C13.284 11.5028 13.0696 11.7172 12.8053 11.7172ZM5.38521 13.8716H9.8275C10.0918 13.8716 10.3062 14.0859 10.3062 14.3503C10.3062 14.6146 10.0918 14.829 9.8275 14.829H5.38521C5.12072 14.829 4.90649 14.6146 4.90649 14.3503C4.90649 14.0859 5.12072 13.8716 5.38521 13.8716ZM16.5392 18.9792L19.3826 16.2649C19.5742 16.0831 19.876 16.0875 20.0624 16.2745C20.1502 16.3657 20.1979 16.4882 20.1954 16.615C20.1925 16.7417 20.1396 16.8618 20.048 16.9493L16.8693 19.9891C16.7815 20.0762 16.6628 20.1244 16.5392 20.1233C16.4116 20.125 16.2889 20.0748 16.1991 19.9845L14.3946 18.1797C14.208 17.9933 14.208 17.6912 14.3946 17.5048C14.5809 17.3184 14.8831 17.3184 15.0694 17.5048L16.5392 18.9792Z" fill="white"/>
<path d="M18.1379 4.53662H18.3379V4.53658L18.1379 4.53662ZM18.1379 12.8086H17.9379V12.9745L18.1009 13.0052L18.1379 12.8086ZM15.7444 2.14306L15.7444 1.94306H15.7444V2.14306ZM13.7816 2.14306H13.5816V2.34306H13.7816V2.14306ZM12.8242 2.14306V2.34306H13.0242V2.14306H12.8242ZM6.31372 2.14306H6.11372V2.34306H6.31372V2.14306ZM5.35629 2.14306V2.34306H5.55629V2.14306H5.35629ZM3.39357 2.14306V1.94306H3.3935L3.39357 2.14306ZM1 4.53662L0.8 4.53653V4.53662H1ZM1 17.505H0.8L0.8 17.5051L1 17.505ZM3.39357 19.8985L3.39348 20.0985H3.39357V19.8985ZM12.2547 19.8985L12.441 19.8258L12.3913 19.6985H12.2547V19.8985ZM18.1348 23.1586L18.0978 22.962L18.0978 22.962L18.1348 23.1586ZM22.4274 17.9837L22.2274 17.9833V17.9836L22.4274 17.9837ZM5.36123 3.10048H5.56123V2.90048H5.36123V3.10048ZM3.3985 3.10048V2.90048H3.39835L3.3985 3.10048ZM6.31865 3.10048V2.90048H6.11865V3.10048H6.31865ZM12.8292 3.10048H13.0292V2.90048H12.8292V3.10048ZM13.7866 3.10048V2.90048H13.5866V3.10048H13.7866ZM15.7493 3.10048L15.7499 2.90048H15.7493V3.10048ZM17.1854 4.53662H17.3854L17.3854 4.53602L17.1854 4.53662ZM17.1854 5.69511V5.89511H17.3854V5.69511H17.1854ZM1.96236 5.69511H1.76236V5.89511H1.96236V5.69511ZM1.96236 4.53662L1.76236 4.53647V4.53662H1.96236ZM1.96236 17.505H1.76236L1.76236 17.5055L1.96236 17.505ZM3.3985 18.9411L3.39794 19.1411H3.3985V18.9411ZM1.96236 6.64775V6.44775H1.76236V6.64775H1.96236ZM17.1805 6.64775H17.3805V6.44775H17.1805V6.64775ZM17.1805 12.7178V12.9178H17.3805V12.7178H17.1805ZM17.1661 12.7178V12.5178H17.1658L17.1661 12.7178ZM13.1207 14.6179L13.2744 14.7458L13.2744 14.7458L13.1207 14.6179ZM11.9865 18.9411V19.1411H12.2264L12.1832 18.9051L11.9865 18.9411ZM17.1661 22.2921V22.4921L17.1664 22.4921L17.1661 22.2921ZM21.4746 17.9837L21.6746 17.984V17.9837H21.4746ZM19.3826 16.2649L19.245 16.1198L19.2445 16.1202L19.3826 16.2649ZM16.5392 18.9792L16.3975 19.1204L16.5357 19.259L16.6773 19.1239L16.5392 18.9792ZM20.0624 16.2745L20.2065 16.1358L20.204 16.1333L20.0624 16.2745ZM20.1954 16.615L20.3953 16.6194L20.3953 16.619L20.1954 16.615ZM20.048 16.9493L19.9098 16.8047L19.9098 16.8048L20.048 16.9493ZM16.8693 19.9891L16.7311 19.8446L16.7285 19.8471L16.8693 19.9891ZM16.5392 20.1233L16.5409 19.9233L16.5366 19.9233L16.5392 20.1233ZM16.1991 19.9845L16.341 19.8435L16.3406 19.8431L16.1991 19.9845ZM14.3946 18.1797L14.536 18.0383L14.5359 18.0383L14.3946 18.1797ZM14.3946 17.5048L14.5359 17.6462L14.536 17.6462L14.3946 17.5048ZM15.0694 17.5048L15.211 17.3636L15.2109 17.3634L15.0694 17.5048ZM17.9379 4.53662V12.8086H18.3379V4.53662H17.9379ZM15.7443 2.34306C16.9556 2.34347 17.9377 3.32527 17.9379 4.53667L18.3379 4.53658C18.3376 3.10428 17.1765 1.94354 15.7444 1.94306L15.7443 2.34306ZM13.7816 2.34306H15.7444V1.94306H13.7816V2.34306ZM13.5816 1.22871V2.14306H13.9816V1.22871H13.5816ZM13.3029 0.95C13.457 0.95 13.5816 1.07468 13.5816 1.22871H13.9816C13.9816 0.853767 13.6779 0.55 13.3029 0.55V0.95ZM13.0242 1.22871C13.0242 1.07472 13.149 0.95 13.3029 0.95V0.55C12.9282 0.55 12.6242 0.853727 12.6242 1.22871H13.0242ZM13.0242 2.14306V1.22871H12.6242V2.14306H13.0242ZM6.31372 2.34306H12.8242V1.94306H6.31372V2.34306ZM6.11372 1.22871V2.14306H6.51372V1.22871H6.11372ZM5.835 0.95C5.98904 0.95 6.11372 1.07468 6.11372 1.22871H6.51372C6.51372 0.853767 6.20995 0.55 5.835 0.55V0.95ZM5.55629 1.22871C5.55629 1.07472 5.68108 0.95 5.835 0.95V0.55C5.46025 0.55 5.15629 0.853727 5.15629 1.22871H5.55629ZM5.55629 2.14306V1.22871H5.15629V2.14306H5.55629ZM3.39357 2.34306H5.35629V1.94306H3.39357V2.34306ZM1.2 4.53671C1.20055 3.32524 2.18235 2.34347 3.39363 2.34306L3.3935 1.94306C1.96138 1.94354 0.800648 3.10431 0.8 4.53653L1.2 4.53671ZM1.2 17.505V4.53662H0.8V17.505H1.2ZM3.39366 19.6985C2.18235 19.698 1.20055 18.7162 1.2 17.5049L0.8 17.5051C0.800648 18.9371 1.96139 20.0979 3.39348 20.0985L3.39366 19.6985ZM12.2547 19.6985H3.39357V20.0985H12.2547V19.6985ZM18.0978 22.962C15.7034 23.4128 13.3271 22.0953 12.441 19.8258L12.0684 19.9713C13.0245 22.42 15.5884 23.8414 18.1718 23.3551L18.0978 22.962ZM22.2274 17.9836C22.2269 20.4202 20.4921 22.5114 18.0978 22.962L18.1718 23.3551C20.7552 22.8689 22.6269 20.6126 22.6274 17.9837L22.2274 17.9836ZM18.1009 13.0052C20.45 13.4475 22.2318 15.5113 22.2274 17.9833L22.6274 17.984C22.6322 15.3147 20.7087 13.0892 18.1749 12.6121L18.1009 13.0052ZM5.36123 2.90048H3.3985V3.30048H5.36123V2.90048ZM5.56123 4.01482V3.10048H5.16123V4.01482H5.56123ZM5.83994 4.29354C5.68595 4.29354 5.56123 4.16875 5.56123 4.01482H5.16123C5.16123 4.38958 5.46495 4.69354 5.83994 4.69354V4.29354ZM6.11865 4.01482C6.11865 4.16871 5.99382 4.29354 5.83994 4.29354V4.69354C6.21474 4.69354 6.51865 4.38962 6.51865 4.01482H6.11865ZM6.11865 3.10048V4.01482H6.51865V3.10048H6.11865ZM12.8292 2.90048H6.31865V3.30048H12.8292V2.90048ZM13.0292 4.01482V3.10048H12.6292V4.01482H13.0292ZM13.3079 4.29354C13.1539 4.29354 13.0292 4.16875 13.0292 4.01482H12.6292C12.6292 4.38958 12.9329 4.69354 13.3079 4.69354V4.29354ZM13.5866 4.01482C13.5866 4.16871 13.4617 4.29354 13.3079 4.29354V4.69354C13.6827 4.69354 13.9866 4.38962 13.9866 4.01482H13.5866ZM13.5866 3.10048V4.01482H13.9866V3.10048H13.5866ZM15.7493 2.90048H13.7866V3.30048H15.7493V2.90048ZM17.3854 4.53602C17.3827 3.63378 16.652 2.90304 15.7499 2.90048L15.7487 3.30048C16.4308 3.30241 16.9834 3.85492 16.9854 4.53723L17.3854 4.53602ZM17.3854 5.69511V4.53662H16.9854V5.69511H17.3854ZM1.96236 5.89511H17.1854V5.49511H1.96236V5.89511ZM1.76236 4.53662V5.69511H2.16236V4.53662H1.76236ZM3.39835 2.90048C2.49516 2.90116 1.76304 3.6331 1.76236 4.53647L2.16236 4.53677C2.16288 3.85411 2.71611 3.301 3.39865 3.30048L3.39835 2.90048ZM1.76236 17.5055C1.76492 18.4076 2.49564 19.1385 3.39794 19.1411L3.39907 18.7411C2.71683 18.7392 2.16429 18.1865 2.16236 17.5044L1.76236 17.5055ZM1.76236 6.64775V17.505H2.16236V6.64775H1.76236ZM17.1805 6.44775H1.96236V6.84775H17.1805V6.44775ZM17.3805 12.7178V6.64775H16.9805V12.7178H17.3805ZM17.1661 12.9178H17.1805V12.5178H17.1661V12.9178ZM13.2744 14.7458C14.2367 13.5895 15.6623 12.9201 17.1665 12.9178L17.1658 12.5178C15.5431 12.5203 14.0051 13.2425 12.967 14.4899L13.2744 14.7458ZM12.1832 18.9051C11.9125 17.4255 12.312 15.902 13.2744 14.7458L12.967 14.4899C11.9287 15.7372 11.4977 17.3809 11.7897 18.9771L12.1832 18.9051ZM3.3985 19.1411H11.9865V18.7411H3.3985V19.1411ZM12.6577 17.9837C12.6577 20.4736 14.6763 22.4921 17.1661 22.4921V22.0921C14.8972 22.0921 13.0577 20.2527 13.0577 17.9837H12.6577ZM17.1661 13.4753C14.6763 13.4753 12.6577 15.4937 12.6577 17.9837H13.0577C13.0577 15.7146 14.8972 13.8753 17.1661 13.8753V13.4753ZM21.6746 17.9837C21.6746 15.4937 19.6561 13.4753 17.1661 13.4753V13.8753C19.4352 13.8753 21.2746 15.7146 21.2746 17.9837H21.6746ZM17.1664 22.4921C19.6547 22.4883 21.6708 20.4722 21.6746 17.984L21.2746 17.9834C21.2711 20.2512 19.4336 22.0887 17.1658 22.0921L17.1664 22.4921ZM5.38521 11.9172H12.8053V11.5172H5.38521V11.9172ZM4.70649 11.2385C4.70649 11.6132 5.01022 11.9172 5.38521 11.9172V11.5172C5.23122 11.5172 5.10649 11.3924 5.10649 11.2385H4.70649ZM5.38521 10.5598C5.01022 10.5598 4.70649 10.8637 4.70649 11.2385H5.10649C5.10649 11.0846 5.23122 10.9598 5.38521 10.9598V10.5598ZM12.8053 10.5598H5.38521V10.9598H12.8053V10.5598ZM13.484 11.2385C13.484 10.8637 13.1801 10.5598 12.8053 10.5598V10.9598C12.9591 10.9598 13.084 11.0846 13.084 11.2385H13.484ZM12.8053 11.9172C13.1801 11.9172 13.484 11.6133 13.484 11.2385H13.084C13.084 11.3924 12.9591 11.5172 12.8053 11.5172V11.9172ZM9.8275 13.6716H5.38521V14.0716H9.8275V13.6716ZM10.5062 14.3503C10.5062 13.9755 10.2023 13.6716 9.8275 13.6716V14.0716C9.98139 14.0716 10.1062 14.1964 10.1062 14.3503H10.5062ZM9.8275 15.029C10.2023 15.029 10.5062 14.7251 10.5062 14.3503H10.1062C10.1062 14.5042 9.98139 14.629 9.8275 14.629V15.029ZM5.38521 15.029H9.8275V14.629H5.38521V15.029ZM4.70649 14.3503C4.70649 14.725 5.01023 15.029 5.38521 15.029V14.629C5.23121 14.629 5.10649 14.5042 5.10649 14.3503H4.70649ZM5.38521 13.6716C5.01023 13.6716 4.70649 13.9755 4.70649 14.3503H5.10649C5.10649 14.1964 5.23121 14.0716 5.38521 14.0716V13.6716ZM19.2445 16.1202L16.4011 18.8345L16.6773 19.1239L19.5207 16.4096L19.2445 16.1202ZM20.204 16.1333C19.941 15.8695 19.5154 15.8633 19.245 16.1198L19.5202 16.41C19.6331 16.303 19.8109 16.3055 19.9207 16.4157L20.204 16.1333ZM20.3953 16.619C20.3989 16.4394 20.3313 16.2655 20.2065 16.1358L19.9183 16.4131C19.9691 16.4659 19.9969 16.5371 19.9954 16.6109L20.3953 16.619ZM20.1862 17.0939C20.3161 16.9697 20.3913 16.7992 20.3953 16.6194L19.9954 16.6105C19.9938 16.6842 19.963 16.7539 19.9098 16.8047L20.1862 17.0939ZM17.0076 20.1337L20.1862 17.0938L19.9098 16.8048L16.7311 19.8446L17.0076 20.1337ZM16.5375 20.3233C16.7142 20.3248 16.8844 20.2559 17.0102 20.1311L16.7285 19.8471C16.6787 19.8965 16.6113 19.9239 16.5409 19.9233L16.5375 20.3233ZM16.0573 20.1254C16.1852 20.2543 16.3601 20.3256 16.5418 20.3233L16.5366 19.9233C16.4631 19.9243 16.3926 19.8954 16.341 19.8435L16.0573 20.1254ZM14.2531 18.3212L16.0577 20.1259L16.3406 19.8431L14.536 18.0383L14.2531 18.3212ZM14.2532 17.3633C13.9885 17.6278 13.9885 18.0567 14.2532 18.3212L14.5359 18.0383C14.4275 17.93 14.4275 17.7545 14.5359 17.6462L14.2532 17.3633ZM15.2109 17.3634C14.9465 17.0988 14.5176 17.0989 14.2531 17.3633L14.536 17.6462C14.6443 17.5379 14.8198 17.5379 14.9279 17.6461L15.2109 17.3634ZM16.6808 18.838L15.211 17.3636L14.9277 17.646L16.3975 19.1204L16.6808 18.838Z" fill="white" mask="url(#path-1-outside-1)"/>
</svg>
