<svg width="22" height="24" viewBox="0 0 22 24" fill="none" xmlns="http://www.w3.org/2000/svg">
<mask id="path-1-outside-1" maskUnits="userSpaceOnUse" x="-1" y="-0.25" width="23" height="24" fill="black">
<rect fill="white" x="-1" y="-0.25" width="23" height="24"/>
<path fill-rule="evenodd" clip-rule="evenodd" d="M17.1379 12.8086V4.53662C17.1376 3.21477 16.0661 2.1435 14.7444 2.14306H12.7816V1.22871C12.7816 0.964224 12.5674 0.75 12.3029 0.75C12.0386 0.75 11.8242 0.964224 11.8242 1.22871V2.14306H5.31372V1.22871C5.31372 0.964224 5.09949 0.75 4.835 0.75C4.57066 0.75 4.35629 0.964224 4.35629 1.22871V2.14306H2.39357C1.07187 2.1435 0.000598392 3.21477 0 4.53662V17.505C0.000598392 18.8267 1.07187 19.8979 2.39357 19.8985H11.2547C12.1758 22.2577 14.6459 23.6271 17.1348 23.1586C19.6237 22.6902 21.4269 20.5164 21.4274 17.9837C21.432 15.413 19.5794 13.2684 17.1379 12.8086ZM2.3985 3.10048H4.36123V4.01482C4.36123 4.27916 4.57545 4.49354 4.83994 4.49354C5.10428 4.49354 5.31865 4.27916 5.31865 4.01482V3.10048H11.8292V4.01482C11.8292 4.27916 12.0434 4.49354 12.3079 4.49354C12.5722 4.49354 12.7866 4.27916 12.7866 4.01482V3.10048H14.7493C15.5414 3.10273 16.1831 3.74435 16.1854 4.53662V5.69511H0.962363V4.53662C0.962962 3.7436 1.60563 3.10108 2.3985 3.10048ZM2.3985 18.9411C1.60623 18.9389 0.964607 18.2971 0.962363 17.505V6.64775H16.1805V12.7178H16.1661C14.6027 12.7202 13.1209 13.416 12.1207 14.6179C11.1204 15.8196 10.7051 17.4032 10.9865 18.9411H2.3985ZM16.1661 22.2921C13.7868 22.2921 11.8577 20.3632 11.8577 17.9837C11.8577 15.6042 13.7868 13.6753 16.1661 13.6753C18.5456 13.6753 20.4746 15.6042 20.4746 17.9837C20.471 20.3617 18.5442 22.2885 16.1661 22.2921ZM11.8053 11.7172H4.38521C4.12072 11.7172 3.90649 11.5028 3.90649 11.2385C3.90649 10.9741 4.12072 10.7598 4.38521 10.7598H11.8053C12.0696 10.7598 12.284 10.9741 12.284 11.2385C12.284 11.5028 12.0696 11.7172 11.8053 11.7172ZM4.38521 13.8716H8.8275C9.09184 13.8716 9.30622 14.0859 9.30622 14.3503C9.30622 14.6146 9.09184 14.829 8.8275 14.829H4.38521C4.12072 14.829 3.90649 14.6146 3.90649 14.3503C3.90649 14.0859 4.12072 13.8716 4.38521 13.8716ZM15.5392 18.9792L18.3826 16.2649C18.5742 16.0831 18.876 16.0875 19.0624 16.2745C19.1502 16.3657 19.1979 16.4882 19.1954 16.615C19.1925 16.7417 19.1396 16.8618 19.048 16.9493L15.8693 19.9891C15.7815 20.0762 15.6628 20.1244 15.5392 20.1233C15.4116 20.125 15.2889 20.0748 15.1991 19.9845L13.3946 18.1797C13.208 17.9933 13.208 17.6912 13.3946 17.5048C13.5809 17.3184 13.8831 17.3184 14.0694 17.5048L15.5392 18.9792Z"/>
</mask>
<path fill-rule="evenodd" clip-rule="evenodd" d="M17.1379 12.8086V4.53662C17.1376 3.21477 16.0661 2.1435 14.7444 2.14306H12.7816V1.22871C12.7816 0.964224 12.5674 0.75 12.3029 0.75C12.0386 0.75 11.8242 0.964224 11.8242 1.22871V2.14306H5.31372V1.22871C5.31372 0.964224 5.09949 0.75 4.835 0.75C4.57066 0.75 4.35629 0.964224 4.35629 1.22871V2.14306H2.39357C1.07187 2.1435 0.000598392 3.21477 0 4.53662V17.505C0.000598392 18.8267 1.07187 19.8979 2.39357 19.8985H11.2547C12.1758 22.2577 14.6459 23.6271 17.1348 23.1586C19.6237 22.6902 21.4269 20.5164 21.4274 17.9837C21.432 15.413 19.5794 13.2684 17.1379 12.8086ZM2.3985 3.10048H4.36123V4.01482C4.36123 4.27916 4.57545 4.49354 4.83994 4.49354C5.10428 4.49354 5.31865 4.27916 5.31865 4.01482V3.10048H11.8292V4.01482C11.8292 4.27916 12.0434 4.49354 12.3079 4.49354C12.5722 4.49354 12.7866 4.27916 12.7866 4.01482V3.10048H14.7493C15.5414 3.10273 16.1831 3.74435 16.1854 4.53662V5.69511H0.962363V4.53662C0.962962 3.7436 1.60563 3.10108 2.3985 3.10048ZM2.3985 18.9411C1.60623 18.9389 0.964607 18.2971 0.962363 17.505V6.64775H16.1805V12.7178H16.1661C14.6027 12.7202 13.1209 13.416 12.1207 14.6179C11.1204 15.8196 10.7051 17.4032 10.9865 18.9411H2.3985ZM16.1661 22.2921C13.7868 22.2921 11.8577 20.3632 11.8577 17.9837C11.8577 15.6042 13.7868 13.6753 16.1661 13.6753C18.5456 13.6753 20.4746 15.6042 20.4746 17.9837C20.471 20.3617 18.5442 22.2885 16.1661 22.2921ZM11.8053 11.7172H4.38521C4.12072 11.7172 3.90649 11.5028 3.90649 11.2385C3.90649 10.9741 4.12072 10.7598 4.38521 10.7598H11.8053C12.0696 10.7598 12.284 10.9741 12.284 11.2385C12.284 11.5028 12.0696 11.7172 11.8053 11.7172ZM4.38521 13.8716H8.8275C9.09184 13.8716 9.30622 14.0859 9.30622 14.3503C9.30622 14.6146 9.09184 14.829 8.8275 14.829H4.38521C4.12072 14.829 3.90649 14.6146 3.90649 14.3503C3.90649 14.0859 4.12072 13.8716 4.38521 13.8716ZM15.5392 18.9792L18.3826 16.2649C18.5742 16.0831 18.876 16.0875 19.0624 16.2745C19.1502 16.3657 19.1979 16.4882 19.1954 16.615C19.1925 16.7417 19.1396 16.8618 19.048 16.9493L15.8693 19.9891C15.7815 20.0762 15.6628 20.1244 15.5392 20.1233C15.4116 20.125 15.2889 20.0748 15.1991 19.9845L13.3946 18.1797C13.208 17.9933 13.208 17.6912 13.3946 17.5048C13.5809 17.3184 13.8831 17.3184 14.0694 17.5048L15.5392 18.9792Z" fill="#677787"/>
<path d="M17.1379 4.53662H17.3379V4.53658L17.1379 4.53662ZM17.1379 12.8086H16.9379V12.9745L17.1009 13.0052L17.1379 12.8086ZM14.7444 2.14306L14.7444 1.94306H14.7444V2.14306ZM12.7816 2.14306H12.5816V2.34306H12.7816V2.14306ZM11.8242 2.14306V2.34306H12.0242V2.14306H11.8242ZM5.31372 2.14306H5.11372V2.34306H5.31372V2.14306ZM4.35629 2.14306V2.34306H4.55629V2.14306H4.35629ZM2.39357 2.14306V1.94306H2.3935L2.39357 2.14306ZM0 4.53662L-0.2 4.53653V4.53662H0ZM0 17.505H-0.2L-0.2 17.5051L0 17.505ZM2.39357 19.8985L2.39348 20.0985H2.39357V19.8985ZM11.2547 19.8985L11.441 19.8258L11.3913 19.6985H11.2547V19.8985ZM17.1348 23.1586L17.0978 22.962L17.0978 22.962L17.1348 23.1586ZM21.4274 17.9837L21.2274 17.9833V17.9836L21.4274 17.9837ZM4.36123 3.10048H4.56123V2.90048H4.36123V3.10048ZM2.3985 3.10048V2.90048H2.39835L2.3985 3.10048ZM5.31865 3.10048V2.90048H5.11865V3.10048H5.31865ZM11.8292 3.10048H12.0292V2.90048H11.8292V3.10048ZM12.7866 3.10048V2.90048H12.5866V3.10048H12.7866ZM14.7493 3.10048L14.7499 2.90048H14.7493V3.10048ZM16.1854 4.53662H16.3854L16.3854 4.53602L16.1854 4.53662ZM16.1854 5.69511V5.89511H16.3854V5.69511H16.1854ZM0.962363 5.69511H0.762363V5.89511H0.962363V5.69511ZM0.962363 4.53662L0.762363 4.53647V4.53662H0.962363ZM0.962363 17.505H0.762362L0.762364 17.5055L0.962363 17.505ZM2.3985 18.9411L2.39794 19.1411H2.3985V18.9411ZM0.962363 6.64775V6.44775H0.762363V6.64775H0.962363ZM16.1805 6.64775H16.3805V6.44775H16.1805V6.64775ZM16.1805 12.7178V12.9178H16.3805V12.7178H16.1805ZM16.1661 12.7178V12.5178H16.1658L16.1661 12.7178ZM12.1207 14.6179L12.2744 14.7458L12.2744 14.7458L12.1207 14.6179ZM10.9865 18.9411V19.1411H11.2264L11.1832 18.9051L10.9865 18.9411ZM16.1661 22.2921V22.4921L16.1664 22.4921L16.1661 22.2921ZM20.4746 17.9837L20.6746 17.984V17.9837H20.4746ZM18.3826 16.2649L18.245 16.1198L18.2445 16.1202L18.3826 16.2649ZM15.5392 18.9792L15.3975 19.1204L15.5357 19.259L15.6773 19.1239L15.5392 18.9792ZM19.0624 16.2745L19.2065 16.1358L19.204 16.1333L19.0624 16.2745ZM19.1954 16.615L19.3953 16.6194L19.3953 16.619L19.1954 16.615ZM19.048 16.9493L18.9098 16.8047L18.9098 16.8048L19.048 16.9493ZM15.8693 19.9891L15.7311 19.8446L15.7285 19.8471L15.8693 19.9891ZM15.5392 20.1233L15.5409 19.9233L15.5366 19.9233L15.5392 20.1233ZM15.1991 19.9845L15.341 19.8435L15.3406 19.8431L15.1991 19.9845ZM13.3946 18.1797L13.536 18.0383L13.5359 18.0383L13.3946 18.1797ZM13.3946 17.5048L13.5359 17.6462L13.536 17.6462L13.3946 17.5048ZM14.0694 17.5048L14.211 17.3636L14.2109 17.3634L14.0694 17.5048ZM16.9379 4.53662V12.8086H17.3379V4.53662H16.9379ZM14.7443 2.34306C15.9556 2.34347 16.9377 3.32527 16.9379 4.53667L17.3379 4.53658C17.3376 3.10428 16.1765 1.94354 14.7444 1.94306L14.7443 2.34306ZM12.7816 2.34306H14.7444V1.94306H12.7816V2.34306ZM12.5816 1.22871V2.14306H12.9816V1.22871H12.5816ZM12.3029 0.95C12.457 0.95 12.5816 1.07468 12.5816 1.22871H12.9816C12.9816 0.853767 12.6779 0.55 12.3029 0.55V0.95ZM12.0242 1.22871C12.0242 1.07472 12.149 0.95 12.3029 0.95V0.55C11.9282 0.55 11.6242 0.853727 11.6242 1.22871H12.0242ZM12.0242 2.14306V1.22871H11.6242V2.14306H12.0242ZM5.31372 2.34306H11.8242V1.94306H5.31372V2.34306ZM5.11372 1.22871V2.14306H5.51372V1.22871H5.11372ZM4.835 0.95C4.98904 0.95 5.11372 1.07468 5.11372 1.22871H5.51372C5.51372 0.853767 5.20995 0.55 4.835 0.55V0.95ZM4.55629 1.22871C4.55629 1.07472 4.68108 0.95 4.835 0.95V0.55C4.46025 0.55 4.15629 0.853727 4.15629 1.22871H4.55629ZM4.55629 2.14306V1.22871H4.15629V2.14306H4.55629ZM2.39357 2.34306H4.35629V1.94306H2.39357V2.34306ZM0.2 4.53671C0.200548 3.32524 1.18235 2.34347 2.39363 2.34306L2.3935 1.94306C0.961384 1.94354 -0.199352 3.10431 -0.2 4.53653L0.2 4.53671ZM0.2 17.505V4.53662H-0.2V17.505H0.2ZM2.39366 19.6985C1.18235 19.698 0.200548 18.7162 0.2 17.5049L-0.2 17.5051C-0.199352 18.9371 0.961392 20.0979 2.39348 20.0985L2.39366 19.6985ZM11.2547 19.6985H2.39357V20.0985H11.2547V19.6985ZM17.0978 22.962C14.7034 23.4128 12.3271 22.0953 11.441 19.8258L11.0684 19.9713C12.0245 22.42 14.5884 23.8414 17.1718 23.3551L17.0978 22.962ZM21.2274 17.9836C21.2269 20.4202 19.4921 22.5114 17.0978 22.962L17.1718 23.3551C19.7552 22.8689 21.6269 20.6126 21.6274 17.9837L21.2274 17.9836ZM17.1009 13.0052C19.45 13.4475 21.2318 15.5113 21.2274 17.9833L21.6274 17.984C21.6322 15.3147 19.7087 13.0892 17.1749 12.6121L17.1009 13.0052ZM4.36123 2.90048H2.3985V3.30048H4.36123V2.90048ZM4.56123 4.01482V3.10048H4.16123V4.01482H4.56123ZM4.83994 4.29354C4.68595 4.29354 4.56123 4.16875 4.56123 4.01482H4.16123C4.16123 4.38958 4.46495 4.69354 4.83994 4.69354V4.29354ZM5.11865 4.01482C5.11865 4.16871 4.99382 4.29354 4.83994 4.29354V4.69354C5.21474 4.69354 5.51865 4.38962 5.51865 4.01482H5.11865ZM5.11865 3.10048V4.01482H5.51865V3.10048H5.11865ZM11.8292 2.90048H5.31865V3.30048H11.8292V2.90048ZM12.0292 4.01482V3.10048H11.6292V4.01482H12.0292ZM12.3079 4.29354C12.1539 4.29354 12.0292 4.16875 12.0292 4.01482H11.6292C11.6292 4.38958 11.9329 4.69354 12.3079 4.69354V4.29354ZM12.5866 4.01482C12.5866 4.16871 12.4617 4.29354 12.3079 4.29354V4.69354C12.6827 4.69354 12.9866 4.38962 12.9866 4.01482H12.5866ZM12.5866 3.10048V4.01482H12.9866V3.10048H12.5866ZM14.7493 2.90048H12.7866V3.30048H14.7493V2.90048ZM16.3854 4.53602C16.3827 3.63378 15.652 2.90304 14.7499 2.90048L14.7487 3.30048C15.4308 3.30241 15.9834 3.85492 15.9854 4.53723L16.3854 4.53602ZM16.3854 5.69511V4.53662H15.9854V5.69511H16.3854ZM0.962363 5.89511H16.1854V5.49511H0.962363V5.89511ZM0.762363 4.53662V5.69511H1.16236V4.53662H0.762363ZM2.39835 2.90048C1.49516 2.90116 0.763045 3.6331 0.762363 4.53647L1.16236 4.53677C1.16288 3.85411 1.71611 3.301 2.39865 3.30048L2.39835 2.90048ZM0.762364 17.5055C0.76492 18.4076 1.49564 19.1385 2.39794 19.1411L2.39907 18.7411C1.71683 18.7392 1.16429 18.1865 1.16236 17.5044L0.762364 17.5055ZM0.762363 6.64775V17.505H1.16236V6.64775H0.762363ZM16.1805 6.44775H0.962363V6.84775H16.1805V6.44775ZM16.3805 12.7178V6.64775H15.9805V12.7178H16.3805ZM16.1661 12.9178H16.1805V12.5178H16.1661V12.9178ZM12.2744 14.7458C13.2367 13.5895 14.6623 12.9201 16.1665 12.9178L16.1658 12.5178C14.5431 12.5203 13.0051 13.2425 11.967 14.4899L12.2744 14.7458ZM11.1832 18.9051C10.9125 17.4255 11.312 15.902 12.2744 14.7458L11.967 14.4899C10.9287 15.7372 10.4977 17.3809 10.7897 18.9771L11.1832 18.9051ZM2.3985 19.1411H10.9865V18.7411H2.3985V19.1411ZM11.6577 17.9837C11.6577 20.4736 13.6763 22.4921 16.1661 22.4921V22.0921C13.8972 22.0921 12.0577 20.2527 12.0577 17.9837H11.6577ZM16.1661 13.4753C13.6763 13.4753 11.6577 15.4937 11.6577 17.9837H12.0577C12.0577 15.7146 13.8972 13.8753 16.1661 13.8753V13.4753ZM20.6746 17.9837C20.6746 15.4937 18.6561 13.4753 16.1661 13.4753V13.8753C18.4352 13.8753 20.2746 15.7146 20.2746 17.9837H20.6746ZM16.1664 22.4921C18.6547 22.4883 20.6708 20.4722 20.6746 17.984L20.2746 17.9834C20.2711 20.2512 18.4336 22.0887 16.1658 22.0921L16.1664 22.4921ZM4.38521 11.9172H11.8053V11.5172H4.38521V11.9172ZM3.70649 11.2385C3.70649 11.6132 4.01022 11.9172 4.38521 11.9172V11.5172C4.23122 11.5172 4.10649 11.3924 4.10649 11.2385H3.70649ZM4.38521 10.5598C4.01022 10.5598 3.70649 10.8637 3.70649 11.2385H4.10649C4.10649 11.0846 4.23122 10.9598 4.38521 10.9598V10.5598ZM11.8053 10.5598H4.38521V10.9598H11.8053V10.5598ZM12.484 11.2385C12.484 10.8637 12.1801 10.5598 11.8053 10.5598V10.9598C11.9591 10.9598 12.084 11.0846 12.084 11.2385H12.484ZM11.8053 11.9172C12.1801 11.9172 12.484 11.6133 12.484 11.2385H12.084C12.084 11.3924 11.9591 11.5172 11.8053 11.5172V11.9172ZM8.8275 13.6716H4.38521V14.0716H8.8275V13.6716ZM9.50622 14.3503C9.50622 13.9755 9.20229 13.6716 8.8275 13.6716V14.0716C8.98139 14.0716 9.10622 14.1964 9.10622 14.3503H9.50622ZM8.8275 15.029C9.20229 15.029 9.50622 14.7251 9.50622 14.3503H9.10622C9.10622 14.5042 8.98139 14.629 8.8275 14.629V15.029ZM4.38521 15.029H8.8275V14.629H4.38521V15.029ZM3.70649 14.3503C3.70649 14.725 4.01023 15.029 4.38521 15.029V14.629C4.23121 14.629 4.10649 14.5042 4.10649 14.3503H3.70649ZM4.38521 13.6716C4.01023 13.6716 3.70649 13.9755 3.70649 14.3503H4.10649C4.10649 14.1964 4.23121 14.0716 4.38521 14.0716V13.6716ZM18.2445 16.1202L15.4011 18.8345L15.6773 19.1239L18.5207 16.4096L18.2445 16.1202ZM19.204 16.1333C18.941 15.8695 18.5154 15.8633 18.245 16.1198L18.5202 16.41C18.6331 16.303 18.8109 16.3055 18.9207 16.4157L19.204 16.1333ZM19.3953 16.619C19.3989 16.4394 19.3313 16.2655 19.2065 16.1358L18.9183 16.4131C18.9691 16.4659 18.9969 16.5371 18.9954 16.6109L19.3953 16.619ZM19.1862 17.0939C19.3161 16.9697 19.3913 16.7992 19.3953 16.6194L18.9954 16.6105C18.9938 16.6842 18.963 16.7539 18.9098 16.8047L19.1862 17.0939ZM16.0076 20.1337L19.1862 17.0938L18.9098 16.8048L15.7311 19.8446L16.0076 20.1337ZM15.5375 20.3233C15.7142 20.3248 15.8844 20.2559 16.0102 20.1311L15.7285 19.8471C15.6787 19.8965 15.6113 19.9239 15.5409 19.9233L15.5375 20.3233ZM15.0573 20.1254C15.1852 20.2543 15.3601 20.3256 15.5418 20.3233L15.5366 19.9233C15.4631 19.9243 15.3926 19.8954 15.341 19.8435L15.0573 20.1254ZM13.2531 18.3212L15.0577 20.1259L15.3406 19.8431L13.536 18.0383L13.2531 18.3212ZM13.2532 17.3633C12.9885 17.6278 12.9885 18.0567 13.2532 18.3212L13.5359 18.0383C13.4275 17.93 13.4275 17.7545 13.5359 17.6462L13.2532 17.3633ZM14.2109 17.3634C13.9465 17.0988 13.5176 17.0989 13.2531 17.3633L13.536 17.6462C13.6443 17.5379 13.8198 17.5379 13.9279 17.6461L14.2109 17.3634ZM15.6808 18.838L14.211 17.3636L13.9277 17.646L15.3975 19.1204L15.6808 18.838Z" fill="#677787" mask="url(#path-1-outside-1)"/>
</svg>
