<svg width="17" height="12" viewBox="0 0 17 12" fill="none" xmlns="http://www.w3.org/2000/svg">
<path d="M15.4036 1.23191L15.4036 1.23197C15.8234 1.48387 16.0803 1.90745 16.0804 2.37756L15.4036 1.23191ZM15.4036 1.23191L15.4003 1.23009C14.9788 0.998261 14.4888 0.996276 14.083 1.25193L11.6632 2.67423V2.55452C11.6632 1.67476 10.9509 0.9625 10.0712 0.9625H1.49202C0.612256 0.9625 -0.1 1.67476 -0.1 2.55452V9.44532C-0.1 10.3251 0.612256 11.0373 1.49202 11.0373H10.0908C10.9706 11.0373 11.6828 10.3251 11.6828 9.44532V9.26605L14.1228 10.6894C14.123 10.6895 14.1231 10.6896 14.1233 10.6897C14.3341 10.816 14.5675 10.8803 14.7828 10.8803C15.0182 10.8803 15.2299 10.8158 15.4361 10.7127L15.4362 10.7127L15.4396 10.7109C15.8666 10.476 16.1 10.0483 16.1 9.56311V9.56284L16.0804 2.37784L15.4036 1.23191ZM14.6183 9.85037L14.6174 9.84982L11.6828 8.13155V3.82851L14.5984 2.09073L14.5987 2.09058C14.7489 2.00044 14.8821 2.06032 14.9237 2.08804C14.9775 2.12396 15.0951 2.21565 15.0951 2.37784L15.0951 2.37811L15.1147 9.56311C15.1147 9.73891 15.0055 9.81158 14.9472 9.85032L14.9433 9.85291C14.9017 9.88063 14.7686 9.94051 14.6183 9.85037ZM10.6975 9.44532C10.6975 9.78273 10.4282 10.0521 10.0908 10.0521H1.49202C1.15461 10.0521 0.885276 9.78273 0.885276 9.44532V2.57416C0.885276 2.23675 1.15461 1.96741 1.49202 1.96741H10.0908C10.4282 1.96741 10.6975 2.23675 10.6975 2.57416V9.44532Z" fill="white" stroke="white" stroke-width="0.2"/>
</svg>
