<svg width="18" height="11" viewBox="0 0 18 11" fill="none" xmlns="http://www.w3.org/2000/svg">
<path d="M16.4036 0.836062L16.4036 0.836122C16.8234 1.08802 17.0803 1.51161 17.0804 1.98172L16.4036 0.836062ZM16.4036 0.836062L16.4003 0.83425C15.9788 0.602418 15.4888 0.600433 15.083 0.856083L12.6632 2.27839V2.15868C12.6632 1.27891 11.9509 0.566656 11.0712 0.566656H2.49202C1.61226 0.566656 0.9 1.27891 0.9 2.15868V9.04948C0.9 9.92925 1.61226 10.6415 2.49202 10.6415H11.0908C11.9706 10.6415 12.6828 9.92925 12.6828 9.04948V8.87021L15.1228 10.2935C15.123 10.2936 15.1231 10.2937 15.1233 10.2938C15.3341 10.4202 15.5675 10.4844 15.7828 10.4844C16.0182 10.4844 16.2299 10.42 16.4361 10.3168L16.4362 10.3169L16.4396 10.315C16.8666 10.0802 17.1 9.65248 17.1 9.16727V9.167L17.0804 1.98199L16.4036 0.836062ZM15.6183 9.45452L15.6174 9.45398L12.6828 7.73571V3.43267L15.5984 1.69489L15.5987 1.69474C15.7489 1.6046 15.8821 1.66448 15.9237 1.69219C15.9775 1.72811 16.0951 1.8198 16.0951 1.98199L16.0951 1.98227L16.1147 9.16727C16.1147 9.34307 16.0055 9.41573 15.9472 9.45447L15.9433 9.45707C15.9017 9.48479 15.7686 9.54467 15.6183 9.45452ZM11.6975 9.04948C11.6975 9.38689 11.4282 9.65623 11.0908 9.65623H2.49202C2.15461 9.65623 1.88528 9.38689 1.88528 9.04948V2.17831C1.88528 1.8409 2.15461 1.57156 2.49202 1.57156H11.0908C11.4282 1.57156 11.6975 1.8409 11.6975 2.17831V9.04948Z" fill="#677787" stroke="#677787" stroke-width="0.2"/>
</svg>
