<svg width="32" height="32" viewBox="0 0 32 32" fill="none" xmlns="http://www.w3.org/2000/svg">
<circle cx="16" cy="16" r="16" fill="#DCDFE5"/>
<path d="M23.4036 10.8361L23.4036 10.8361C23.8234 11.088 24.0803 11.5116 24.0804 11.9817L23.4036 10.8361ZM23.4036 10.8361L23.4003 10.8343C22.9788 10.6024 22.4888 10.6004 22.083 10.8561L19.6632 12.2784V12.1587C19.6632 11.2789 18.9509 10.5667 18.0712 10.5667H9.49202C8.61226 10.5667 7.9 11.2789 7.9 12.1587V19.0495C7.9 19.9293 8.61226 20.6415 9.49202 20.6415H18.0908C18.9706 20.6415 19.6828 19.9293 19.6828 19.0495V18.8702L22.1228 20.2935C22.123 20.2936 22.1231 20.2937 22.1233 20.2938C22.3341 20.4202 22.5675 20.4845 22.7828 20.4845C23.0182 20.4845 23.2299 20.42 23.4361 20.3168L23.4362 20.3169L23.4396 20.315C23.8666 20.0802 24.1 19.6525 24.1 19.1673V19.167L24.0804 11.982L23.4036 10.8361ZM22.6183 19.4545L22.6174 19.454L19.6828 17.7357V13.4327L22.5984 11.6949L22.5987 11.6947C22.7489 11.6046 22.8821 11.6645 22.9237 11.6922C22.9775 11.7281 23.0951 11.8198 23.0951 11.982L23.0951 11.9823L23.1147 19.1673C23.1147 19.3431 23.0055 19.4157 22.9472 19.4545L22.9433 19.4571C22.9017 19.4848 22.7686 19.5447 22.6183 19.4545ZM18.6975 19.0495C18.6975 19.3869 18.4282 19.6562 18.0908 19.6562H9.49202C9.15461 19.6562 8.88528 19.3869 8.88528 19.0495V12.1783C8.88528 11.8409 9.15461 11.5716 9.49202 11.5716H18.0908C18.4282 11.5716 18.6975 11.8409 18.6975 12.1783V19.0495Z" fill="#677787" stroke="#677787" stroke-width="0.2"/>
</svg>
