<svg width="18" height="12" viewBox="0 0 18 12" fill="none" xmlns="http://www.w3.org/2000/svg">
<path d="M16.4036 1.23191L16.4036 1.23197C16.8234 1.48387 17.0803 1.90745 17.0804 2.37756L16.4036 1.23191ZM16.4036 1.23191L16.4003 1.23009C15.9788 0.998261 15.4888 0.996276 15.083 1.25193L12.6632 2.67423V2.55452C12.6632 1.67476 11.9509 0.9625 11.0712 0.9625H2.49202C1.61226 0.9625 0.9 1.67476 0.9 2.55452V9.44532C0.9 10.3251 1.61226 11.0373 2.49202 11.0373H11.0908C11.9706 11.0373 12.6828 10.3251 12.6828 9.44532V9.26605L15.1228 10.6894C15.123 10.6895 15.1231 10.6896 15.1233 10.6897C15.3341 10.816 15.5675 10.8803 15.7828 10.8803C16.0182 10.8803 16.2299 10.8158 16.4361 10.7127L16.4362 10.7127L16.4396 10.7109C16.8666 10.476 17.1 10.0483 17.1 9.56311V9.56284L17.0804 2.37784L16.4036 1.23191ZM15.6183 9.85037L15.6174 9.84982L12.6828 8.13155V3.82851L15.5984 2.09073L15.5987 2.09058C15.7489 2.00044 15.8821 2.06032 15.9237 2.08804C15.9775 2.12396 16.0951 2.21565 16.0951 2.37784L16.0951 2.37811L16.1147 9.56311C16.1147 9.73891 16.0055 9.81158 15.9472 9.85032L15.9433 9.85291C15.9017 9.88063 15.7686 9.94051 15.6183 9.85037ZM11.6975 9.44532C11.6975 9.78273 11.4282 10.0521 11.0908 10.0521H2.49202C2.15461 10.0521 1.88528 9.78273 1.88528 9.44532V2.57416C1.88528 2.23675 2.15461 1.96741 2.49202 1.96741H11.0908C11.4282 1.96741 11.6975 2.23675 11.6975 2.57416V9.44532Z" fill="#009DAB" stroke="#009DAB" stroke-width="0.2"/>
</svg>
