<svg width="8" height="8" viewBox="0 0 8 8" fill="none" xmlns="http://www.w3.org/2000/svg">
<path d="M7.74191 6.46425C8.08603 6.80837 8.08603 7.36807 7.74191 7.71249C7.40044 8.05366 6.84074 8.05925 6.49368 7.71249L4.02956 5.24749L1.50632 7.71278C1.16221 8.0569 0.6025 8.0569 0.258088 7.71278C-0.0860294 7.36866 -0.0860294 6.80896 0.258088 6.46454L2.72279 3.99984L0.258088 1.53513C-0.0860294 1.19072 -0.0860294 0.631015 0.258088 0.286897C0.6025 -0.0572206 1.16221 -0.0572206 1.50632 0.286897L4.02956 2.75219L6.49368 0.286897C6.83721 -0.0566324 7.39691 -0.0578089 7.74191 0.286897C8.08603 0.631015 8.08603 1.19072 7.74191 1.53513L5.27721 3.99984L7.74191 6.46425Z" fill="#F42E4F"/>
</svg>
