<svg width="24" height="16" viewBox="0 0 24 16" fill="none" xmlns="http://www.w3.org/2000/svg">
<path d="M20.5555 0H3.44447C1.7751 0 0 0.907025 0 3.44447V12.5537C0 15.0911 1.78066 15.9981 3.44447 15.9981H20.5555C23.093 15.9981 24 14.2175 24 12.5537V3.43891C23.9944 0.901461 22.2193 0 20.5555 0ZM20.5555 14.8852H3.44447C2.5764 14.8852 1.11291 14.5847 1.11291 12.5537V8.17992H22.8815L22.8871 12.5537C22.8871 13.4217 22.5866 14.8852 20.5555 14.8852ZM1.11291 7.07257V4.55182H22.8815L22.8871 7.07257H1.11291ZM1.11291 3.43891C1.11291 1.4134 2.57083 1.10735 3.44447 1.10735H20.5555C21.4236 1.10735 22.8871 1.40784 22.8871 3.43891H1.11291Z" fill="#A6ACB9"/>
</svg>
