<svg width="164" height="164" viewBox="0 0 164 164" fill="none" xmlns="http://www.w3.org/2000/svg">
<mask id="mask0" mask-type="alpha" maskUnits="userSpaceOnUse" x="0" y="0" width="164" height="164">
<rect width="164" height="164" rx="82" fill="#010101"/>
</mask>
<g mask="url(#mask0)">
<rect x="-17.0835" y="-14.2505" width="194.75" height="183.898" rx="91.9492" fill="#8BEBEF"/>
<path fill-rule="evenodd" clip-rule="evenodd" d="M57.304 56.2054C57.304 42.064 69.6853 38.6431 76.4939 37.8309C79.3909 37.4854 82.3219 37.4854 85.2189 37.8309C92.0274 38.6431 104.408 42.0641 104.406 56.2054C104.406 75.7067 100.36 89.3038 80.8564 89.3038C61.3524 89.3038 57.304 75.7067 57.304 56.2054ZM123.342 133.338L126.81 173.141C127.032 175.685 127.363 178.219 127.488 180.769C127.798 187.096 127.215 199.457 118.5 203.355C116.484 204.257 114.054 204.287 112.372 205.717C111.069 206.825 109.829 208.787 109.829 212.246L106.848 297.931C106.846 298.001 106.843 298.07 106.838 298.14C106.769 299.135 105.972 306.941 97.9395 306.941H87.3378C85.9318 306.941 84.4304 307.082 83.2293 306.351C82.0789 305.651 80.8596 304.123 80.8596 300.789C80.8596 304.125 79.6381 305.653 78.4865 306.352C77.2854 307.082 75.7852 306.941 74.3801 306.941H63.7825C55.7504 306.941 54.9527 299.135 54.8836 298.14C54.8788 298.07 54.8764 298.001 54.874 297.931L51.8932 212.246C51.8932 208.788 50.6519 206.825 49.3481 205.718C47.6634 204.286 45.2317 204.257 43.2139 203.355C34.5056 199.459 33.9174 187.117 34.227 180.786C34.3522 178.225 34.6849 175.679 34.9073 173.125L38.3715 133.338C38.5586 131.856 38.7309 130.397 38.9001 128.965C40.6336 114.29 42.0389 102.395 55.6049 96.3503C60.3707 94.2271 71.5759 93.9517 77.3224 93.9591C79.6827 93.9621 82.0312 93.9621 84.3915 93.9591C90.1385 93.9517 101.345 94.227 106.109 96.3503C119.679 102.393 121.083 114.293 122.815 128.971C122.984 130.401 123.156 131.858 123.342 133.338Z" fill="#01BCCD"/>
</g>
</svg>
