<svg width="18" height="18" viewBox="0 0 18 18" fill="none" xmlns="http://www.w3.org/2000/svg">
<path d="M17.7563 5.56018C17.7563 4.37521 16.7926 3.41157 15.608 3.41157C14.4232 3.41157 13.4591 4.37524 13.4591 5.56015C13.4591 6.59108 14.1897 7.45419 15.1602 7.66086V11.7828C15.1602 14.2207 13.1766 16.2044 10.7387 16.2044C8.3008 16.2044 6.31716 14.2207 6.31716 11.7828V10.4339C6.95704 10.2707 7.52821 9.77 8.02412 9.09459C8.54205 8.38921 8.988 7.47961 9.35235 6.52152C10.0804 4.607 10.4909 2.47618 10.4909 1.34781C10.4909 1.10023 10.2906 0.9 10.0431 0.9H8.30368C8.0561 0.9 7.85587 1.10023 7.85587 1.34781C7.85587 1.59539 8.0561 1.79562 8.30368 1.79562H9.57663C9.48012 3.05214 9.01647 4.97408 8.34561 6.60134C8.00066 7.43808 7.60329 8.19099 7.17698 8.73378C6.74842 9.27944 6.30816 9.5908 5.87919 9.59562C5.8772 9.59548 5.87353 9.59526 5.8694 9.59526C5.86526 9.59526 5.8616 9.59548 5.8596 9.59562C5.43978 9.59069 4.987 9.25638 4.53174 8.67554C4.08014 8.09936 3.64634 7.30653 3.26182 6.44321C2.51876 4.77489 1.96928 2.86551 1.82989 1.79562H3.43434C3.68192 1.79562 3.88215 1.59539 3.88215 1.34781C3.88215 1.10023 3.68192 0.9 3.43434 0.9H1.34781C1.10022 0.9 0.9 1.1003 0.9 1.34781C0.9 1.78508 1.02785 2.5335 1.25523 3.413C1.48328 4.29513 1.81361 5.3173 2.2232 6.30487C2.63253 7.29181 3.12254 8.24791 3.67108 8.99557C4.19599 9.71104 4.7853 10.2505 5.42154 10.4281V11.7828C5.42154 14.7148 7.80675 17.1 10.7387 17.1C13.6706 17.1 16.0558 14.7148 16.0558 11.7828V7.66085C17.026 7.4541 17.756 6.59098 17.7563 5.56018ZM16.8607 5.56087C16.8607 6.24662 16.3075 6.80486 15.624 6.81347L15.6219 6.81332C15.6193 6.81314 15.6141 6.81278 15.608 6.81278C15.6023 6.81278 15.5974 6.81308 15.5945 6.81328L15.5917 6.81346C14.9077 6.80467 14.3547 6.24653 14.3547 5.56087C14.3547 4.86974 14.9169 4.30791 15.6081 4.30791C16.2985 4.30791 16.8607 4.8697 16.8607 5.56087Z" fill="#009DAB" stroke="#009DAB" stroke-width="0.2"/>
</svg>
