<svg width="184" height="588" viewBox="0 0 184 588" fill="none" xmlns="http://www.w3.org/2000/svg">
<rect width="184" height="588" fill="#E5E5E5"/>
<g clip-path="url(#clip0)">
<rect width="1440" height="1354" transform="translate(-846 -212)" fill="#F4F5F7"/>
<g filter="url(#filter0_d)">
<rect x="-28" y="-116" width="240" height="802" rx="4" fill="white"/>
<path d="M183.896 319.611C182.79 313.802 183.408 303.681 179.504 292.487C176.251 283.294 179.732 264.826 180.074 241.038C180.415 217.25 173.991 202.086 173.991 202.086C172.462 193.625 167.387 152.248 167.387 152.248C167.387 152.248 172.088 114.401 152.245 101.222C142.486 94.7134 135.98 97.9676 125.489 93.2002C114.998 88.4328 106.655 84.6579 106.476 82.5102C106.362 80.8831 106.329 75.172 106.329 72.113C108.494 69.3726 110.364 66.4111 111.908 63.2779C113.322 60.4271 114.266 57.3668 114.706 54.2149C116.657 53.5804 117.487 50.1472 117.959 47.2184C118.446 43.6225 121.325 40.287 119.878 35.666C118.999 32.8023 117.503 32.7047 116.527 33.0301C117.828 24.5204 117.601 12.7402 109.761 6.03658C102.653 -0.0813016 91.9675 5.4605e-05 91.9675 5.4605e-05C91.9675 5.4605e-05 81.2978 5.31464e-05 74.1739 6.03658C66.3505 12.7402 66.1228 24.5204 67.424 33.0301C66.4318 32.7047 64.9518 32.8023 64.0572 35.666C62.6259 40.287 65.5048 43.6225 65.9927 47.2184C66.3993 50.1472 67.2288 53.5641 69.2456 54.2149C69.6924 57.3651 70.6367 60.4242 72.0432 63.2779C73.5294 66.26 75.3054 69.0885 77.3455 71.7225C77.3455 74.9767 77.4268 80.4763 77.3455 81.9895C77.1828 84.1535 68.9854 88.3677 58.5109 93.2002C48.0364 98.0327 41.5793 94.6971 31.7554 101.222C11.9124 114.401 16.613 152.248 16.613 152.248C16.613 152.248 11.5384 193.625 10.0095 202.086C10.0095 202.086 3.60117 217.25 3.92646 241.038C4.25176 264.826 7.69987 283.343 4.49571 292.487C0.592176 303.681 1.24277 313.802 0.10424 319.611C-1.24573 326.672 10.8715 349.696 15.9136 346.198C19.1665 343.968 9.76549 330.171 10.7739 324.134C11.7823 318.098 14.775 309.864 16.3527 312.517C17.9304 315.169 17.9792 319.952 20.4352 323.337C22.8911 326.721 26.7459 326.103 24.3712 316.275C21.9966 306.448 23.7044 308.14 21.8502 302.071C19.996 296.002 17.8653 297.189 19.3129 287.589C20.7604 277.99 35.0246 241.217 35.8053 205.584C35.8053 205.584 45.3202 175.092 45.9708 170.064C45.9708 170.064 47.337 177.289 50.2322 188.337C51.2894 192.404 50.7689 198.099 50.3948 203.501C49.9231 210.367 49.1912 216.99 47.3045 222.017C44.9833 227.571 43.144 233.314 41.807 239.183C37.1716 256.577 37.7571 262.744 32.9915 301.566C29.95 326.379 30.9259 343.285 31.3651 356.888C32.0482 381.945 42.1811 390.113 40.2781 417.334C39.7089 425.47 37.2041 443.368 38.0173 463.56C38.8956 485.233 43.222 509.428 46.5075 525.634C50.5412 545.501 46.3286 547.014 46.1172 551.375C45.7431 558.615 46.5726 566.653 43.0269 570.46C39.4812 574.268 35.2523 576.481 36.6023 581.313C37.5782 584.779 54.0056 587.333 61.9428 587.35C70.742 587.35 71.2462 584.6 68.7089 575.456C66.1716 566.311 65.0819 562.634 66.3505 556.825C67.7005 550.626 65.1144 548.836 64.9355 539.188C64.7566 529.539 68.9529 516.408 74.1251 494.768C80.8749 466.489 71.2462 455.457 73.1004 422.687C73.5233 415.284 78.8093 398.118 81.3791 375.29C83.6399 355.277 87.5923 341.495 88.7308 327.356C90.3573 306.806 90.3573 305.276 92.1464 305.178C93.9355 305.081 93.9355 306.806 95.5782 327.356C96.7168 341.495 100.669 355.277 102.93 375.29C105.5 398.069 110.786 415.284 111.209 422.687C113.063 455.457 103.434 466.489 110.184 494.768C115.356 516.343 119.536 529.539 119.374 539.188C119.211 548.836 116.609 550.577 117.959 556.825C119.227 562.634 118.137 566.311 115.6 575.456C113.063 584.6 113.567 587.366 122.35 587.35C130.303 587.35 146.747 584.779 147.707 581.313C149.057 576.432 144.828 574.251 141.282 570.46C137.736 566.669 138.582 558.615 138.192 551.375C137.964 547.014 133.768 545.501 137.802 525.634C141.054 509.363 145.413 485.233 146.292 463.56C147.105 443.384 144.665 425.437 144.031 417.334C142.128 390.113 152.261 381.945 152.944 356.888C153.302 343.22 154.294 326.314 151.317 301.566C146.552 262.744 147.137 256.577 142.502 239.183C141.165 233.314 139.326 227.571 137.005 222.017C135.264 217.397 134.695 211.295 134.109 204.965C133.556 199.027 132.906 192.827 134.109 188.337C137.005 177.289 138.355 170.064 138.355 170.064C139.021 175.092 148.536 205.584 148.536 205.584C149.317 241.217 163.597 278.022 165.029 287.589C166.46 297.157 164.362 296.05 162.491 302.071C160.621 308.091 162.329 306.448 159.954 316.275C157.579 326.103 161.483 326.737 163.906 323.337C166.33 319.936 166.411 315.201 167.989 312.517C169.567 309.832 172.543 318.114 173.568 324.134C174.592 330.154 164.817 343.968 168.07 346.198C173.128 349.696 185.246 326.672 183.896 319.611Z" fill="#E6F8FA"/>
<circle cx="88" cy="21" r="8" fill="#8BEBEF"/>
<circle cx="88" cy="21" r="4" fill="#01BCCD"/>
<circle cx="100" cy="53" r="4" fill="#01BCCD"/>
<circle cx="92" cy="86" r="4" fill="#01BCCD"/>
<circle cx="146" cy="119" r="4" fill="#01BCCD"/>
<circle cx="114" cy="209" r="4" fill="#01BCCD"/>
<circle cx="118" cy="245" r="4" fill="#01BCCD"/>
<circle cx="48" cy="308" r="4" fill="#01BCCD"/>
<circle cx="48" cy="470" r="4" fill="#01BCCD"/>
</g>
</g>
<defs>
<filter id="filter0_d" x="-32" y="-116" width="248" height="810" filterUnits="userSpaceOnUse" color-interpolation-filters="sRGB">
<feFlood flood-opacity="0" result="BackgroundImageFix"/>
<feColorMatrix in="SourceAlpha" type="matrix" values="0 0 0 0 0 0 0 0 0 0 0 0 0 0 0 0 0 0 127 0"/>
<feOffset dy="4"/>
<feGaussianBlur stdDeviation="2"/>
<feColorMatrix type="matrix" values="0 0 0 0 0 0 0 0 0 0 0 0 0 0 0 0 0 0 0.03 0"/>
<feBlend mode="normal" in2="BackgroundImageFix" result="effect1_dropShadow"/>
<feBlend mode="normal" in="SourceGraphic" in2="effect1_dropShadow" result="shape"/>
</filter>
<clipPath id="clip0">
<rect width="1440" height="1354" fill="white" transform="translate(-846 -212)"/>
</clipPath>
</defs>
</svg>
