<svg width="18" height="17" viewBox="0 0 18 17" fill="none" xmlns="http://www.w3.org/2000/svg">
<path fill-rule="evenodd" clip-rule="evenodd" d="M16.5345 8.28805C16.398 8.28805 16.2615 8.23598 16.1574 8.13181L15.7346 7.70905V14.4893C15.7346 15.3348 15.0467 16.0227 14.2012 16.0227H10.6849C10.6791 16.0229 10.6733 16.023 10.6675 16.023H6.40056C6.39475 16.023 6.38896 16.0229 6.38319 16.0227H2.86704C2.02151 16.0227 1.33359 15.3348 1.33359 14.4893V7.70877L0.910523 8.13184C0.702241 8.34016 0.364518 8.34016 0.156236 8.13184C-0.0520787 7.92356 -0.0520787 7.58583 0.156236 7.37755L6.78964 0.744117C7.75144 -0.217684 9.31645 -0.217684 10.2782 0.744117L15.5735 6.03938L15.5832 6.04912L16.9116 7.37752C17.1199 7.58583 17.1199 7.92353 16.9116 8.13181C16.8075 8.23598 16.671 8.28805 16.5345 8.28805ZM10.1342 14.956H6.93393V10.756C6.93393 10.4251 7.20312 10.1559 7.53397 10.1559H9.53411C9.86497 10.1559 10.1342 10.4251 10.1342 10.756V14.956ZM11.2009 14.956V10.756C11.2009 9.83689 10.4532 9.08918 9.53411 9.08918H7.53397C6.61491 9.08918 5.86719 9.83689 5.86719 10.756V14.956H2.86704C2.60968 14.956 2.40034 14.7466 2.40034 14.4893V6.64203L7.54393 1.49844C8.08983 0.952532 8.97806 0.952532 9.52393 1.49844L14.6679 6.64232V14.4893C14.6679 14.7466 14.4585 14.956 14.2012 14.956H11.2009Z" fill="#677787"/>
</svg>
