<svg width="32" height="32" viewBox="0 0 32 32" fill="none" xmlns="http://www.w3.org/2000/svg">
<circle cx="16" cy="16" r="16" fill="#DCDFE5"/>
<path fill-rule="evenodd" clip-rule="evenodd" d="M24.5345 16.2881C24.398 16.2881 24.2615 16.236 24.1574 16.1318L23.7346 15.7091V22.4893C23.7346 23.3348 23.0467 24.0227 22.2012 24.0227H18.6849C18.6791 24.0229 18.6733 24.023 18.6675 24.023H14.4006C14.3947 24.023 14.389 24.0229 14.3832 24.0227H10.867C10.0215 24.0227 9.33359 23.3349 9.33359 22.4893V15.7088L8.91052 16.1319C8.70224 16.3402 8.36452 16.3402 8.15624 16.1319C7.94792 15.9236 7.94792 15.5859 8.15624 15.3776L14.7896 8.74413C15.7514 7.78233 17.3165 7.78233 18.2782 8.74413L23.5735 14.0394L23.5832 14.0491L24.9116 15.3775C25.1199 15.5859 25.1199 15.9235 24.9116 16.1318C24.8075 16.236 24.671 16.2881 24.5345 16.2881ZM18.1342 22.956H14.9339V18.756C14.9339 18.4251 15.2031 18.1559 15.534 18.1559H17.5341C17.865 18.1559 18.1342 18.4251 18.1342 18.756V22.956ZM19.2009 22.956V18.756C19.2009 17.8369 18.4532 17.0892 17.5341 17.0892H15.534C14.6149 17.0892 13.8672 17.8369 13.8672 18.756V22.956H10.867C10.6097 22.956 10.4003 22.7466 10.4003 22.4893V14.642L15.5439 9.49845C16.0898 8.95255 16.9781 8.95255 17.5239 9.49845L22.6679 14.6423V22.4893C22.6679 22.7466 22.4585 22.956 22.2012 22.956H19.2009Z" fill="#677787"/>
</svg>
