<svg width="18" height="16" viewBox="0 0 18 16" fill="none" xmlns="http://www.w3.org/2000/svg">
<path fill-rule="evenodd" clip-rule="evenodd" d="M17.4324 8.26529C17.2959 8.26529 17.1595 8.21321 17.0553 8.10904L16.6326 7.68629V14.4665C16.6326 15.312 15.9447 16 15.0991 16H11.5828C11.5771 16.0001 11.5713 16.0002 11.5655 16.0002H7.29851C7.2927 16.0002 7.2869 16.0001 7.28114 16H3.76498C2.91946 16 2.23154 15.3121 2.23154 14.4665V7.686L1.80847 8.10907C1.60019 8.31739 1.26247 8.31739 1.05419 8.10907C0.845871 7.90079 0.845871 7.56307 1.05419 7.35479L7.68759 0.721351C8.64939 -0.24045 10.2144 -0.24045 11.1762 0.721351L16.4714 6.01662L16.4812 6.02636L17.8096 7.35475C18.0179 7.56307 18.0179 7.90076 17.8096 8.10904C17.7055 8.21321 17.569 8.26529 17.4324 8.26529ZM11.0321 14.9332H7.83188V10.7332C7.83188 10.4023 8.10106 10.1332 8.43192 10.1332H10.4321C10.7629 10.1332 11.0321 10.4023 11.0321 10.7332V14.9332ZM12.0988 14.9332V10.7332C12.0988 9.81413 11.3511 9.06641 10.4321 9.06641H8.43192C7.51286 9.06641 6.76514 9.81413 6.76514 10.7332V14.9332H3.76498C3.50763 14.9332 3.29829 14.7239 3.29829 14.4665V6.61926L8.44188 1.47567C8.98778 0.929766 9.87601 0.929766 10.4219 1.47567L15.5658 6.61956V14.4665C15.5658 14.7239 15.3565 14.9332 15.0991 14.9332H12.0988Z" fill="#009DAB"/>
</svg>
