<svg width="74" height="17" viewBox="0 0 74 17" fill="none" xmlns="http://www.w3.org/2000/svg">
<path d="M0 6.15387C0.410256 9.12823 3.44615 15.7539 9.84615 16C9.74359 13.3334 7.13846 7.13848 0 6.15387Z" fill="#92ECF4"/>
<path d="M10.4616 0C8.64851 2.39328 6.11018 9.14661 10.4616 13.8462C12.2747 11.888 14.813 5.74388 10.4616 0Z" fill="#11CAE9"/>
<path d="M20.9231 6.15387C20.5128 9.12823 17.4769 15.7539 11.0769 16C11.1795 13.3334 13.7846 7.13848 20.9231 6.15387Z" fill="#00BECE"/>
<rect x="18" width="1" height="5" fill="#30AE71"/>
<rect x="21" y="2" width="1" height="5" transform="rotate(90 21 2)" fill="#30AE71"/>
<path d="M25.672 7.72801H26.984L29.16 14.368L31.384 7.69601H32.408L34.648 14.368L36.824 7.72801H38.104L35.192 16.064H34.12L31.896 9.53601L29.656 16.064H28.568L25.672 7.72801Z" fill="black"/>
<path d="M42.8612 15.184C43.2452 15.184 43.6026 15.1307 43.9332 15.024C44.2639 14.9173 44.5519 14.768 44.7972 14.576C45.0532 14.3733 45.2506 14.1387 45.3892 13.872C45.5386 13.5947 45.6132 13.2907 45.6132 12.96V12.192C45.3039 12.1067 44.9519 12.0267 44.5572 11.952C44.1626 11.8773 43.7092 11.84 43.1972 11.84C42.4292 11.84 41.8319 11.9947 41.4052 12.304C40.9892 12.6027 40.7812 13.0027 40.7812 13.504V13.536C40.7812 13.792 40.8346 14.0267 40.9412 14.24C41.0586 14.4427 41.2132 14.6133 41.4052 14.752C41.5972 14.8907 41.8159 14.9973 42.0612 15.072C42.3172 15.1467 42.5839 15.184 42.8612 15.184ZM42.6212 16.176C42.2372 16.176 41.8586 16.1227 41.4852 16.016C41.1119 15.9093 40.7812 15.7493 40.4932 15.536C40.2052 15.312 39.9706 15.04 39.7892 14.72C39.6186 14.4 39.5332 14.0267 39.5332 13.6V13.568C39.5332 13.12 39.6186 12.7307 39.7892 12.4C39.9599 12.0587 40.1999 11.776 40.5092 11.552C40.8292 11.328 41.2026 11.1573 41.6292 11.04C42.0666 10.9227 42.5466 10.864 43.0692 10.864C43.6026 10.864 44.0612 10.896 44.4452 10.96C44.8399 11.024 45.2239 11.1093 45.5972 11.216V10.96C45.5972 10.224 45.3839 9.66934 44.9572 9.29601C44.5306 8.91201 43.9279 8.72001 43.1492 8.72001C42.6586 8.72001 42.2106 8.77334 41.8052 8.88001C41.4106 8.98667 41.0212 9.13067 40.6372 9.31201L40.2692 8.30401C40.7279 8.09067 41.1919 7.92001 41.6612 7.79201C42.1306 7.66401 42.6692 7.60001 43.2772 7.60001C44.4506 7.60001 45.3412 7.90401 45.9492 8.51201C46.5252 9.08801 46.8132 9.89867 46.8132 10.944V16H45.5972V14.768C45.3092 15.1413 44.9199 15.472 44.4292 15.76C43.9492 16.0373 43.3466 16.176 42.6212 16.176Z" fill="black"/>
<path d="M48.9429 15.216L54.4309 8.76801H49.1349V7.72801H56.1109V8.51201L50.6069 14.96H56.1109V16H48.9429V15.216Z" fill="black"/>
<path d="M58.4255 7.72801H59.6575V16H58.4255V7.72801ZM58.3455 4.56001H59.7535V5.92001H58.3455V4.56001Z" fill="black"/>
<path d="M62.5166 4.32001H63.7486V12.384L68.2126 7.72801H69.7486L66.2766 11.28L69.8606 16H68.3886L65.4286 12.144L63.7486 13.84V16H62.5166V4.32001Z" fill="black"/>
<path d="M71.738 7.72801H72.97V16H71.738V7.72801ZM71.658 4.56001H73.066V5.92001H71.658V4.56001Z" fill="black"/>
</svg>
