<svg width="16" height="16" viewBox="0 0 16 16" fill="none" xmlns="http://www.w3.org/2000/svg">
<path d="M14.1458 7.6875H15.375C15.7202 7.6875 16 7.96731 16 8.3125C16 8.65769 15.7202 8.9375 15.375 8.9375H14.1458C13.8007 8.9375 13.5208 8.65769 13.5208 8.3125C13.5208 7.96731 13.8007 7.6875 14.1458 7.6875ZM0.625 8.9375H1.85416C2.19934 8.9375 2.47916 8.65769 2.47916 8.3125C2.47916 7.96731 2.19934 7.6875 1.85416 7.6875H0.625C0.279813 7.6875 0 7.96731 0 8.3125C0 8.65769 0.279813 8.9375 0.625 8.9375ZM8 2.79166C8.34519 2.79166 8.625 2.51184 8.625 2.16666V0.9375C8.625 0.592313 8.34519 0.3125 8 0.3125C7.65481 0.3125 7.375 0.592313 7.375 0.9375V2.16666C7.375 2.51184 7.65481 2.79166 8 2.79166ZM3.21228 4.40869C3.45631 4.65272 3.85209 4.65278 4.09619 4.40869C4.34028 4.16459 4.34028 3.76884 4.09619 3.52478L3.22706 2.65563C2.98297 2.41153 2.58722 2.41153 2.34316 2.65563C2.09909 2.89972 2.09906 3.29547 2.34316 3.53953L3.21228 4.40869ZM12.7877 4.40869L13.6569 3.53953C13.901 3.29544 13.901 2.89969 13.6569 2.65563C13.4128 2.41156 13.017 2.41153 12.773 2.65563L11.9038 3.52478C11.6597 3.76888 11.6597 4.16463 11.9038 4.40869C12.1478 4.65272 12.5436 4.65278 12.7877 4.40869ZM16 12C16 12.3452 15.7202 12.625 15.375 12.625C14.6448 12.625 0.775906 12.625 0.625 12.625C0.279813 12.625 0 12.3452 0 12C0 11.6548 0.279813 11.375 0.625 11.375H4.95944C4.17116 10.5923 3.68228 9.50847 3.68228 8.3125C3.68228 5.93169 5.61919 3.99478 8 3.99478C10.3808 3.99478 12.3177 5.93169 12.3177 8.3125C12.3177 9.50847 11.8288 10.5923 11.0406 11.375H15.375C15.7202 11.375 16 11.6548 16 12ZM7.82322 11.375H8.17681C9.78641 11.2831 11.0677 9.94469 11.0677 8.3125C11.0677 6.62094 9.69159 5.24478 8.00003 5.24478C6.30847 5.24478 4.93228 6.62094 4.93228 8.3125C4.93228 9.94469 6.21362 11.2831 7.82322 11.375ZM12.9167 14.4375H3.08334C2.73816 14.4375 2.45834 14.7173 2.45834 15.0625C2.45834 15.4077 2.73816 15.6875 3.08334 15.6875H12.9167C13.2618 15.6875 13.5417 15.4077 13.5417 15.0625C13.5417 14.7173 13.2618 14.4375 12.9167 14.4375Z" fill="#01BCCD"/>
</svg>
