<svg width="16" height="16" viewBox="0 0 16 16" fill="none" xmlns="http://www.w3.org/2000/svg">
<path d="M15.4119 6.24838L15.4118 6.24838C15.2362 6.24457 15.0838 6.36403 15.0447 6.53458L14.9473 6.51222L15.0447 6.53459C14.5574 8.65818 12.6924 10.1416 10.5104 10.1416C7.94518 10.1416 5.85834 8.05479 5.85834 5.48956C5.85834 3.30759 7.34179 1.44261 9.46542 0.955345C9.63578 0.916259 9.75529 0.76293 9.75165 0.588207C9.74798 0.413489 9.62211 0.265291 9.45027 0.233382C8.97356 0.144877 8.4856 0.1 8 0.1C5.88965 0.1 3.90611 0.92162 2.41384 2.41387L15.4119 6.24838ZM15.4119 6.24838C15.5867 6.25207 15.7348 6.37795 15.7667 6.54982M15.4119 6.24838L15.7667 6.54982M15.7667 6.54982C15.8552 7.02687 15.9 7.5148 15.9 8C15.9 10.1104 15.0784 12.0939 13.5862 13.5861C12.0939 15.0784 10.1104 15.9 8 15.9C5.88965 15.9 3.90611 15.0784 2.41384 13.5861C0.92162 12.0939 0.1 10.1104 0.1 8C0.1 5.88965 0.92162 3.90611 2.41384 2.41387L15.7667 6.54982ZM7.46394 1.04459L7.77529 0.831053L7.39905 0.862472C3.72984 1.16888 0.8375 4.25292 0.8375 8C0.8375 11.9495 4.05049 15.1625 8 15.1625C11.7471 15.1625 14.8311 12.2702 15.1375 8.60095L15.1689 8.22478L14.9554 8.53606C14.6599 8.96691 14.3017 9.35603 13.8913 9.687C12.9381 10.4557 11.7373 10.8791 10.5104 10.8791C7.53867 10.8791 5.12081 8.4613 5.12081 5.48956C5.12081 4.26267 5.54424 3.06183 6.31293 2.10868C6.64391 1.69829 7.03305 1.34011 7.46394 1.04459Z" fill="#01BCCD" stroke="#01BCCD" stroke-width="0.2"/>
</svg>
