<svg width="18" height="16" viewBox="0 0 18 16" fill="none" xmlns="http://www.w3.org/2000/svg">
<path fill-rule="evenodd" clip-rule="evenodd" d="M3.75113 13.6527C5.2565 15.1667 7.26517 16 9.40518 16C13.8164 16 17.4052 12.4114 17.4052 8C17.4052 3.58875 13.8164 0 9.40518 0C5.72902 0 2.42452 2.45148 1.46985 5.85626L0.924029 4.98277C0.777771 4.74871 0.469107 4.67745 0.235045 4.8237C0.000983179 4.96996 -0.0702774 5.27863 0.0759808 5.51269L1.27377 7.42955C1.42003 7.66361 1.72869 7.73487 1.96275 7.58862L3.85748 6.40466C4.09154 6.2584 4.1628 5.94974 4.01655 5.71567C3.87029 5.48161 3.56162 5.41035 3.32756 5.55661L2.43762 6.11271C3.27724 3.13889 6.17679 1 9.40518 1C13.2652 1 16.4052 4.14002 16.4052 8C16.4052 11.86 13.2652 15 9.40518 15C7.53311 15 5.77713 14.2714 4.45975 12.9467C4.26443 12.7513 3.94778 12.7507 3.75247 12.9453C3.55716 13.14 3.55581 13.4567 3.75113 13.6527ZM11.6235 8.51551H9.38931C9.11331 8.51551 8.88931 8.29152 8.88931 8.01551V5.75519C8.88931 5.47919 9.11331 5.25519 9.38931 5.25519C9.66531 5.25519 9.88931 5.47919 9.88931 5.75519V7.51551H11.6235C11.8995 7.51551 12.1235 7.73951 12.1235 8.01551C12.1235 8.29152 11.8995 8.51551 11.6235 8.51551Z" fill="#C4C4C4"/>
</svg>
