<svg width="32" height="32" viewBox="0 0 32 32" fill="none" xmlns="http://www.w3.org/2000/svg">
<circle cx="16" cy="16" r="16" fill="#DCDFE5"/>
<path fill-rule="evenodd" clip-rule="evenodd" d="M13.0343 11.2897L18.0343 8.24617C19.1471 7.56877 20.5711 8.36942 20.5711 9.67185V22.3282C20.5711 23.631 19.1468 24.4311 18.0343 23.7538L13.0343 20.7104H9.88935C9.5821 20.7104 9.33301 20.4613 9.33301 20.154V11.846C9.33301 11.5387 9.5821 11.2897 9.88935 11.2897H13.0343ZM12.634 12.4023H10.4457V19.5977H12.634V12.4023ZM18.6128 22.8034C18.9842 23.0295 19.4584 22.762 19.4584 22.3282V9.67189C19.4584 9.23713 18.9835 8.97101 18.6128 9.19666L13.7466 12.1587V19.8414L18.6128 22.8034ZM22.1538 15.3443C21.9366 15.1271 21.9366 14.7748 22.1538 14.5576C22.3711 14.3403 22.7233 14.3403 22.9406 14.5576C23.736 15.3529 23.736 16.6471 22.9406 17.4424C22.7233 17.6597 22.3711 17.6597 22.1538 17.4424C21.9366 17.2251 21.9366 16.8729 22.1538 16.6556C22.5162 16.2932 22.5162 15.7067 22.1538 15.3443Z" fill="#677787"/>
</svg>
