<svg width="15" height="16" viewBox="0 0 15 16" fill="none" xmlns="http://www.w3.org/2000/svg">
<path fill-rule="evenodd" clip-rule="evenodd" d="M4.03431 3.28965L9.03429 0.246171C10.1471 -0.43123 11.5711 0.369419 11.5711 1.67185V14.3282C11.5711 15.631 10.1468 16.4311 9.03426 15.7538L4.03431 12.7104H0.889349C0.5821 12.7104 0.333008 12.4613 0.333008 12.154V3.84599C0.333008 3.53875 0.5821 3.28965 0.889349 3.28965H4.03431ZM3.63396 4.40234H1.44569V11.5977H3.63396V4.40234ZM9.61278 14.8034C9.98415 15.0295 10.4584 14.762 10.4584 14.3282V1.67189C10.4584 1.23713 9.98349 0.971009 9.61278 1.19666L4.74665 4.15866V11.8414L9.61278 14.8034ZM13.1538 7.34433C12.9366 7.12706 12.9366 6.77482 13.1538 6.55755C13.3711 6.34028 13.7233 6.34028 13.9406 6.55755C14.736 7.3529 14.736 8.64706 13.9406 9.4424C13.7233 9.65971 13.3711 9.65967 13.1538 9.4424C12.9366 9.22513 12.9366 8.8729 13.1538 8.65563C13.5162 8.29323 13.5162 7.70673 13.1538 7.34433Z" fill="#677787"/>
</svg>
