<svg width="10" height="10" viewBox="0 0 10 10" fill="none" xmlns="http://www.w3.org/2000/svg">
<path d="M9.97385 3.83555C9.90801 3.63307 9.72841 3.48971 9.51677 3.47056L6.63006 3.20848L5.48922 0.537542C5.40499 0.341311 5.21334 0.214661 5.00001 0.214661C4.78669 0.214661 4.59496 0.341311 4.51127 0.537542L3.37042 3.20848L0.48326 3.47056C0.271617 3.49009 0.0923996 3.63345 0.0261753 3.83555C-0.0396675 4.03804 0.0211398 4.26014 0.181207 4.40052L2.36333 6.31393L1.71993 9.14769C1.67286 9.35605 1.75373 9.5715 1.92661 9.69648C2.01954 9.764 2.12872 9.79772 2.23828 9.79772C2.33243 9.79772 2.42665 9.77269 2.51081 9.72234L5.00001 8.23397L7.48877 9.72234C7.67134 9.83144 7.90091 9.82145 8.07342 9.69648C8.2463 9.5715 8.32717 9.35605 8.2801 9.14769L7.6367 6.31393L9.81882 4.40052C9.97881 4.26014 10.0397 4.0385 9.97385 3.83555Z" fill="white"/>
</svg>
