<svg width="18" height="16" viewBox="0 0 18 16" fill="none" xmlns="http://www.w3.org/2000/svg">
<path d="M12.9091 0C10.973 0 9.37393 1.79829 8.72726 2.64702C8.08059 1.79829 6.48152 0 4.54544 0C2.03908 0 0 2.30434 0 5.13637C0 6.68147 0.613295 8.12147 1.68678 9.1069C1.7024 9.1339 1.72159 9.15875 1.74395 9.18111L8.47052 15.8938C8.54153 15.9645 8.63423 16 8.72726 16C8.82029 16 8.91333 15.9645 8.98437 15.8935L15.9346 8.94568L16.0064 8.87607C16.0632 8.82244 16.1193 8.7681 16.1821 8.69852C16.2084 8.67261 16.2301 8.64347 16.2468 8.61186C17.0263 7.65732 17.4545 6.42613 17.4545 5.13637C17.4545 2.30434 15.4155 0 12.9091 0Z" fill="#CF2D48"/>
</svg>
